<svg width="24" height="24" viewBox="0 0 24 24" fill="none" xmlns="http://www.w3.org/2000/svg">
<mask id="mask0_42_1509" style="mask-type:alpha" maskUnits="userSpaceOnUse" x="0" y="0" width="24" height="24">
<rect width="24" height="24" fill="#D9D9D9"/>
</mask>
<g mask="url(#mask0_42_1509)">
<path d="M19.7999 22.6L1.3999 4.2L2.7999 2.8L21.1999 21.2L19.7999 22.6ZM13.9999 11.15L11.9999 9.15V3H17.9999V7H13.9999V11.15ZM9.9999 21C8.8999 21 7.95824 20.6083 7.1749 19.825C6.39157 19.0417 5.9999 18.1 5.9999 17C5.9999 15.9 6.39157 14.9583 7.1749 14.175C7.95824 13.3917 8.8999 13 9.9999 13C10.3832 13 10.7372 13.0457 11.0619 13.137C11.3872 13.229 11.6999 13.3667 11.9999 13.55V12L13.9999 14V17C13.9999 18.1 13.6082 19.0417 12.8249 19.825C12.0416 20.6083 11.0999 21 9.9999 21Z" fill="#48473C"/>
</g>
</svg>
