<svg viewBox="1 0 24 24" xmlns="http://www.w3.org/2000/svg" fill="none"><defs><clipPath id="b" clipPathUnits="userSpaceOnUse"><path d="M1 1v2.303l.084-.065.639-.494c.654-.519 1.317-1.035 2.025-1.478l.002-.002c.006-.096.026-.183.102-.225.027-.015.052-.026.078-.039Zm3.621 0c.02.02.039.043.057.066A.937.937 0 0 1 4.773 1Zm2.402 0c0 .012-.003.025-.005.04.003 0 .006.003.01.005.06.03-.041.125-.063.19v.001l-.006.022-.021.062-.07.225c-.081.257-.154.517-.222.777.155.016.329.063.532.149.393.165.498.547.508.93.066.046.133.092.203.13l.2.242c.01.01.012.018.02.028 1.57.268 1.428 1.996-.43 1.996H5.8l.008.127.007.226c.009.151.02.302.055.45.041.169.106.326.192.478.158.295.311.591.453.895.24.488.48.98.683 1.486.226.614.408 1.241.537 1.883.099.496.184.997.198 1.504.014.542-.12.937-.325 1.187.239.893-.732 1.567-1.935.684-.24-.176-.474-.36-.65-.602a8.972 8.972 0 0 1-.438-.703c-.15-.29-.313-.574-.436-.877-.1-.248-.193-.499-.263-.758-.08-.284-.144-.57-.207-.859-.091-.39-.175-.782-.246-1.176-.064-.395-.122-.793-.192-1.187-.071-.5-.173-.993-.23-1.494-.045-.476-.068-.951-.063-1.428-.048-.021-.096-.042-.138-.067a3.786 3.786 0 0 1-.266.237c-.147-.003-.325.064-.469.056-.15.123-.792.668-.914.52A7.78 7.78 0 0 1 1 6.178v15.81h22.5V1ZM1 4.088v.416a1.63 1.63 0 0 1 .174-.309A2.994 2.994 0 0 1 1 4.088Z" style="fill:red;fill-opacity:1;fill-rule:nonzero;stroke:none"/></clipPath></defs><mask id="a" width="24" height="24" x="0" y="0" maskUnits="userSpaceOnUse"><path fill="#d9d9d9" d="M0 0h24v24H0z"/></mask><g mask="url(#a)"><path fill="#48473c" d="M6.125 14A11.804 11.804 0 0 1 3.5 6.5a11.675 11.675 0 0 1 .3-2.675L2.05 5.55 1 4.5 4.5 1 8 4.5 6.95 5.55l-1.625-1.6c-.1.417-.179.837-.237 1.262a10.266 10.266 0 0 0 .487 4.738A10.54 10.54 0 0 0 7.2 12.925Zm8.725 7.85-6.8-2.625.7-1.9c.117-.3.283-.562.5-.787.217-.225.483-.371.8-.438l1.975-.4L8.7 8.275a2.389 2.389 0 0 1-.05-1.913 2.437 2.437 0 0 1 1.325-1.387 2.426 2.426 0 0 1 1.913-.063c.641.242 1.104.68 1.387 1.313l1.75 3.925.6-.25a.496.496 0 0 1 .225-.05h.25l4.1.15c.433.017.817.167 1.15.45.333.283.558.642.675 1.075l1.4 5.35a1.83 1.83 0 0 1-.137 1.375c-.225.433-.563.75-1.013.95l-5.85 2.6a1.99 1.99 0 0 1-1.575.05Zm.775-1.875 5.825-2.6L20.1 12l-4.625-.175-1.575.7-2.45-5.475a.543.543 0 0 0-.287-.275.456.456 0 0 0-.388.025.552.552 0 0 0-.275.275.429.429 0 0 0 .025.375l4.325 9.675-4.25.925z" clip-path="url(#b)"/></g></svg>