<svg xmlns="http://www.w3.org/2000/svg"><path d="M1325.638 616.64c.12-2.757.863-7.713 1.653-11.013s3.017-14.251 4.95-24.335l3.514-18.336-5.385-10.998c-2.962-6.049-9.43-19.698-14.373-30.331-4.944-10.634-11.145-22.535-13.782-26.447-13.108-19.45-20.811-32.264-23.53-39.136-1.65-4.17-4.568-9.638-6.484-12.151-3.796-4.977-9.227-17.524-10.792-24.933-1.43-6.77-5.911-16.12-9.707-20.254-2.012-2.19-2.97-4.429-2.463-5.75.856-2.233-1.976-8.954-5.442-12.912-1.084-1.237-1.626-2.806-1.206-3.486.42-.68-.715-4.302-2.523-8.05-1.808-3.747-3.867-9.378-4.577-12.514-1.173-5.18-6.466-19.26-9.325-24.802-.633-1.227-1.946-4.905-2.918-8.171-.972-3.267-3.135-7.13-4.807-8.583-1.94-1.687-2.763-3.519-2.274-5.06.422-1.33.186-2.418-.525-2.418-1.452 0-4.22-7.103-4.22-10.83 0-1.336-4.45-11.897-9.888-23.467-10.452-22.238-16.86-43.243-21.468-70.37-2.709-15.943-7.49-33.174-11.247-40.54-2.537-4.973-2.73-7.722-2.73-38.74 0-23.458.437-33.386 1.47-33.386 3.312 0 25.098 7.163 32.921 10.824 4.616 2.16 8.895 3.616 9.51 3.236.615-.38 2.556.44 4.313 1.823 1.758 1.383 9.479 5.929 17.157 10.103 7.679 4.173 19.361 11.642 25.961 16.596 6.6 4.954 13.989 9.788 16.419 10.743 2.866 1.126 5.95 4.125 8.78 8.538 5.432 8.47 19.29 23.47 21.685 23.47.98 0 1.783.834 1.783 1.853 0 1.02 2.584 5.37 5.742 9.667 23.077 31.402 43.095 65.255 54.289 91.813 4.945 11.734 11.68 26.734 14.964 33.334 3.285 6.6 6.912 15 8.06 18.666 3.223 10.284 8.565 36.014 10.244 49.334.832 6.6 1.878 13.478 2.323 15.285.76 3.081.932 2.958 2.78-2 1.502-4.025 2.246-16.255 3.123-51.285 1.597-63.843-.074-78.31-10.36-89.695-6.126-6.781-22.287-31.536-30.23-46.305-8.089-15.042-10.911-22.547-14.768-39.268-2.927-12.69-3.798-14.642-9.384-21.027-8.677-9.918-13.214-20.23-19.6-44.545-5.734-21.837-6.848-33.226-4.65-47.546l.98-6.386-16.423-7.87c-9.033-4.327-18.223-9.382-20.423-11.232l-4-3.364 28.004-.048 28.003-.047 5.25 8.333c24.471 38.84 46.95 91.483 54.516 127.666 1.15 5.5 2.65 12.7 3.332 16 .683 3.3 3.965 12.9 7.294 21.334 21.275 53.909 19.264 49.369 20.781 46.914 1.193-1.93 13.137-38.772 17.371-53.58 1.573-5.5 3.763-12.7 4.868-16 1.106-3.3 4.11-12.567 6.676-20.593 8.047-25.167 17.877-44.882 32.97-66.13 3.081-4.336 8.001-11.292 10.935-15.457 2.933-4.165 5.962-8.228 6.73-9.03.768-.802 3.45-4.457 5.96-8.123 2.509-3.666 6.123-7.98 8.031-9.585 1.908-1.606 5.195-5.506 7.304-8.668 2.109-3.161 5.328-7.398 7.154-9.415l3.32-3.666h64.834v71.418l-10.195 11.957a43864.14 43864.14 0 0 0-16.439 19.291c-8.276 9.722-25.106 32.173-30.983 41.333-2.588 4.034-10.39 16.034-17.338 26.667-32.241 49.342-71.392 116.958-70.05 120.982.186.56-.209 1.127-.877 1.26-1.845.37-4.67 7.893-7.485 19.932-1.394 5.962-3.714 12.862-5.156 15.333-6.214 10.648-12.99 31.326-18.29 55.826-2.835 13.097-5.942 25.393-7.362 29.129-1.822 4.79-6.669 23.152-6.21 23.526.866.707 34.217-20.809 40.594-26.188 3.782-3.19 7.982-5.871 9.333-5.959 1.352-.088 7.258-3.129 13.125-6.758 5.866-3.63 15.766-8.924 22-11.766 6.233-2.84 12.233-5.879 13.333-6.75 1.1-.872 3.402-2.012 5.114-2.535 1.713-.523 5.913-2.61 9.334-4.638 11.241-6.666 30.548-17.394 31.301-17.394.406 0 5.539-2.915 11.406-6.478 5.866-3.564 14.756-8.197 19.756-10.297 4.999-2.1 9.873-4.884 10.831-6.188 3.016-4.103 4.258-2.615 4.258 5.1 0 6.973-.399 7.915-5.975 14.117-3.286 3.655-8.83 10.943-12.319 16.196-5.274 7.94-15.505 20.332-28.8 34.883-3.366 3.686-23.26 33.89-30.16 45.793-3.123 5.386-9.424 17.986-14.003 28-4.579 10.014-15.926 33.507-25.216 52.207-9.29 18.7-20.055 41.8-23.923 51.334l-7.032 17.333-64.62.347-64.619.346z" style="fill:#fcfcfa;stroke-width:1.33333" transform="translate(-1166.088 -24.294)"/><path d="M1326.477 614.64c.759-8.35 5.417-33.444 8.072-43.486l1.888-7.14-7.31-15.527c-16.633-35.334-25.805-53.242-30.615-59.774-8.253-11.208-15.474-23.197-19.126-31.753-1.879-4.4-5.341-10.97-7.695-14.601-4.665-7.198-9.603-19.274-9.603-23.487 0-3.373-7.387-18.239-11.145-22.428-1.758-1.96-2.28-3.39-1.36-3.72 1.498-.54-1.874-8.677-4.812-11.615-.742-.742-1.35-2.453-1.35-3.802 0-1.35-1.154-4.715-2.564-7.48-1.41-2.765-3.556-8.855-4.769-13.533-1.212-4.679-4.174-12.743-6.581-17.92-2.408-5.178-5.131-12.234-6.053-15.68-.921-3.447-2.814-7.298-4.206-8.557-1.54-1.394-2.227-3.247-1.756-4.734.427-1.344.15-2.443-.613-2.443-1.968 0-5.457-7.22-5.457-11.294 0-1.884-2.622-8.664-5.826-15.066-13.429-26.833-18.18-41.464-24.781-76.307-3.705-19.554-8.856-38.096-12.152-43.742-2.356-4.036-2.575-7.216-2.575-37.484V89.994l3.143.344c5.809.638 22.792 6.313 30.377 10.15 4.136 2.093 8.636 3.81 10 3.814 1.364.005 4.28 1.236 6.48 2.736 2.2 1.5 7.589 4.575 11.975 6.833 10.32 5.313 23.21 13.863 33.75 22.387 4.617 3.732 8.896 6.476 9.51 6.096 1.604-.99 7.823 4.217 10.02 8.39 1.029 1.952 4.964 6.85 8.746 10.883 3.783 4.033 8.07 8.983 9.529 11 1.458 2.016 3.51 3.666 4.56 3.666 1.051 0 1.91.818 1.91 1.817 0 1 1.87 4.15 4.157 7 11.642 14.519 38.667 57.116 46.429 73.183 2.834 5.867 7.359 15.942 10.055 22.39 2.697 6.447 8.687 19.703 13.31 29.458 8.279 17.463 15.169 40.302 17.343 57.486 1.538 12.15 3.56 25.298 4.284 27.843 1.015 3.57 2.685.536 4.316-7.843 2.274-11.683 2.97-96.835.91-111.408-2.04-14.427-3.6-18.068-11.92-27.816-7.75-9.08-24.34-36.02-32.561-52.877-6.07-12.445-7.022-15.687-11.728-39.9-.285-1.466-3.333-5.666-6.774-9.333-8.639-9.208-14.145-21.682-20.598-46.666-5.237-20.275-5.486-22.128-5.033-37.333l.477-16-17.734-8.782c-27.244-13.491-27.357-13.218 5.475-13.218h27.646l5.77 9c25.234 39.36 49.081 96.272 55.45 132.333 2.399 13.582 5.174 21.626 21.25 61.602 3.745 9.314 6.81 17.564 6.81 18.333 0 7.73 7.625-12.491 18.579-49.269 7.644-25.662 17.494-55.22 21.772-65.333 4.957-11.716 15.323-30.143 21.751-38.666 2.49-3.3 7.084-9.695 10.212-14.211 12.667-18.292 21.336-29.834 23.183-30.868 1.073-.6 3.895-3.826 6.27-7.168 2.377-3.342 6.233-8.253 8.57-10.915l4.248-4.838H1602.088V95.213l-14.462 16.873c-19.086 22.267-33.61 40.966-42.626 54.874a2161.85 2161.85 0 0 1-14.94 22.667c-21.326 31.831-51 81.53-67.675 113.347-8.266 15.773-11.502 23.525-13.633 32.667-1.537 6.592-3.603 13.22-4.592 14.729-6.027 9.201-14.555 35.65-20.18 62.59-1.072 5.133-4.393 17.561-7.381 27.618-2.988 10.056-5.225 18.861-4.972 19.567.609 1.696 32.934-18.139 41.487-25.456 3.683-3.151 7.576-5.634 8.65-5.519 1.076.116 6.089-2.463 11.14-5.731 5.052-3.268 15.41-8.848 23.018-12.401 7.608-3.553 14.243-7.124 14.745-7.935.501-.812 1.875-1.476 3.052-1.476s8.191-3.413 15.588-7.584c28.063-15.825 37.888-21.16 52.226-28.36 8.128-4.082 15.928-8.576 17.333-9.988 2.52-2.53 2.561-2.457 2.96 5.147.397 7.596.306 7.815-6.071 14.582-3.561 3.778-9.223 11.07-12.583 16.203-3.36 5.133-11.128 14.96-17.263 21.838-20.166 22.607-37.272 48.76-51.34 78.49-4.772 10.087-16.848 34.838-26.835 55.005-9.987 20.167-21.605 45.067-25.817 55.333l-7.66 18.667-64.208.346-64.21.347z" style="fill:#f9f9f4;stroke-width:1.33333" transform="translate(-1166.088 -24.294)"/><path d="M1326.088 614.96c0-3.667.6-6.667 1.333-6.667.734 0 1.373-1.95 1.421-4.333.048-2.383 1.792-12.433 3.877-22.333l3.789-18-5.733-12c-3.153-6.6-9.523-20.1-14.155-30-9.236-19.736-10.912-22.673-24.342-42.647-5.028-7.479-10.563-17.094-12.3-21.367-1.736-4.274-4.733-10.069-6.659-12.878-4.536-6.617-9.55-17.9-10.716-24.114-1.222-6.517-5.4-15.966-9.46-21.393-1.81-2.419-2.992-5.174-2.629-6.123.364-.948-1.083-4.914-3.215-8.814-2.133-3.9-3.878-7.782-3.878-8.627 0-.845-1.138-3.899-2.53-6.787-1.392-2.887-3.223-7.95-4.07-11.25-2.274-8.87-7.994-22.996-10.395-25.675-1.155-1.288-1.735-2.706-1.29-3.151 1.153-1.153-2.982-11.315-5.955-14.634-1.46-1.629-2.149-3.712-1.655-5 .488-1.27.193-2.207-.697-2.207-1.78 0-5.832-8.9-4.807-10.56.377-.61-3.78-10.634-9.236-22.275-11.246-23.988-14.904-35.604-21.362-67.832-5.175-25.828-8.41-37.65-12.49-45.647-2.672-5.239-2.846-7.537-2.846-37.633 0-32.042.001-32.053 2.906-32.053 4.283 0 20.59 5.103 29.76 9.314 4.4 2.02 9.733 4.083 11.85 4.584 2.117.501 5.717 2.298 8 3.993 2.283 1.695 8.608 5.394 14.055 8.22 5.447 2.824 16.166 9.805 23.818 15.513 7.652 5.707 14.992 10.376 16.31 10.376 2.183 0 9.299 6.963 9.303 9.102 0 .494 1.35 2.445 3 4.335 1.649 1.89 6.238 7.14 10.198 11.667 3.96 4.526 7.94 8.23 8.845 8.23.904 0 1.927 1.05 2.273 2.333.346 1.283 5.702 9.533 11.902 18.333 10.785 15.307 25.8 39.015 35.417 55.921 2.478 4.357 7.72 15.765 11.647 25.352 3.928 9.586 10.52 24.201 14.65 32.477 10.503 21.048 14.662 37.582 20.281 80.622.458 3.505 1.318 6.673 1.912 7.04.594.367 2.065-2.5 3.27-6.372 1.818-5.842 2.275-15.318 2.688-55.707.494-48.381-.48-66.937-3.95-75.188-.958-2.28-4.74-7.745-8.403-12.145-8.603-10.331-21.407-30.734-31.144-49.628-7.226-14.02-9.34-20.654-14.046-44.072-.335-1.668-2.998-5.568-5.918-8.666-9.786-10.387-15.149-22.88-22.733-52.967-3.94-15.625-4.146-17.629-3.315-32.058l.886-15.391-17.064-8.244c-9.386-4.534-18.565-9.444-20.398-10.912l-3.333-2.67 27.333-.013 27.333-.014 4.836 6.984c6.888 9.948 25.516 44.892 33.372 62.604 11.794 26.586 25.126 69.583 25.126 81.033 0 2.677 5.85 18.745 13.356 36.68 2.148 5.134 6.075 15.034 8.726 22 2.652 6.967 5.267 13.137 5.813 13.71 1.027 1.081 6.566-14.658 16.086-45.71 21.806-71.118 27.942-85.797 46.667-111.639a5117.42 5117.42 0 0 0 16.685-23.255c5.867-8.222 12.37-16.484 14.45-18.36 2.081-1.877 5.618-6.112 7.86-9.412 2.242-3.3 5.907-7.95 8.145-10.333l4.068-4.333H1602.088v70.333l-19.85 23.533c-26.01 30.836-31.17 38.106-66.998 94.416-40.558 63.742-61.527 102.527-67.06 124.033-1.837 7.14-4.223 14.34-5.302 16-5.829 8.965-13.09 31.965-19.618 62.135-1.533 7.086-4.494 17.983-6.579 24.216-3.913 11.697-6.224 22.667-4.775 22.667 2.072 0 38.046-23.43 42.394-27.612 2.683-2.58 5.683-4.414 6.666-4.076.984.339 5.09-1.613 9.123-4.338 7.208-4.87 41.725-22.844 45.01-23.438.923-.167 3.623-1.516 6-2.998 6.409-3.996 31.762-17.944 35.988-19.8 2.016-.884 6.26-3.393 9.43-5.574s11.12-6.464 17.667-9.518c6.547-3.053 13.254-6.802 14.904-8.331l3-2.78v7.458c0 7.046-.356 7.852-6.443 14.566-3.544 3.91-9.496 11.608-13.229 17.108-3.732 5.5-12.087 16-18.566 23.333-20.736 23.468-38.53 51.42-53.759 84.452-4.957 10.751-16.738 35.148-26.18 54.214-9.442 19.067-20.09 42.017-23.663 51l-6.495 16.334H1326.088z" style="fill:#f5f4eb;stroke-width:1.33333" transform="translate(-1166.088 -24.294)"/><path d="M1326.088 615.893c0-3.153.509-6.303 1.13-7 .622-.696 1.854-5.766 2.737-11.266s2.85-15.4 4.37-22l2.766-12-7.66-16c-4.214-8.8-11.244-23.487-15.624-32.638-4.38-9.15-11.118-21.15-14.972-26.667-9.072-12.983-17.312-27.14-20.196-34.695-1.26-3.3-3.374-7.212-4.699-8.694-3.323-3.717-10.09-18.967-11.255-25.362-1.134-6.23-6.446-17.398-10.246-21.543-1.501-1.637-2.337-3.849-1.892-5.007.44-1.145-1.008-5.136-3.225-8.897-2.212-3.751-3.692-7.15-3.29-7.552.403-.403-.064-1.98-1.036-3.505-.972-1.526-3.137-7.274-4.809-12.774-4.188-13.77-9.555-27.041-11.646-28.798-.96-.806-1.383-1.827-.942-2.268 1.395-1.395-4.011-14.44-6.547-15.798-1.62-.867-2.153-2.155-1.605-3.883.452-1.422.253-2.586-.44-2.586-1.637 0-4.84-7.741-4.587-11.088.107-1.424-1.827-6.604-4.298-11.51-14.42-28.635-21.762-50.683-26.662-80.069-2.47-14.808-8.999-38.067-12.75-45.42-2.387-4.68-2.622-7.947-2.622-36.526 0-29.014.176-31.385 2.333-31.359 4.565.055 23.924 6.393 32.04 10.49 4.537 2.29 8.785 4.01 9.441 3.823.656-.187 3.517 1.051 6.356 2.752 2.84 1.701 10.563 6.109 17.163 9.794 6.6 3.686 17.68 10.994 24.623 16.24 6.943 5.247 13.117 9.382 13.72 9.188 2.33-.745 6.63 2.752 8.351 6.792.991 2.325 6.325 9.026 11.854 14.893 5.529 5.867 10.067 11.098 10.086 11.625.018.527.933.613 2.033.19 1.318-.505 2 .046 2 1.617 0 1.311 3.168 6.626 7.04 11.81 12.935 17.32 24.719 35.551 39.064 60.445 4.391 7.618 11.433 23.172 15.838 34.98.957 2.566 5.48 12.466 10.05 22 4.569 9.533 8.82 18.668 9.445 20.299 2.152 5.611 9.024 37.045 9.845 45.034.452 4.4 1.391 11.3 2.088 15.333.696 4.034 1.452 8.834 1.679 10.667.386 3.12.55 3.021 2.561-1.54 4.025-9.13 5.185-19.298 5.019-43.977-.091-13.466.12-32.583.47-42.483.731-20.662-1.631-43.95-5.15-50.787-1.288-2.5-4.879-7.546-7.98-11.213-8-9.457-25.241-37.466-32.783-53.258-5.874-12.3-11.82-31.88-11.843-38.998-.01-1.607-3.064-6.407-6.798-10.666-10.124-11.55-14.032-20.397-21.385-48.411-3.712-14.144-4.356-18.832-4.253-30.97.067-7.865.467-15.675.888-17.354.776-3.092-3.212-5.48-27.128-16.25-2.567-1.155-6.467-3.577-8.667-5.382l-4-3.282 26.32-.048 26.32-.047 4.512 6.215c6.904 9.514 27.86 48.678 34.842 65.118 12.116 28.526 20.467 54.741 23.361 73.333 1.527 9.81 7.768 27.899 17.71 51.333 3.268 7.7 6.96 17.143 8.207 20.985 1.246 3.841 2.731 7.272 3.301 7.624.998.617 13.851-37.204 20.598-60.609 14.292-49.575 24.573-73.157 43.496-99.772 15.068-21.193 27.282-37.392 32.413-42.988 3.073-3.351 8.134-9.501 11.246-13.666l5.66-7.573h64.014l-.019 35-.019 35-14.784 17.333c-20.609 24.16-32.092 39.045-42.693 55.333-5.01 7.7-10.855 16.4-12.986 19.333-3.798 5.227-26.069 40.56-40.965 64.992-8.359 13.71-26.894 47.17-34.537 62.347-2.724 5.41-6.317 15.272-7.984 21.915-1.666 6.644-4.546 15.08-6.399 18.746-6.429 12.721-10.044 23.252-14.275 41.579-2.338 10.132-6.389 25.921-9 35.088-5.936 20.836-7.754 29.03-6.68 30.105 1.144 1.143 34.921-19.9 42.17-26.27 3.206-2.819 6.365-4.793 7.02-4.388.655.404 4.932-1.737 9.504-4.76 4.572-3.021 18.513-10.537 30.98-16.702 12.467-6.164 24.167-12.127 26-13.25 7.273-4.457 41.448-23.033 54.483-29.615 7.598-3.837 14.846-7.91 16.105-9.048 3.498-3.166 4.079-2.586 4.079 4.075 0 5.516-.686 6.896-6.684 13.459-3.676 4.022-9.287 11.337-12.47 16.256-3.181 4.92-9.624 13.34-14.316 18.71-28.35 32.457-43.42 56.329-63.61 100.761-3.666 8.067-13.85 29.067-22.63 46.667-8.782 17.6-18.89 39.348-22.462 48.328l-6.495 16.328-63.667.005-63.666.005z" style="fill:#f1f1e3;stroke-width:1.33333" transform="translate(-1166.088 -24.294)"/><path d="M1326.431 616.025c-.123-3.082.297-6.232.933-7 .636-.77 1.827-5.298 2.646-10.065.82-4.767 2.77-14.906 4.333-22.532l2.843-13.865-4.851-9.468c-2.668-5.208-9.155-18.768-14.416-30.135-5.924-12.8-14.256-27.771-21.892-39.333-6.78-10.267-13.89-22.52-15.799-27.227-1.909-4.709-4.314-9.509-5.345-10.667-3.236-3.637-9.87-17.821-11.585-24.773-2.223-9.01-6.045-17.761-10.045-23.006-1.822-2.389-2.955-4.922-2.518-5.63.867-1.401-2.458-8.687-5.605-12.28-1.083-1.237-1.61-2.831-1.17-3.542.44-.712-1.002-5.1-3.202-9.751-2.2-4.652-4.002-9.492-4.002-10.756 0-2.213-6.613-19.87-9.245-24.69-.704-1.29-2.26-5.495-3.459-9.344-1.198-3.85-3.48-7.962-5.07-9.138-1.984-1.466-2.363-2.343-1.208-2.785 1.186-.455.692-1.829-1.666-4.631-1.85-2.199-3.353-5.673-3.353-7.752 0-2.072-4.497-13.36-9.993-25.085-11.261-24.024-15.853-39.393-22.589-75.61-2.652-14.262-7.138-29.535-10.79-36.744-3.227-6.366-3.295-7.151-3.295-37.878 0-25.305.345-31.378 1.783-31.378 3.28 0 26.81 7.68 32.884 10.732 3.3 1.66 7.2 3.157 8.666 3.33 1.467.172 5.765 2.329 9.55 4.792 3.786 2.464 11.74 7.12 17.675 10.348 5.936 3.228 15.928 9.989 22.204 15.025 6.277 5.036 11.922 8.841 12.546 8.456 1.428-.883 9.354 5.686 9.373 7.769.01.851 3.657 5.448 8.109 10.215 4.451 4.766 9.313 10.355 10.803 12.418 1.546 2.14 3.503 3.447 4.558 3.042 1.211-.465 1.85.247 1.85 2.063 0 1.526 2.325 5.557 5.168 8.958 5.689 6.809 26.425 38.129 30.136 45.519 1.289 2.566 3.687 6.466 5.329 8.666 4.38 5.87 11.595 20.437 19.448 39.273 3.808 9.133 9.835 22.43 13.392 29.546 9.728 19.464 14.394 37.37 19.33 74.181 1.302 9.717 2.954 17.667 3.67 17.667.718 0 .973-.33.57-.735-.405-.404.499-3.854 2.008-7.666 2.492-6.296 2.84-11.094 3.784-52.266 1.523-66.37-.247-79.839-12.307-93.62-8.397-9.596-24.8-35.884-33.083-53.019-6.075-12.569-9.257-22.723-11.497-36.69-.718-4.478-2.49-7.686-7.002-12.667-8.404-9.28-15.24-24.663-21.034-47.337-5.093-19.928-6.056-30.576-4.103-45.364l.973-7.364-8.391-4.188a1077.666 1077.666 0 0 0-17.059-8.285c-4.766-2.253-10.166-5.3-12-6.77l-3.333-2.672 26.667.322 26.666.321 4.864 7.334c14.674 22.124 38.388 71.646 46.928 98 5.24 16.167 10.208 36.404 10.208 41.571 0 2.538 1.758 8.922 3.906 14.188 10.106 24.772 24.094 60.849 24.094 62.138 0 3.22 2.136 1.082 4.232-4.236 2.29-5.809 9.95-29.687 16.36-50.995 5.553-18.46 16.723-53.019 18.1-56 .678-1.467 3.298-7.167 5.822-12.667 8.359-18.207 40.27-65.093 52.685-77.407 1.908-1.892 6.739-7.75 10.737-13.016l7.268-9.576h63.463V93.649l-8.189 9.655c-27.43 32.346-37.309 44.916-47.928 60.99-6.54 9.9-13.748 20.7-16.019 24-11.704 17.014-42.283 66.686-54.411 88.383-17.682 31.636-25.386 47.903-27.505 58.085-1.122 5.39-3.511 12.705-5.31 16.254-8.366 16.51-12.333 29.098-20.134 63.877-1.897 8.457-4.602 18.46-6.013 22.23-2.58 6.895-6.684 25.837-5.599 25.837 1.816 0 38.21-23.655 43.182-28.066 3.26-2.892 6.116-4.69 6.349-3.995.232.694 4.732-1.502 10-4.882 9.171-5.884 27.42-15.36 36.577-18.994 2.383-.946 4.333-2.247 4.333-2.891 0-.645.96-1.172 2.133-1.172s5.523-2.02 9.666-4.49c13.023-7.762 34.552-19.51 35.753-19.51.633 0 4.184-2.043 7.892-4.54s12.1-7.066 18.65-10.153c6.548-3.088 12.386-6.445 12.973-7.46 2.1-3.636 3.6-1.74 3.6 4.55 0 5.743-.558 6.933-5.47 11.666-3.01 2.899-9.073 10.591-13.475 17.095-4.401 6.503-12.913 17.303-18.916 24-21.19 23.641-45.155 61.386-55.349 87.178-1.376 3.482-11.501 24.455-22.5 46.606-11 22.152-22.915 47.798-26.478 56.992l-6.479 16.716-63.383.008-63.383.008-.224-5.602z" style="fill:#f0eee0;stroke-width:1.33333" transform="translate(-1166.088 -24.294)"/></svg>