<svg xmlns="http://www.w3.org/2000/svg" xml:space="preserve" viewBox="0 0 106.892 20.469"><path d="M253.011 179.218v-10.23h106.892v20.46H253.01Z" style="fill:none;stroke-width:.117593" transform="translate(-253.011 -168.98)"/><path d="M270.464 189.177a8.326 8.326 0 0 1-1.144-.538c-.725-.448-1.574-1.508-1.97-2.461-.312-.748-.369-1.04-.385-1.978-.01-.605-.03-1.1-.045-1.1-.014-.001-.414.262-.888.584-.99.671-1.672.943-2.367.943-.973 0-1.285-.65-.783-1.633.61-1.195.855-5.328.423-7.127-.322-1.34-.335-1.476-.176-1.774.24-.45.818-.39 1.276.13.78.89 1.188 2.111 1.188 3.559 0 1.465-.612 3.662-1.413 5.069-.244.427-.395.795-.336.817.154.057 1.017-.472 2.1-1.287l.943-.711v-8.802h-1.874c-1.993 0-2.346-.069-2.86-.559-.367-.35-.4-.523-.143-.737.15-.124.227-.106.449.103.254.238.383.252 2.348.252h2.08v-1.152c0-.74.05-1.203.141-1.294.342-.341 1.231-.047 2.005.664.287.264.323.38.323 1.04v.742h1.57c1.548 0 1.577-.005 2.087-.35.653-.443.823-.441 1.337.01.48.422.568.956.188 1.16-.136.072-1.219.121-2.695.121h-2.468l-.066.735c-.037.404-.055 2.04-.04 3.637.025 2.563.05 2.885.205 2.758 1.282-1.044 1.529-1.292 1.529-1.535 0-.271.383-2.218.604-3.067.278-1.07.832-1.811 1.358-1.819.394-.006.435.193.17.809-.318.74-.474 1.462-.598 2.774-.194 2.05.2 3.657 1.316 5.377.33.507.496.907.533 1.28.048.49.028.548-.224.615-.524.14-.774.077-1.307-.33-.969-.74-1.643-1.984-1.935-3.573l-.094-.511-.793.613-.794.614v6.434l.337.174c.185.096.675.23 1.088.296 1.746.284 2.964.06 3.749-.686l.47-.447v-1.056c0-.611-.077-1.313-.182-1.67-.1-.338-.15-.718-.11-.844.17-.535 1.17-.105 2.027.871.388.443.458.77.39 1.839-.038.602-.694 1.957-1.135 2.345-.709.622-1.582.869-3.224.91-1.305.033-1.55.007-2.184-.234zm26.35.196c-2.014-.322-4.442-.995-5.483-1.52-.702-.355-1.66-1.43-2.137-2.402l-.376-.764.016-6.274c.014-5.412.04-6.298.193-6.45.278-.279.807-.089 1.38.495l.51.52-.03 6.462c-.032 6.897-.045 6.722.56 7.26.402.357 2.904 1.152 4.414 1.402 1.397.232 2.17.161 3.033-.278.827-.42 1.173-1.074 1.245-2.352.04-.713 0-1.051-.196-1.605-.362-1.025-.295-1.592.188-1.592.262 0 1.73 1.558 2.006 2.13.72 1.485-.036 3.841-1.482 4.616-.575.308-.745.339-2.058.372-.786.02-1.589.01-1.783-.02zm32.456-.17a5.392 5.392 0 0 1-.785-.267c-.72-.314-2.816-1.976-3.245-2.573-.221-.308-.416-.56-.433-.56-.018 0-.476.207-1.018.46-1.332.621-2.715 1.063-3.6 1.149-.816.08-1.091-.046-1.091-.497 0-.237.097-.292.794-.452 1.591-.364 3.245-1.074 4.018-1.725l.284-.24-.212-.67c-.402-1.269-.61-2.418-1.014-5.61-.234-1.85-.191-1.736-.614-1.661-.206.036-.78.101-1.275.144l-.9.078-.51-.478c-.405-.378-.482-.51-.368-.624.112-.113.21-.114.45-.005.287.131 1.121.041 2.61-.281l.265-.058v-2.692c0-1.481.032-2.777.071-2.88.156-.406 1.165-.161 1.78.433l.383.369V175.014l.382-.078c.737-.15 3.412-.539 3.718-.54.17 0 .548-.158.839-.352.697-.463.998-.45 1.485.067.888.941.58 1.072-3.858 1.64-.755.097-1.443.198-1.529.224a7.845 7.845 0 0 1-.485.121l-.33.073.068.848c.25 3.098.544 5.061.78 5.207.058.036.106.199.106.362v.296l.478-.41c1.178-1.007 2.602-3.62 2.793-5.123.074-.585.358-1.008.548-.818.126.126.546 1.427.66 2.048.144.774-.035 1.997-.41 2.815-.349.76-2.17 2.58-3.225 3.222-.123.075-.093.245.146.834.392.964.769 1.572 1.423 2.294.502.554.566.588 1.114.588.821 0 1.044-.255 1.201-1.374.1-.71.086-1.098-.074-2.035-.176-1.036-.178-1.176-.018-1.336.151-.152.222-.155.468-.024.588.315 1.114.844 1.374 1.38.37.764.38 2.124.02 2.812-.264.505-.923 1.155-1.287 1.27-.468.147-1.645.254-1.977.179zm18.407-.1c-.074-.137-.122-1.294-.122-2.94 0-2.947.042-2.785-.681-2.64-.259.052-.401.175-.51.441-.606 1.478-1.827 2.948-2.91 3.502-.67.342-2.077.376-2.676.066-.6-.312-.984-.855-.984-1.394 0-.418.077-.547.676-1.14.845-.834 1.841-1.326 3.852-1.904 1.292-.37 1.556-.486 1.705-.747.234-.41.583-.515.787-.236.087.119.134.28.104.358-.041.108.03.113.292.022.293-.103.345-.183.345-.528v-.408l-2.734.024-2.734.024-.07-.434c-.056-.342-.027-.456.14-.545.115-.062 1.377-.112 2.804-.112h2.594v-1.162c0-1.993.106-2.159 1.193-1.88.905.232 1.042.48 1.042 1.887v1.165l1.793-.016c1.409-.012 1.835-.053 1.99-.191.18-.16.136-.208-.509-.548-.506-.267-1.185-.855-2.404-2.078-1.038-1.04-1.732-1.654-1.785-1.576-.621.94-2.546 2.42-4.328 3.325-2.072 1.053-5.795 1.954-5.895 1.426-.063-.333.166-.481 1.093-.707 1.574-.384 3.13-1.314 5.222-3.123 1.787-1.543 2.55-2.32 3.114-3.17.256-.386.544-.768.64-.849.14-.12-.062-.147-1.07-.147-.683 0-1.407-.033-1.61-.073l-.367-.074v.585c0 1.032-.167 1.285-1.562 2.373-.183.143-.245.129-.507-.117-.296-.277-.298-.295-.217-1.543l.082-1.263-2.161-.032-2.161-.032-.037-.5-.036-.5h4.423l-.039-.891c-.054-1.241.091-1.398 1.2-1.296.445.041.856.104.912.138.057.035.103.484.103.998v.934h5.88v-1.162c0-.808.046-1.2.152-1.288.11-.091.389-.065 1.01.094.472.122.893.256.935.298.043.043.096.513.119 1.045l.04.967 1.595.017c1.496.016 1.625-.001 2.086-.271.65-.38.796-.366 1.353.137.517.467.599.833.256 1.144-.187.168-.556.195-2.748.195h-2.533l-.059.823c-.052.73-.096.853-.392 1.086-1.244.978-1.595 1.02-1.718.207-.043-.29-.083-.86-.088-1.264l-.009-.735h-2.326l.222.437c.137.267.223.68.223 1.066 0 .504.069.73.343 1.128.947 1.378 2.828 2.522 4.948 3.01.874.202 3.055.474 3.793.474.79 0 1.146.145 1.146.466 0 .34-.56.668-1.716 1.01-.86.252-1.206.297-1.93.25-.484-.032-.987-.099-1.116-.148-.226-.086-.227-.08-.03.146.27.307.261.59-.021.741-.137.073-1.24.122-2.764.122h-2.536v.47c0 .457.012.47.402.47 1.189 0 4.127.879 5.849 1.749.598.302 1.013.62 1.418 1.088.565.651.573.672.597 1.528.023.827.012.87-.248.907-.21.03-.528-.207-1.373-1.025-1.05-1.017-2.796-2.284-3.534-2.567-.904-.346-2.88-.804-3.016-.698-.013.01-.053 1.128-.089 2.484l-.064 2.465-.638.445c-.712.497-1.224.576-1.416.218zm-4.649-3.722c.776-.54 1.483-1.096 1.57-1.237.138-.224.135-.247-.025-.186-.101.039-.613.188-1.138.332-1.053.289-2.36 1.027-2.748 1.552-.245.33-.245.333-.013.503.379.277.843.088 2.354-.964zm-87.371 3.72c-1.448-.36-2.646-1.432-2.646-2.366 0-1.2 1.784-2.72 3.917-3.34l.67-.196v-1.629h-.489c-.384 0-.595.088-.994.416-.904.74-1.92.976-2.49.577-.702-.492.093-1.68 1.289-1.927.606-.125.74-.214 1.44-.956.425-.45.773-.871.773-.935 0-.222-.432-.112-.707.18-.16.171-.357.27-.468.235-.12-.039-.287.068-.451.29-.836 1.132-2.553.828-2.321-.41.105-.562.488-.907 1.372-1.238.673-.251.728-.302 1.006-.924.475-1.063.78-3.122.684-4.613-.09-1.403.004-1.749.477-1.749.385 0 .718.352 1.096 1.159.272.581.31.803.299 1.781-.014 1.22-.239 2.045-.915 3.351-.2.388-.383.746-.405.794-.022.049.22.088.536.088.652 0 .802-.142 1.548-1.467.778-1.383.866-1.61.977-2.506.163-1.326.225-1.489.583-1.53.564-.066 1.085.989 1.088 2.203.002.648-.061.895-.392 1.536-.5.97-1.79 2.713-2.765 3.737l-.754.79 1.366.034c.751.018 1.427.01 1.502-.019.077-.03.164-.427.201-.915.073-.96.363-1.813.672-1.978.356-.19.455.075.389 1.044-.072 1.048.158 2.042.634 2.739.229.334.278.516.217.794-.071.325-.122.36-.53.36-.491 0-1.104-.411-1.237-.829-.076-.239-.531-.304-1.086-.156-.243.066-.264.139-.264.927 0 .955-.06.897 1.072 1.06.528.076.547.068.67-.286.118-.337.404-.484.534-.274.03.05.114.51.185 1.023.116.837.331 1.422.893 2.43.095.17.41.504.702.743.364.298.53.523.53.72 0 .267-.041.286-.618.283-.697-.003-1.518-.325-1.86-.73-.336-.4-.58-1.33-.58-2.212v-.786l-.545-.075c-1.045-.143-.983-.206-.983 1.005 0 .848-.052 1.187-.241 1.578-.32.662-1.047 1.472-1.72 1.918-.568.376-1.083.445-1.861.251zm1.963-1.21c.026-.081.018-.946-.017-1.921l-.065-1.774-.77.25c-.942.305-2.07 1.04-2.435 1.587-.446.665-.109 1.572.688 1.85.556.196 2.536.2 2.599.008zm55.064.876c-.806-.39-1.304-.91-1.41-1.474-.09-.478.277-1.996.763-3.162.405-.972 1.453-2.415 2.754-3.796l.887-.94.005-2.323.005-2.322h-1.52c-.837 0-1.645-.047-1.797-.105-.373-.142-1.049-.849-1.008-1.055.018-.092.126-.226.239-.297.167-.105.261-.069.504.193.294.317.325.323 1.676.321 2.076-.002 1.904.16 1.92-1.805.022-2.603.071-2.684 1.261-2.083 1.03.52 1.077.623 1.077 2.328v1.444h.43c.236 0 .703-.134 1.039-.298.697-.342 1.059-.283 1.392.225.252.385.248.578-.018.82-.173.156-.47.194-1.514.194h-1.299l-.057.97c-.031.534-.03 1.305.002 1.714.055.697.075.74.32.678.143-.036.705-.1 1.25-.142.855-.065 1.011-.048 1.159.13.152.183.139.23-.12.44-.16.128-.58.381-.937.561a6.93 6.93 0 0 0-1.205.82l-.559.493-.001 2.43c-.002 3.103-.077 3.387-1.278 4.817-.698.832-1.753 1.446-2.601 1.515-.54.044-.764-.004-1.358-.291zm2.682-1.072.322-.122V182.03l-.813.657c-1.313 1.06-2.712 3.138-2.797 4.153-.057.682.053.852.628.973.567.12 2.23.046 2.66-.118zm-32.98-3.049c-.428-.4-.49-.524-.536-1.087-.1-1.216.524-2.563 1.87-4.032.607-.663.871-.784 1.135-.52.22.219.167.526-.129.761-.446.354-1.4 1.589-1.632 2.114-.286.648-.326 1.861-.07 2.118.325.324.73.102 1.374-.754.973-1.297 1.45-3.141 1.408-5.445-.014-.771.028-1.452.097-1.576.351-.627.737.419 1.048 2.84.34 2.658-.049 4.243-1.296 5.264-.691.567-1.235.769-2.07.769-.666 0-.747-.03-1.199-.452zm21.013-2.451c-.519-.278-.981-.69-1.472-1.31-.569-.718-.704-1-1.238-2.571l-.447-1.316-.538.307a8.828 8.828 0 0 0-.714.444c-.251.195-2.21.646-2.805.646-.643 0-1.028-.205-1.65-.88-.74-.803-1.021-1.613-1.43-4.118-.316-1.94-.108-4.41.37-4.41.235 0 .242.021.459 1.412.298 1.914 1.141 4.27 1.912 5.342.662.92.896 1.084 1.733 1.212.824.126 1.362.033 2.011-.347l.518-.304-.11-1.19c-.125-1.372-.06-1.544.5-1.312.314.13.352.208.423.87.304 2.843 2.3 5.446 4.654 6.073.22.059.303.168.33.442.046.47-.303.803-1.082 1.035-.731.217-.98.212-1.424-.025zm24.586-8.218a.673.673 0 0 1-.185-.403c0-.3-.699-1.615-1.219-2.297-.46-.602-.526-.886-.257-1.108.135-.113.32-.07.914.214.91.434 1.59 1.086 1.69 1.621.103.546-.032 1.328-.307 1.78-.258.425-.37.459-.636.193z" style="fill:#b3cbca;stroke-width:.117593" transform="translate(-253.011 -168.98)"/><path d="M270.52 189.17c-1.497-.529-2.379-1.361-3.103-2.93-.38-.823-.412-.979-.412-2.017 0-.618-.03-1.124-.066-1.124-.036 0-.366.204-.735.453-1.175.797-1.659.994-2.472 1.006-.608.009-.774-.031-.911-.218-.236-.322-.209-.678.111-1.45.464-1.12.601-2.14.588-4.377-.01-1.703-.056-2.219-.263-2.988-.305-1.134-.309-1.274-.036-1.522.365-.33.787-.242 1.191.247 1.15 1.391 1.449 3.233.892 5.497-.368 1.499-.656 2.267-1.176 3.14-.229.385-.416.722-.416.75 0 .127.38.026.787-.21.543-.313 2.16-1.523 2.362-1.767.112-.135.14-1.19.116-4.514l-.031-4.337-2.097-.013c-2.25-.014-2.432-.06-2.865-.712-.143-.215-.139-.272.032-.443.184-.184.214-.181.454.045.24.225.4.241 2.411.241h2.154l-.082-1.05c-.123-1.564.152-1.845 1.262-1.288.863.433 1.004.63 1.093 1.539l.08.816 1.68-.038c1.512-.034 1.708-.062 1.954-.285.398-.358.66-.419 1.016-.234.5.259.75.6.707.97-.037.324-.065.337-.861.408-.453.04-1.652.08-2.665.088l-1.84.015-.07.559c-.039.307-.06 1.944-.048 3.637.026 3.499-.072 3.291 1.065 2.271.418-.374.677-.701.677-.854 0-.136.073-.568.163-.96.09-.393.255-1.137.368-1.654.24-1.107.52-1.707.951-2.047.332-.261.692-.32.807-.134.039.062-.062.426-.223.809-.397.943-.565 2.04-.57 3.724-.002 1.301.026 1.489.373 2.424.207.557.62 1.378.917 1.823.43.644.543.917.553 1.338.012.513 0 .531-.415.634-.38.095-.484.065-.95-.27-.916-.657-1.747-1.965-1.91-3.005l-.128-.823-.063-.407-.809.65c-.445.356-.83.711-.858.788-.027.077-.04 1.516-.027 3.198l.023 3.057.532.27c.413.21.808.286 1.76.34 1.464.083 2.218-.111 2.932-.756l.454-.41v-1.142c0-.691-.072-1.384-.183-1.758-.208-.698-.109-.954.37-.954.334 0 1.43.87 1.718 1.365.448.766.2 2.334-.546 3.446-.61.912-1.98 1.42-3.828 1.418-.868-.001-1.29-.063-1.894-.276zm25.824.11c-1.733-.292-4.209-1.022-5.211-1.537-.495-.255-1.555-1.533-1.985-2.395l-.33-.662.03-6.138c.018-3.798.075-6.258.15-6.452.105-.277.164-.306.497-.24.214.044.595.29.88.569l.5.492V186.142l.337.368c.633.692 4.23 1.766 5.903 1.761.675-.002 1.726-.283 2.106-.563.888-.657 1.218-2.496.707-3.943-.282-.8-.257-1.292.072-1.419.305-.117 1.517 1.019 1.99 1.865.472.843.525 1.45.229 2.597-.272 1.052-.85 1.847-1.613 2.22-.541.265-.826.317-1.977.36-.824.03-1.709-.011-2.285-.108zm51.447-.064c-.148-.093-.183-.58-.212-2.938l-.035-2.827-.377.002c-.506.002-.587.072-.964.822-.81 1.608-1.656 2.592-2.704 3.144-.478.252-.743.31-1.412.305-1.235-.008-2.043-.472-2.25-1.293-.293-1.17 1.584-2.532 4.613-3.346 1.247-.336 1.444-.423 1.612-.715.105-.184.28-.368.39-.41.241-.092.53.26.428.524-.053.14-.02.166.136.106.113-.043.281-.08.373-.08.116 0 .166-.142.166-.473v-.475l-2.616.008c-1.439.004-2.683.006-2.763.004-.21-.006-.194-.901.018-.983.09-.035 1.347-.065 2.792-.067l2.628-.004.006-1.418c.008-1.833.07-1.918 1.138-1.576.936.3 1.027.472 1.03 1.949l.002 1.138 1.793-.06c1.485-.05 1.829-.095 2.002-.263.2-.194.181-.216-.411-.48-.47-.209-1.05-.7-2.385-2.028-1.898-1.885-1.897-1.885-2.352-1.174-.13.202-.277.37-.328.372-.052.002-.305.2-.563.438-1.57 1.454-4.724 2.937-7.432 3.497-1.35.278-1.6.231-1.441-.271.05-.159.304-.275.918-.42 1.738-.411 3.474-1.475 5.899-3.616 1.396-1.233 2.947-2.952 3.138-3.477.108-.299.505-.194.778.207.218.318.274.542.253 1-.032.687.26 1.228 1.088 2.016 1.716 1.631 3.56 2.281 7.448 2.627.907.08 1.563.192 1.615.275.26.41-.043.653-1.372 1.102-1.004.34-2.125.422-3.105.23l-.512-.1.255.254c.318.318.271.616-.113.723-.161.045-1.391.087-2.733.094l-2.44.011v.47c0 .453.015.471.382.473.693.003 2.492.444 3.858.945 2.092.768 2.835 1.183 3.435 1.92.452.555.53.734.597 1.373.08.77-.022 1.054-.379 1.05-.105-.002-.636-.45-1.18-.996-1.01-1.014-2.217-1.922-3.253-2.445-.7-.354-2.147-.764-2.873-.813l-.529-.036-.08 1.587c-.043.873-.05 1.864-.015 2.203.094.915-.008 1.152-.699 1.617-.625.421-.948.497-1.263.299zm-5.016-3.615c1.323-.904 2.218-1.667 1.964-1.674-.298-.008-2.159.597-2.743.893-.63.32-1.496 1.053-1.496 1.267 0 .077.066.207.147.29.274.28.937.038 2.128-.776zm-87.236 3.448c-1.409-.446-2.528-1.465-2.528-2.303 0-1.153 1.71-2.65 3.704-3.245.388-.116.739-.24.78-.277.04-.037.107-.424.15-.86l.076-.794h-.55c-.464 0-.65.075-1.167.475-.903.696-1.834.9-2.379.518-.73-.511.364-1.932 1.488-1.933.331 0 .504-.114 1.035-.677.351-.372.745-.822.875-1l.237-.323h-.34a.802.802 0 0 0-.592.292c-.14.16-.327.263-.417.228-.093-.035-.297.096-.47.302-.785.932-2.047.942-2.25.017-.125-.57.225-1.11.953-1.468.35-.171.734-.312.853-.312.353 0 .899-1.388 1.134-2.887.149-.944.183-1.617.129-2.524-.062-1.017-.042-1.284.109-1.5.245-.35.531-.33.905.062 1.142 1.197 1.13 3.504-.032 5.825-.258.514-.468.954-.468.98 0 .024.26.044.578.044.528 0 .608-.038.926-.44.19-.243.621-.97.957-1.617.528-1.02.618-1.293.675-2.058.118-1.567.656-1.876 1.244-.714.258.508.324.8.324 1.43 0 1.4-.749 2.693-3.04 5.252l-.87.97h1.488c1.09 0 1.5-.04 1.53-.147.022-.081.092-.547.155-1.036.123-.958.325-1.486.643-1.683.318-.198.377-.016.344 1.048-.032 1.017.199 2.16.51 2.523.523.612.449 1.294-.14 1.293-.43 0-1.061-.394-1.232-.769-.124-.271-.192-.296-.733-.265l-.596.035-.035.87c-.019.48.007.91.06.959.05.048.425.125.83.17l.737.083.13-.37c.082-.238.195-.359.314-.336.139.027.225.304.338 1.09.191 1.325.56 2.094 1.475 3.07.447.48.68.819.636.931-.15.395-1.708.093-2.292-.444-.43-.397-.616-.958-.69-2.09l-.066-1.03-.542-.076a7.662 7.662 0 0 1-.748-.137c-.185-.054-.206.048-.207 1.036 0 1.36-.287 2.058-1.215 2.965-1.008.984-1.655 1.185-2.723.847zm2.101-2.93c-.009-1.02-.036-1.877-.061-1.902-.064-.064-1.276.344-1.76.592-.692.354-1.343.87-1.56 1.237-.284.482-.166 1.152.28 1.579.287.275.469.333 1.256.397.506.041 1.132.048 1.39.015l.47-.06zm71.005 2.861c-1.118-.515-3.667-2.636-3.667-3.052 0-.2-.202-.15-1.097.276-1.925.914-3.981 1.431-4.528 1.138-.503-.269-.196-.833.453-.833.335 0 2.252-.661 2.996-1.033.803-.401 1.353-.837 1.353-1.072 0-.108-.106-.496-.235-.863-.284-.809-.53-2.188-.872-4.91l-.26-2.059-.463.016c-.255.009-.872.035-1.372.059-.904.043-.91.041-1.32-.369-.297-.298-.381-.458-.304-.582.089-.143.153-.146.388-.02.235.125.507.113 1.625-.074l1.343-.225-.041-2.343c-.047-2.661.027-3.459.319-3.458.445.002 1.108.271 1.489.606l.408.359v4.475l.441-.078c1.014-.178 3.518-.536 3.764-.539.146 0 .485-.16.753-.355.715-.518 1.149-.435 1.64.313.224.342.148.659-.19.788-.102.04-1.148.206-2.326.371-1.178.165-2.512.366-2.965.448l-.823.147.023 1.093c.032 1.54.357 3.906.667 4.861.26.802.265.807.481.569.12-.133.276-.242.347-.243.07 0 .3-.252.509-.559.21-.306.618-.9.909-1.32.552-.8 1.239-2.597 1.239-3.241 0-.198.079-.462.176-.588.174-.226.178-.226.358.007.1.13.292.598.427 1.042.2.656.235 1.011.188 1.905-.091 1.74-.598 2.532-2.718 4.247-.528.426-.98.792-1.004.813-.086.074.593 1.622.92 2.094.182.266.567.734.854 1.04.459.493.579.56 1.006.56.62 0 1.06-.365 1.207-1 .166-.717.135-1.861-.074-2.783-.17-.743-.17-.848-.01-1.008.16-.16.22-.154.57.066 1.098.687 1.503 1.413 1.507 2.7.003.973-.16 1.45-.683 1.99-.622.642-.869.746-1.918.804-.81.044-1.072.012-1.49-.18zm-15.557-.05c-.607-.233-1.347-.721-1.565-1.031-.23-.33-.24-1.222-.02-2.096.467-1.861 1.211-3.126 3.043-5.174l1.104-1.235.08-2.322.08-2.322h-1.524c-.837 0-1.672-.057-1.854-.126-.794-.3-1.34-1.286-.712-1.286.146 0 .332.106.413.236.136.218.274.235 1.898.235h1.752l-.012-1.852c-.013-1.955.051-2.382.354-2.382.304 0 1.665.813 1.808 1.079.09.167.104.686.047 1.641l-.084 1.396h.572c.363 0 .711-.086.956-.235.567-.346 1.005-.306 1.369.127.36.428.378.593.089.854-.174.158-.475.195-1.587.195h-1.373v1.578c0 1.87.022 1.96.45 1.838.173-.05.712-.127 1.197-.172.673-.063.934-.043 1.105.083.296.219.179.377-.555.748-.787.397-1.535.912-1.904 1.31-.292.315-.293.324-.293 2.68 0 2.648-.083 3.104-.74 4.09-1.184 1.774-2.822 2.631-4.094 2.143zm2.317-1.22c.218-.116.255-.276.323-1.39.097-1.584.1-4.28.005-4.28-.186 0-1.643 1.276-2.108 1.847-.794.975-1.583 2.495-1.581 3.045.002.547.086.7.472.864.367.157 2.56.091 2.889-.085zm-32.76-2.868a1.914 1.914 0 0 1-.824-1.527c0-.668.4-1.796.869-2.448.234-.325.425-.61.425-.632 0-.096 1.018-1.166 1.205-1.267.24-.13.676.058.676.292 0 .084-.138.28-.307.437-.447.415-1.268 1.505-1.546 2.052-.328.643-.438 1.468-.266 1.988.115.35.193.42.473.42.253 0 .45-.135.81-.557.703-.823 1.018-1.479 1.365-2.849.263-1.038.31-1.471.302-2.78-.01-1.624.036-1.928.287-1.928.269 0 .613 1.349.877 3.435.399 3.154-.838 5.365-3.118 5.57-.733.066-.86.045-1.229-.206zm20.85-2.619c-.519-.229-1.345-1.013-1.84-1.746-.228-.337-.635-1.247-.906-2.023a47.72 47.72 0 0 0-.514-1.437c-.012-.014-.337.166-.722.399-.835.505-2.791 1.027-3.545.945-.904-.098-1.953-1.215-2.336-2.489-.32-1.066-.64-3.24-.64-4.362 0-1.095.17-2.25.36-2.453.163-.173.464.163.464.517 0 1.474 1.138 5 1.995 6.18.695.958.9 1.09 1.936 1.244.866.128.906.123 1.539-.197.357-.18.694-.386.747-.455.054-.07.047-.621-.016-1.226-.091-.887-.082-1.131.047-1.26.13-.13.216-.133.455-.014.251.125.305.255.378.907.19 1.717.88 3.135 2.149 4.417.82.829 1.067 1.003 1.911 1.346.872.355.97.426.97.706 0 .729-1.58 1.379-2.433 1.001zm40.037-6.797c-.133-.209-.216-1.323-.098-1.323.015 0 .049-.303.076-.674l.05-.673-2.206-.032-2.206-.032v-.941l2.2-.032 2.202-.032-.02-.38c-.011-.208-.01-.658.004-1 .03-.785.23-.901 1.318-.767l.763.094.06 1 .058 1 1.588.037c.873.02 2.182.002 2.91-.041l1.323-.079v-1.037c0-.57.032-1.12.071-1.223.091-.237.46-.235 1.33.006.784.218.833.31.833 1.586v.691h1.649c1.583 0 1.667-.012 2.115-.309.421-.278.502-.294.823-.16.42.173.94.753.94 1.048 0 .114-.097.295-.215.402-.186.169-.556.195-2.747.195h-2.533l-.061.77c-.07.87-.182 1.038-1.06 1.601-.852.547-.954.439-1.028-1.09l-.058-1.222h-5.998l.038.429c.07.819-.154 1.29-.904 1.893-.779.628-.972.675-1.217.294zm-15.548-1.45a.687.687 0 0 1-.184-.415c0-.32-.518-1.319-1.14-2.195-.555-.784-.608-1.12-.185-1.181.322-.046 1.386.475 1.835.898.686.647.8 1.173.485 2.232-.206.695-.52.951-.81.662z" style="fill:#92b4b2;stroke-width:.117593" transform="translate(-253.011 -168.98)"/><path d="M270.65 189.172c-.42-.15-.946-.366-1.168-.482-.662-.345-1.497-1.304-1.973-2.265-.419-.848-.448-.978-.485-2.169l-.04-1.266-.855.582c-1.025.699-1.477.899-2.271 1.004-.546.072-.627.051-.914-.236-.36-.36-.353-.484.105-1.77.618-1.737.71-5.13.194-7.145-.247-.964-.251-1.047-.07-1.323.367-.561.906-.356 1.529.582.618.93.929 2.204.841 3.442-.109 1.545-.725 3.594-1.43 4.754-.23.38-.402.744-.38.808.076.23 1.408-.584 2.654-1.622l.618-.514V172.765l-2.248-.037-2.247-.036-.33-.396c-.183-.218-.303-.47-.27-.559.084-.217.499-.207.583.014.057.148.423.176 2.29.176h2.22l-.028-1.098c-.031-1.17.08-1.489.52-1.489.274 0 .843.28 1.362.667.367.275.382.318.382 1.103v.817h1.682c1.61 0 1.7-.012 2.08-.294.22-.161.544-.294.72-.294.384 0 1.045.522 1.045.824 0 .596.038.588-2.765.588h-2.623l-.071.558c-.08.623-.06 6.85.022 6.85.054 0 .482-.348 1.194-.97.376-.329.424-.456.717-1.896.479-2.35.662-2.888 1.14-3.34.428-.403.935-.485.895-.144-.011.097-.155.55-.32 1.006-.398 1.107-.602 3.231-.43 4.474.142 1.014.693 2.387 1.365 3.4.323.486.448.803.455 1.148.009.442-.02.485-.373.578-.488.13-.85-.056-1.58-.807-.812-.837-1.236-1.783-1.45-3.236l-.065-.435-.877.67-.878.67v6.273l.294.232c.352.277 1.511.496 2.697.51.956.011 1.84-.306 2.447-.879.312-.295.323-.346.323-1.524 0-.81-.063-1.405-.188-1.773-.212-.62-.103-.9.35-.9.285.002 1.298.736 1.62 1.176.603.823.358 2.588-.526 3.791-.81 1.102-3.703 1.624-5.49.99zm25.87.112c-2.035-.341-4.108-.94-5.242-1.515-.656-.333-1.63-1.42-2.079-2.318-.252-.507-.266-.69-.322-4.293-.077-4.888.012-9.056.197-9.24.22-.22.71-.027 1.292.51l.534.492-.027 3.179a634.85 634.85 0 0 0-.012 6.613l.015 3.436.352.401c.29.33.612.488 1.793.882 1.779.594 2.78.783 4.146.783 1.31 0 2.038-.308 2.581-1.09.312-.45.353-.617.395-1.588.038-.88 0-1.224-.2-1.816-.305-.9-.306-1.002-.019-1.262.221-.2.252-.187.922.402 1.308 1.151 1.757 2.3 1.434 3.669-.321 1.363-1.12 2.373-2.114 2.67-.697.21-2.637.254-3.646.085zm51.27-.068c-.146-.093-.182-.584-.216-2.938l-.04-2.827h-.447c-.444 0-.452.01-1.077 1.14-1.17 2.118-2.384 3.094-3.852 3.094-1.097 0-1.628-.196-2.027-.747-.43-.593-.425-.978.021-1.593.675-.932 2.234-1.714 4.702-2.359.887-.232 1.033-.309 1.27-.67.32-.488.65-.489.705 0 .028.238.088.312.216.263.097-.038.252-.068.344-.068.115 0 .167-.141.167-.456v-.455l-.955-.083c-.526-.046-1.756-.069-2.734-.05l-1.78.032-.035-.42c-.029-.34.01-.431.204-.482.132-.034 1.409-.054 2.837-.045l2.597.018-.023-.529a32.835 32.835 0 0 1-.01-1.502c.014-.887.039-.983.28-1.09.37-.167 1.482.235 1.69.61.097.174.156.708.158 1.432l.004 1.155 1.735-.038c1.448-.031 1.787-.073 2.053-.254l.318-.216-.798-.4c-.656-.327-1.094-.702-2.45-2.097l-1.652-1.698-.367.38c-.202.208-.367.442-.367.52 0 .077-.07.14-.155.14-.085 0-.307.16-.493.355-.804.839-3.214 2.226-4.79 2.757-.47.159-1.07.366-1.333.462-.884.322-2.514.576-2.7.421-.236-.195-.017-.562.39-.653 1.892-.428 3.46-1.273 5.42-2.924 2.22-1.871 3.508-3.223 3.91-4.107.364-.798 1.196-.036 1.141 1.044-.035.673.28 1.269 1.077 2.042 1.683 1.634 3.765 2.332 7.967 2.672.565.046 1.021.143 1.096.232.356.43-.607.961-2.382 1.316-.81.162-1 .163-1.792.005l-.886-.176.297.297c.688.688.216.81-3.21.831l-2.029.013v.889l.97.15c1.223.187 2.408.514 3.778 1.04 1.627.625 2.352 1.053 2.91 1.715.436.517.515.697.595 1.36.093.775.004 1.078-.315 1.078-.08 0-.617-.463-1.193-1.029-1.008-.992-2.596-2.16-3.452-2.539-.607-.268-1.97-.639-2.675-.727l-.618-.077-.021 1.275-.042 2.492c-.01.67-.07 1.251-.131 1.293l-.656.459c-.562.394-.844.46-1.149.267zm-6.144-2.856c1.167-.64 3.838-2.75 3.2-2.527-.1.035-.6.18-1.11.323-1.137.32-1.363.415-2.168.918-.707.442-1.058.806-1.064 1.102-.007.335.668.444 1.142.184zm-86.23 2.625c-1.168-.416-1.99-1.051-2.286-1.768-.518-1.25 1.37-3.125 3.802-3.776.718-.192.783-.282.783-1.106v-.735l-.467-.075c-.427-.068-.535-.024-1.273.514-.947.691-1.63.856-2.239.54-.53-.274-.507-.713.069-1.272.484-.47.924-.678 1.439-.678.266 0 .487-.168 1.073-.82.981-1.09 1.026-1.179.6-1.179-.207 0-.443.112-.61.29-.15.16-.323.26-.384.222-.061-.038-.305.117-.541.343-.778.743-1.433.887-1.863.41-.354-.395-.406-.647-.223-1.086.193-.462.569-.734 1.403-1.016.575-.195.616-.237.925-.968.418-.987.706-2.78.673-4.192-.037-1.603-.02-1.787.183-1.99.164-.165.215-.165.503-.005.391.219.913 1.143 1.092 1.936.214.943-.11 2.537-.808 3.968l-.558 1.147h.601c.517 0 .644-.049.909-.345.169-.19.449-.627.622-.97.173-.344.41-.759.524-.922.267-.379.547-1.38.646-2.314.124-1.164.64-1.299 1.125-.295.412.851.444 2.022.076 2.852-.449 1.016-1.508 2.458-2.816 3.834-.44.462-.799.898-.799.97 0 .14.642.148 2.11.026l.877-.073.15-1.042c.157-1.09.441-1.752.78-1.817.176-.034.199.094.199 1.127 0 1.258.172 2.03.581 2.605.169.237.244.492.22.744-.032.33-.085.387-.39.415-.44.04-1.085-.346-1.234-.738-.1-.265-.177-.294-.762-.294h-.65v1.966l.618.075c.997.12 1.147.1 1.147-.145 0-.265.293-.535.465-.43.067.042.122.249.122.46 0 1.474.67 2.956 1.78 3.941.37.328.475.495.414.654-.07.183-.175.205-.727.148-1.49-.154-2.15-.949-2.26-2.72l-.062-.989-.425-.073c-.233-.04-.564-.1-.734-.134l-.31-.061-.05 1.212c-.055 1.385-.176 1.693-1.019 2.6-1.13 1.217-1.826 1.454-3.021 1.029zm2.164-.996c.163-.1.192-3.665.03-3.765-.166-.103-1.307.318-2.167.799-1.394.779-1.74 1.762-.913 2.59.306.305.462.359 1.21.42 1.029.084 1.657.07 1.84-.043zm70.925.9c-1.224-.622-3.527-2.57-3.527-2.985 0-.19-.36-.1-1.091.27-1.005.507-2.902 1.132-3.718 1.225-.547.062-.714.038-.873-.121-.37-.37-.185-.615.572-.76 1.501-.289 4.06-1.469 4.248-1.959.038-.1-.065-.643-.23-1.204-.326-1.107-.575-2.598-.846-5.068-.095-.869-.223-1.629-.284-1.69-.07-.07-.53-.063-1.243.022-1.204.142-1.386.106-1.915-.376-.429-.39-.278-.827.186-.538.178.112.502.093 1.563-.09l1.338-.23-.044-1.82c-.06-2.47.062-3.99.32-3.989.44.001 1.112.27 1.464.585.421.376.406.262.425 3.282l.01 1.574.5-.077c.275-.043 1.32-.2 2.322-.348 1.523-.226 1.899-.322 2.28-.585.252-.174.528-.316.614-.316.242 0 .987.706.987.935 0 .448-.369.567-2.705.877-1.26.167-2.518.357-2.794.422-.276.065-.601.118-.723.118-.313 0-.338.155-.228 1.411.232 2.657.554 4.59.81 4.865.052.057.069.17.037.253-.1.26.153.296.373.054.115-.128.271-.233.346-.233.074 0 .525-.564 1-1.255.928-1.345 1.65-3.007 1.65-3.8 0-.284.08-.508.232-.646.227-.205.238-.197.473.349.415.97.509 1.55.43 2.664-.057.799-.152 1.21-.392 1.7-.329.671-1.376 1.755-2.659 2.752-.585.455-.67.57-.61.823.16.666.939 2.025 1.545 2.695.62.684.672.715 1.205.715.643 0 .999-.284 1.19-.95.161-.564.138-2.03-.046-2.91-.133-.634-.132-.77.01-.911.216-.217.462-.087 1.208.636.635.617.822 1.109.823 2.17.001.81-.228 1.413-.74 1.946-.548.571-.888.71-1.921.782-.848.06-.978.037-1.571-.264zm-15.395.019c-.59-.213-1.29-.63-1.52-.909-.596-.717.024-3.39 1.196-5.155.42-.634 1.476-1.906 2.397-2.89l.468-.5.078-2.352.079-2.352h-1.534c-1.037 0-1.656-.053-1.912-.162-.796-.339-1.184-1.142-.593-1.227.172-.025.278.042.33.206.073.23.163.242 1.885.242h1.809l-.016-1.735c-.01-.954.025-1.91.076-2.126.083-.351.125-.384.405-.317.537.13 1.566.813 1.684 1.117.065.17.077.843.03 1.617l-.082 1.326h.601c.394 0 .734-.08.986-.235.56-.34.955-.302 1.316.127.36.428.378.593.089.854-.174.158-.475.195-1.587.195h-1.373v1.776c0 1.645.015 1.77.206 1.696.3-.119 2.257-.292 2.451-.218.091.035.165.161.165.28 0 .152-.277.361-.916.694-.505.262-1.14.678-1.412.924l-.494.448v2.345c-.003 2.668-.101 3.222-.745 4.186-1.194 1.785-2.764 2.614-4.066 2.145zm2.107-1.15.412-.132.073-.882c.04-.485.08-1.771.088-2.858l.015-1.977-.695.535c-.922.71-1.708 1.612-2.402 2.758-.745 1.23-.89 2.308-.343 2.548.59.258 2.052.262 2.852.008zm-32.573-2.925c-1.295-.884-1.018-2.687.753-4.892.724-.901 1.141-1.164 1.415-.89.101.101.184.211.184.245 0 .033-.317.412-.705.842-.92 1.02-1.53 2.167-1.53 2.884 0 1.122.484 1.48 1.16.86.354-.324 1.109-1.44 1.285-1.9.488-1.277.663-2.365.646-4.02-.012-1.24.023-1.701.136-1.795.11-.092.183-.086.262.022.558.762.967 4.813.62 6.125-.374 1.405-1.434 2.47-2.66 2.67-.976.16-1.132.145-1.566-.15zm20.449-2.843c-.491-.33-1.399-1.365-1.678-1.915-.106-.207-.4-.966-.653-1.686-.254-.72-.485-1.333-.514-1.362-.058-.058-.854.375-1.154.627-.21.178-2.413.74-2.897.74-.532 0-1.297-.462-1.79-1.082-.459-.575-.838-1.526-1.005-2.52-.042-.25-.152-.835-.243-1.302-.198-1.006-.215-2.499-.04-3.5.256-1.474.54-1.322.78.418.152 1.11.868 3.532 1.3 4.4.096.194.436.707.754 1.14.664.902.975 1.054 2.205 1.079.689.014.862-.03 1.369-.343l.58-.359-.053-.817c-.104-1.62-.101-1.636.259-1.678.258-.03.347.026.44.273.065.17.118.453.118.63 0 .539.344 1.677.78 2.586.287.596.685 1.146 1.28 1.768.828.867 1.204 1.121 2.438 1.648.749.32.773.69.075 1.152-.694.459-1.753.505-2.351.103zm40.481-6.564c-.17-.32-.187-.703-.079-1.823l.083-.853h-4.367l-.071-.284c-.18-.717-.196-.712 2.214-.747l2.203-.032v-.969c0-.836.032-.988.232-1.113.276-.172 1.589-.069 1.761.14.062.074.129.53.148 1.012l.035.876 1.823.037c1.002.02 2.312.002 2.91-.04l1.088-.077v-.857c0-1.19.094-1.59.372-1.59.125 0 .568.085.985.19l.76.19v2.088h1.747c1.514 0 1.786-.028 2.029-.215.441-.338.681-.384 1.042-.198.402.208.826.72.826 1 0 .11-.097.288-.215.395-.187.169-.561.194-2.817.194h-2.602l-.035.85-.034.848-.75.523c-.586.408-.792.496-.941.402-.208-.132-.221-.22-.238-1.652l-.012-.97h-6.11l.069.503c.097.709-.159 1.232-.924 1.885-.723.618-.928.67-1.132.287zm-15.633-1.523c-.078-.078-.141-.255-.141-.395 0-.328-.603-1.467-1.197-2.262-.745-.997-.414-1.367.712-.796 1.576.799 1.967 1.714 1.345 3.153-.194.45-.459.56-.719.3z" style="fill:#639592;stroke-width:.117593" transform="translate(-253.011 -168.98)"/><path d="M271.118 189.335c-1.755-.45-2.966-1.478-3.74-3.174-.242-.531-.307-.885-.348-1.911l-.051-1.26-.664.45c-2.5 1.695-4.18 1.472-3.373-.446.431-1.026.56-1.904.604-4.129.041-2.04-.004-2.493-.38-3.787-.18-.625-.18-.69.003-.97.567-.865 1.796.41 2.24 2.325.377 1.632-.176 4.434-1.25 6.339-.442.782-.53 1.032-.359 1.032.17 0 1.505-.852 2.352-1.498l.853-.651v-8.904h-2.064c-1.61 0-2.139-.04-2.407-.178-.388-.2-.635-.582-.54-.831.085-.22.382-.215.467.009.057.148.425.176 2.306.176h2.238l-.026-1.104c-.025-1.111.085-1.483.439-1.483.22 0 1.005.373 1.44.684.367.263.381.304.381 1.088v.815h1.682c1.61 0 1.7-.013 2.081-.294.528-.39.947-.375 1.399.047.387.362.467.722.209.936-.1.083-1.074.14-2.734.161l-2.578.032-.02 3.675c-.01 2.021.01 3.675.046 3.675s.42-.291.855-.646c.765-.627.793-.668.92-1.382.515-2.915.836-3.897 1.407-4.304.39-.277.48-.297.705-.155.116.074.083.24-.148.745-.655 1.43-.822 4.55-.32 5.98.287.815.773 1.783 1.237 2.459.244.357.36.67.366.993.008.445-.014.475-.403.557-.312.065-.501.031-.78-.141-.954-.59-1.95-2.151-2.106-3.304-.154-1.136-.074-1.109-1.055-.363l-.88.67v6.396l.505.244c.316.153.946.29 1.685.366 1.06.108 1.258.097 1.942-.115.45-.139.952-.4 1.225-.636l.463-.4-.014-1.278c-.01-.885-.072-1.415-.204-1.728-.214-.51-.1-.901.261-.901.319 0 1.244.657 1.622 1.15.3.393.334.528.33 1.32-.002.659-.07 1.03-.27 1.47-.526 1.16-.773 1.408-1.819 1.822-.812.32-1.15.387-2.14.422-.647.022-1.362-.007-1.59-.066zm25.37-.06c-2.004-.356-4.26-1.018-5.318-1.56-.535-.275-1.513-1.443-1.952-2.332l-.353-.714.035-6.249c.04-7.01.011-6.782.807-6.446.223.094.578.35.79.571l.386.4-.018 5.46c-.027 8.345-.059 7.68.393 8.164.305.327.661.505 1.757.877.757.257 1.683.52 2.058.583l1.38.236c.852.146 2.06-.07 2.704-.483 1.022-.657 1.364-2.48.775-4.132-.3-.84-.259-1.154.16-1.236.258-.051 1.313.907 1.74 1.579.522.824.639 1.41.466 2.347-.254 1.382-.898 2.315-1.89 2.742-.764.328-2.635.42-3.92.192zm51.326-.085c-.102-.102-.141-.916-.141-2.92 0-1.529-.023-2.802-.05-2.83-.028-.028-.28-.032-.56-.01l-.508.04-.588 1.13c-.74 1.426-1.532 2.308-2.468 2.75-1.165.552-2.56.428-3.236-.288-.509-.538-.557-.85-.226-1.473.517-.975 1.88-1.745 4.322-2.439 1.373-.39 1.586-.484 1.732-.767.273-.528.759-.55.759-.034 0 .25.039.275.323.208.456-.108.522-.198.48-.649l-.039-.397-2.763-.017-2.764-.017-.035-.413-.036-.412.976-.076c.537-.042 1.814-.058 2.838-.035l1.861.04-.024-.534c-.013-.294-.017-.97-.009-1.5.02-1.235.153-1.344 1.187-.967.849.31.945.514.945 2.017v1.05l1.74-.039c1.457-.031 1.795-.073 2.074-.256l.333-.22-.75-.356c-.622-.294-1.046-.659-2.456-2.106l-1.706-1.75-.86.874c-1.868 1.9-4.638 3.32-7.841 4.021-.712.156-1.364.258-1.45.226-.085-.032-.137-.176-.117-.32.032-.221.188-.301 1.003-.515 1.64-.43 2.997-1.227 5.092-2.993 1.642-1.383 3.148-2.958 3.54-3.702.229-.435.333-.527.565-.5.438.052.758.717.676 1.405-.047.4-.019.59.105.692.093.077.17.217.17.31 0 .263 1.141 1.335 2.087 1.961 1.334.882 3.639 1.482 6.406 1.665.695.047 1.309.144 1.368.217.258.322-.078.636-1.016.948-1.642.547-2.6.604-3.848.228-.194-.059-.176-.008.104.289.205.218.31.432.268.543-.061.159-.434.183-2.779.183h-2.708v.53c0 .47.03.529.264.529.273 0 1.671.271 2.5.485.625.162 2.399.824 3.355 1.254.76.341 1.273.761 1.807 1.478.354.476.494 1.634.23 1.898-.097.097-.213.176-.256.176-.044 0-.557-.468-1.14-1.04-.95-.93-2.435-2.025-3.409-2.513-.547-.274-1.94-.664-2.68-.751l-.671-.079-.016 1.045c-.062 4.183-.017 3.96-.919 4.534-.569.363-.823.41-1.04.192zm-4.886-3.654c1.33-.925 2.307-1.814 1.864-1.696-2.867.761-4.537 1.744-4.247 2.5.061.158.182.187.591.141.398-.045.805-.26 1.792-.945zm-87.6 3.39c-1.213-.428-2.11-1.226-2.265-2.015-.223-1.137 1.8-2.92 3.933-3.468.693-.177.753-.289.696-1.291l-.036-.64-.45-.038c-.376-.03-.556.044-1.112.463-.982.742-1.743.965-2.297.674-.528-.278-.566-.63-.124-1.155.376-.447 1.09-.827 1.554-.827.272 0 .494-.16 1.059-.764.393-.42.771-.87.84-1 .113-.21.09-.235-.212-.235a.834.834 0 0 0-.552.235c-.117.13-.29.236-.387.236-.096 0-.4.208-.677.463-.636.586-1.232.725-1.68.393-.359-.267-.454-.728-.251-1.216.166-.403.528-.654 1.334-.927.583-.198.614-.232.939-1.01.476-1.141.687-2.533.67-4.43-.013-1.522 0-1.618.233-1.742.37-.198.782.132 1.153.923.282.601.312.793.302 1.96-.011 1.403-.238 2.215-.992 3.551-.202.358-.297.642-.23.684.064.04.35.036.634-.006.614-.092.937-.398 1.488-1.407.874-1.6.94-1.777 1.074-2.864.107-.866.18-1.112.36-1.208.17-.092.278-.072.447.08.335.303.699 1.392.699 2.09 0 1.139-1.137 3.012-3.107 5.118-.502.537-.885 1.004-.852 1.038.034.033.744.023 1.58-.023l1.517-.084.143-1.073c.148-1.115.413-1.752.754-1.818.177-.034.2.095.2 1.125 0 1.263.2 2.155.595 2.658.16.204.23.44.206.693-.035.365-.059.382-.505.367-.392-.013-.54-.095-.904-.506-.42-.473-.457-.489-1.06-.454l-.625.035-.035.87c-.02.48.008.915.061.968.053.053.466.13.917.172l.82.076.142-.379c.233-.624.437-.377.539.655.065.663.193 1.134.444 1.637.548 1.1.637 1.226 1.236 1.753.425.375.543.548.48.71-.07.184-.174.205-.727.148-1.488-.153-2.126-.921-2.252-2.707-.08-1.124.028-1.009-1.125-1.207-.436-.075-.441-.071-.452.32-.006.217-.002.647.01.955.03.898-.28 1.62-1.065 2.477-.71.775-1.479 1.257-2 1.252-.157 0-.646-.13-1.086-.285zm2.24-.923c.216-.165.21-3.846-.007-3.846-.741 0-2.78 1.094-3.239 1.738a1.307 1.307 0 0 0 .296 1.833c.476.353 2.588.55 2.95.275zm71.057.957c-1.097-.52-3.647-2.66-3.647-3.06 0-.176-.353-.1-.952.203-1.413.716-3.935 1.444-4.505 1.301-.296-.074-.453-.326-.358-.575.032-.083.493-.261 1.025-.398 1.277-.326 2.239-.677 2.899-1.056 1.054-.605 1.227-.91.939-1.651-.359-.92-.529-1.864-.938-5.207-.13-1.064-.26-1.959-.29-1.988-.029-.029-.569.003-1.2.072-.955.104-1.21.096-1.52-.048-.485-.227-.79-.573-.704-.799.057-.148.122-.156.37-.043.237.108.58.091 1.645-.082l1.345-.218-.002-2.817c0-1.55.046-2.865.104-2.923.167-.167 1.045.083 1.493.424.42.321.545.687.503 1.48a48.8 48.8 0 0 0 .003 1.956l.025 1.544.794-.15a63.64 63.64 0 0 1 2.322-.36c1.298-.18 1.598-.261 1.987-.542.253-.183.529-.332.614-.332.25 0 .986.71.986.95 0 .298-.417.546-1.059.63-.428.057-3.267.466-5.15.742-.379.056-.386.067-.325.543.034.268.119 1.175.188 2.015.128 1.547.374 2.996.607 3.568.07.172.138.405.15.519.038.345.151.358.36.04.11-.168.27-.305.355-.305.152 0 .519-.485 1.51-1.999.55-.84 1.13-2.414 1.13-3.065 0-.426.167-.698.43-.698.081 0 .286.435.458.97.275.858.302 1.092.24 2.018-.114 1.703-.628 2.548-2.464 4.053-.443.364-.928.743-1.079.843l-.273.18.39.896c.42.967.87 1.664 1.52 2.358.36.386.48.441.952.441.65 0 1.058-.242 1.228-.73.164-.472.161-1.964-.006-3.091-.073-.49-.102-.922-.065-.96.242-.241 1.46.626 1.798 1.28.254.49.35 1.938.165 2.498-.185.56-.882 1.342-1.383 1.552-.21.088-.766.185-1.235.215-.702.046-.946.012-1.38-.194zm-15.465-.082c-1.907-.68-2.206-1.549-1.362-3.967.551-1.582 1.331-2.749 3.008-4.501l.94-.984.037-2.324.036-2.324-.654-.081a6.257 6.257 0 0 0-1.289-.002c-.35.044-.857.042-1.127-.003-.863-.146-1.661-1.102-1.1-1.317.123-.048.27.019.401.18.195.24.303.255 1.971.255h1.765l.04-2.049c.02-1.126.082-2.092.135-2.145.143-.142 1.8.771 1.935 1.066.066.146.09.84.054 1.632l-.06 1.378h.6c.395 0 .735-.08.987-.235.579-.352.966-.306 1.32.158.367.481.373.6.039.835-.2.14-.578.183-1.588.183h-1.326v1.776c0 1.646.015 1.77.206 1.69.113-.046.748-.112 1.411-.145 1.126-.055 1.205-.045 1.205.163 0 .158-.28.377-.948.746-.521.287-1.156.7-1.411.919l-.463.396v2.296c0 2.769-.127 3.403-.89 4.447-.792 1.085-.906 1.193-1.71 1.627-.974.526-1.423.594-2.162.331zm2.011-1.093.484-.121.074-.96c.041-.528.075-1.823.076-2.878v-1.92l-.382.265c-.21.146-.805.695-1.323 1.22-1.62 1.646-2.517 3.65-1.907 4.26.345.344 1.87.413 2.978.134zm-32.373-2.887c-.87-.491-1.111-1.208-.808-2.396.356-1.395 1.925-3.519 2.6-3.519.47 0 .435.332-.101.918-1.254 1.371-1.72 2.214-1.724 3.115-.003.63.263 1.259.532 1.259.276 0 1.133-.858 1.545-1.548.208-.347.522-1.18.703-1.863.285-1.075.328-1.454.33-2.938.002-1.488.028-1.708.197-1.74.261-.05.505.728.74 2.36.469 3.248.045 4.923-1.51 5.968-.383.256-.833.467-1 .467-.168.001-.49.03-.717.066a1.174 1.174 0 0 1-.787-.149zm20.28-2.968c-1.068-.677-1.636-1.599-2.453-3.98-.336-.982-.393-1.074-.564-.925a3.65 3.65 0 0 1-.6.373c-.227.114-.446.258-.486.321-.041.063-.28.155-.53.205-.25.05-.865.185-1.367.3-1.119.255-1.598.148-2.256-.504-.912-.902-1.198-1.627-1.655-4.198-.307-1.724-.09-4.643.333-4.503.18.06.27.4.417 1.563.188 1.503 1.102 4.05 1.83 5.105.734 1.06 1.09 1.288 2.161 1.378.693.058.894.029 1.331-.19.955-.48.922-.411.82-1.721-.05-.643-.051-1.215-.001-1.272.05-.057.223-.07.386-.029.25.063.306.162.366.633.385 3.056 1.993 5.224 4.677 6.306.529.214.582.541.151.94-.663.615-1.769.7-2.56.198zm40.562-6.449c-.218-.24-.25-.678-.14-1.875l.077-.85-2.148-.032-2.15-.032-.103-.4c-.076-.294-.062-.426.052-.498.085-.054 1.094-.099 2.242-.1l2.087-.002v-.923c0-1.127.175-1.37.9-1.252 1.132.186 1.1.169 1.1.567 0 .205.035.651.076.99l.074.618 2.659-.012c1.462-.006 2.79-.049 2.952-.094.279-.079.295-.13.305-.959.019-1.516.02-1.522.313-1.52.145 0 .582.096.97.212l.705.211.034 1.022.034 1.022h1.73c1.529-.001 1.771-.028 2.083-.235.484-.32.883-.294 1.319.088.494.434.581.776.275 1.082-.229.229-.377.241-2.829.241h-2.587V174.385l-.766.547c-.422.3-.837.52-.923.486-.173-.066-.307-.933-.309-1.991v-.677H345.56l.069.504c.097.709-.159 1.232-.923 1.885-.355.303-.698.551-.762.551-.064 0-.201-.094-.305-.209zm-15.725-1.739a1.746 1.746 0 0 1-.115-.451c0-.192-1.11-2.042-1.427-2.38-.277-.295-.209-.748.112-.746.38.002 1.416.57 1.874 1.028.66.66.744 1.344.296 2.41-.22.526-.569.591-.74.14z" style="fill:#46807e;stroke-width:.117593" transform="translate(-253.011 -168.98)"/><path d="M271.18 189.336c-2.52-.55-4.175-2.659-4.175-5.32v-1.044l-.677.459c-1.449.982-2.594 1.357-3.2 1.048-.407-.208-.5-.77-.226-1.381.327-.73.433-1.214.62-2.822.204-1.765.093-3.762-.276-4.957-.283-.915-.198-1.34.294-1.463.625-.157 1.562 1.154 1.866 2.61.36 1.728-.14 4.226-1.259 6.303-.268.497-.453.94-.41.981.118.12 1.109-.462 2.242-1.315l1.026-.772v-8.912h-2.064c-2.232 0-2.569-.074-2.864-.626-.086-.161-.12-.35-.077-.422a.256.256 0 0 1 .46.048c.058.148.426.176 2.306.176h2.238l-.025-1.116c-.038-1.64.196-1.787 1.554-.974l.647.387.035.852.034.851h1.649c1.616 0 1.947-.061 2.315-.43.402-.4 1.553.16 1.553.757 0 .449-.231.49-2.89.524l-2.578.031-.023 3.675c-.012 2.021.008 3.675.046 3.675.037 0 .418-.287.847-.637l.778-.637.384-1.9c.405-2.008.747-2.888 1.249-3.217.334-.219.417-.231.631-.096.117.074.085.237-.142.734-.55 1.201-.817 3.905-.524 5.306.155.746.872 2.328 1.407 3.106.27.393.389.7.394 1.03.008.439-.017.477-.37.551-.243.051-.498.02-.706-.088-.985-.506-2.096-2.238-2.222-3.464-.102-.994-.082-.99-1.042-.267l-.884.666v6.418l.5.242c.276.133 1.004.306 1.618.384 1.037.13 1.177.123 1.945-.11.52-.159 1-.402 1.293-.655l.465-.402-.011-1.277c-.008-.893-.069-1.411-.201-1.721-.393-.919.123-1.144 1.076-.47.922.652 1.236 1.263 1.15 2.24-.07.782-.365 1.573-.85 2.275-.454.658-1.853 1.173-3.336 1.227-.616.023-1.332-.005-1.591-.061zm25.693-.016c-2.42-.436-4.63-1.055-5.671-1.59-.576-.295-1.546-1.452-1.985-2.367l-.352-.735.035-6.228c.031-5.503.057-6.251.222-6.416.247-.246.703-.057 1.308.541l.436.432-.072 5.806c-.083 6.763-.053 7.252.475 7.818.477.512 2.494 1.222 4.477 1.577 1.306.234 1.447.239 2.182.073 1.143-.258 1.58-.558 1.968-1.35.433-.88.45-2.19.041-3.236-.293-.754-.215-1.254.197-1.25.373.005 1.508 1.215 1.916 2.043.333.677.374.859.315 1.395-.177 1.598-.786 2.645-1.847 3.173-.538.269-.844.332-1.822.377-.647.03-1.467.002-1.823-.063zm50.941-.13c-.102-.102-.141-.916-.141-2.92 0-1.529-.023-2.802-.05-2.83-.028-.028-.28-.032-.56-.01l-.508.04-.588 1.135c-.703 1.359-1.64 2.368-2.614 2.814-.568.26-.758.29-1.506.233-.942-.071-1.247-.193-1.653-.657-.429-.49-.464-.886-.127-1.46.623-1.063 2.258-1.88 5.342-2.67.358-.092.547-.222.671-.462.096-.184.248-.363.34-.398.212-.081.43.134.43.425 0 .177.057.21.264.155a2.19 2.19 0 0 1 .419-.073c.108 0 .143-.15.117-.501l-.036-.5-2.763-.015-2.764-.015v-.395c0-.384.017-.397.588-.482.324-.048 1.585-.073 2.802-.055l2.214.033-.024-.535c-.013-.294-.017-.97-.01-1.5.02-1.233.155-1.344 1.179-.97.616.224.701.296.82.695.074.244.134.879.134 1.41v.964l1.74-.038c1.457-.031 1.794-.073 2.074-.256l.333-.22-.75-.359c-.62-.296-1.05-.667-2.448-2.105l-1.696-1.745-.773.769a13.956 13.956 0 0 1-3.029 2.295c-.895.512-2.413 1.172-2.697 1.172-.09 0-.39.103-.664.23-.647.299-2.917.75-3.06.607-.058-.058-.087-.203-.065-.321.031-.161.29-.28 1.029-.475 1.65-.433 2.89-1.16 5.008-2.932 1.61-1.347 2.95-2.723 3.515-3.606.522-.818.79-.873 1.117-.232.153.301.215.627.192 1.005-.023.361.022.617.128.722.09.09.163.202.163.25 0 .236.719.97 1.564 1.596 1.186.88 1.358.967 2.612 1.33 1.303.378 2.211.531 4.115.695l1.528.131v.344c0 .323-.057.365-.922.678-1.505.546-2.39.607-3.84.265l-.294-.07.339.355c.205.215.31.427.268.538-.061.159-.433.184-2.772.184-1.486 0-2.729.044-2.763.099-.033.054-.03.292.008.529.055.337.124.43.32.43.26 0 1.673.276 2.483.485.85.22 2.688.94 3.587 1.406 1.181.612 1.79 1.353 1.897 2.31.084.749.048.923-.217 1.025-.124.047-.53-.266-1.255-.967-1.008-.975-2.311-1.954-3.248-2.439-.627-.324-2.568-.88-3.076-.88-.346 0-.455.049-.468.206-.009.114-.03 1.201-.046 2.417-.034 2.475-.015 2.417-.946 2.962-.562.33-.76.361-.967.154zm-4.954-3.61c1.273-.881 2.298-1.776 2.033-1.776-.474 0-2.824.893-3.449 1.31-1.098.733-1.278 1.395-.38 1.395.374 0 .686-.162 1.796-.93zm-87.612 3.312c-.698-.242-1.002-.428-1.485-.91-.744-.745-.858-1.142-.534-1.874.457-1.032 1.88-2.063 3.6-2.607l.827-.262.034-.893.035-.894h-.514c-.43 0-.625.087-1.194.528-.824.64-1.462.843-2.076.659-.287-.086-.456-.218-.503-.394-.103-.384-.102-.389.235-.789.376-.447 1.09-.827 1.554-.827.272 0 .494-.16 1.059-.764.393-.42.771-.87.84-1 .113-.21.09-.235-.212-.235a.833.833 0 0 0-.555.24c-.12.131-.283.214-.363.183-.08-.031-.376.174-.658.456-.64.641-1.248.799-1.72.448-.581-.432-.432-1.364.285-1.787.218-.13.616-.3.885-.38.444-.134.519-.216.828-.905.474-1.057.723-2.685.698-4.569-.02-1.468-.007-1.558.228-1.684.367-.196.734.098 1.132.909.652 1.328.489 3.129-.458 5.067a147.33 147.33 0 0 0-.54 1.11c-.021.05.219.089.535.089.509 0 .621-.05.998-.441.234-.242.557-.706.719-1.029.162-.323.433-.855.602-1.182.21-.405.35-.94.442-1.682.104-.848.182-1.114.35-1.204.483-.258 1.156 1.024 1.156 2.205 0 1.11-1.271 3.15-3.269 5.248-.418.44-.73.828-.694.864.036.036.75.028 1.589-.019l1.523-.084.138-1.073c.143-1.114.405-1.75.748-1.817.178-.034.2.099.2 1.204 0 1.288.218 2.182.649 2.658.118.13.176.36.153.604-.036.377-.057.392-.506.377-.393-.013-.54-.096-.904-.506-.42-.473-.457-.49-1.06-.455l-.625.036-.035.87c-.02.48.008.915.061.967.053.053.466.13.917.173l.82.075.142-.378c.228-.61.436-.38.534.592.048.478.15 1.055.224 1.283.233.703.814 1.568 1.432 2.13.446.404.571.589.51.75-.072.185-.17.204-.736.137-.84-.098-1.491-.435-1.787-.921-.28-.463-.495-1.418-.495-2.207 0-.634.003-.631-.97-.764l-.558-.075-.015.389c-.008.214-.003.671.012 1.016.02.5-.05.78-.343 1.376-.59 1.198-1.984 2.32-2.83 2.28-.096-.005-.571-.146-1.054-.312zm2.32-.889c.22-.168.21-3.846-.011-3.846-.31 0-1.461.432-2.03.76-.316.184-.774.54-1.017.792-.354.367-.439.543-.432.893.005.24.044.524.088.632.141.347.715.703 1.287.8.74.127 1.931.109 2.115-.03zm71.103.942c-.603-.262-2.12-1.332-2.854-2.011a4.993 4.993 0 0 1-.673-.8l-.279-.435-.972.45c-1.723.8-3.815 1.395-4.393 1.25-.218-.055-.284-.15-.284-.407 0-.318.038-.342.735-.476 1.257-.24 3.185-1.053 3.872-1.63.405-.341.409-.497.044-1.712-.26-.867-.545-2.632-.893-5.54-.07-.58-.15-1.078-.177-1.106-.028-.029-.568.005-1.199.073-.955.104-1.21.096-1.52-.049-.485-.226-.79-.572-.704-.798.057-.148.122-.156.367-.044.234.107.588.09 1.648-.076l1.35-.211.032-2.895.031-2.894.47.038c.474.039 1.08.34 1.36.676.14.169.196 1.17.221 3.942l.007.775.559-.095c.307-.052 1.352-.212 2.322-.355 1.518-.223 1.828-.306 2.223-.592.252-.182.535-.332.629-.332.229 0 .97.753.97.985 0 .265-.444.514-1.059.595-1.065.14-4.657.655-5.087.728l-.443.076.059.542c.032.299.114 1.205.182 2.013.14 1.67.268 2.419.611 3.57l.24.805.284-.306c.156-.168.331-.306.39-.306.057 0 .502-.574.988-1.275.96-1.385 1.6-2.875 1.6-3.722 0-.48.157-.765.42-.765.077 0 .265.384.418.853.225.685.276 1.075.262 1.993-.023 1.398-.29 2.06-1.232 3.054-.683.72-2.302 2.096-2.467 2.096-.127 0 .27 1.023.73 1.882.191.356.61.924.93 1.264.539.57.625.617 1.122.617.69 0 .973-.156 1.18-.652.2-.479.218-1.968.038-3.13-.16-1.033-.06-1.193.548-.866.671.361 1.185 1.017 1.331 1.7.272 1.269.106 2.126-.553 2.857-.538.596-.92.76-1.964.842-.684.054-.921.021-1.42-.196zm-15.34-.014c-.59-.154-1.353-.58-1.668-.932-.298-.333-.373-.935-.217-1.76.381-2.03 1.383-3.761 3.391-5.863l.91-.951v-4.734l-1.711-.059c-1.811-.062-2.176-.168-2.469-.715-.266-.498.205-.82.503-.343.136.218.274.235 1.931.235h1.785l.04-2.048c.02-1.127.082-2.092.135-2.146.054-.053.488.11.965.362.612.324.9.55.973.764.058.167.08.9.049 1.627l-.056 1.323h.592c.384 0 .761-.09 1.074-.257.596-.318 1.012-.212 1.334.34.215.368.215.378-.023.616-.216.216-.386.242-1.595.242h-1.352V178.187l.265-.084c.145-.047.78-.112 1.41-.145 1.064-.056 1.147-.045 1.145.159 0 .152-.295.382-.957.748-.526.291-1.183.73-1.46.974l-.505.444-.037 2.73c-.042 3.092-.02 3-1.096 4.374-.438.56-.782.853-1.352 1.156-.933.495-1.312.569-2.005.388zm1.898-1.14.424-.106.075-.97c.042-.534.076-1.834.077-2.889v-1.918l-.544.39c-1.312.94-2.968 3.154-3.23 4.32-.111.496 0 .972.269 1.141.402.255 1.971.272 2.93.032zm-32.464-2.905c-.43-.236-.944-1.047-.944-1.487 0-.867.675-2.402 1.442-3.28.783-.895 1.078-1.146 1.313-1.112.454.065.337.429-.398 1.24-1.267 1.4-1.72 2.747-1.237 3.68.238.46.433.438 1.029-.112.711-.658 1.205-1.55 1.568-2.833.278-.981.318-1.338.328-2.938.01-1.594.036-1.826.206-1.859.655-.126 1.216 5.287.674 6.502-.522 1.169-1.717 2.291-2.442 2.294-.169.001-.493.03-.719.066a1.235 1.235 0 0 1-.82-.161zm20.458-2.858c-.515-.309-1.347-1.192-1.704-1.81-.225-.389-1.236-3.108-1.236-3.324 0-.035-.092.017-.206.116-.113.1-.39.274-.617.388-.226.113-.44.25-.473.302-.099.15-2.234.627-2.829.632-.915.006-1.949-.952-2.373-2.2-.34-1-.793-3.476-.793-4.338 0-.923.21-2.46.367-2.7.178-.271.457.213.457.792 0 .898.291 2.028 1.077 4.18.313.854 1.113 2.158 1.59 2.59.507.46 2.054.575 2.793.208.906-.45.885-.404.783-1.71-.05-.643-.051-1.215-.001-1.272.05-.057.223-.07.386-.029.249.063.307.163.368.632.15 1.149.33 1.763.824 2.793.823 1.72 2.092 2.863 3.968 3.575.932.354-.25 1.424-1.571 1.422-.22 0-.584-.111-.81-.247zm40.399-6.566c-.181-.2-.197-.38-.129-1.455.077-1.21.075-1.226-.193-1.298-.15-.04-1.126-.074-2.169-.074l-1.897-.002-.065-.324c-.113-.56.106-.617 2.353-.617h2.035v-.923c0-1.064.179-1.354.775-1.258l.783.123c.404.063.441.102.442.446.001.207.035.655.076.994l.074.618h2.68c1.514 0 2.817-.052 2.992-.119.3-.114.31-.147.286-.97-.043-1.414-.027-1.498.27-1.497.146.001.583.097.971.213l.706.21.034 1.023.034 1.022h1.77c1.592 0 1.8-.024 2.069-.235.408-.321.843-.29 1.285.091.5.43.588.772.282 1.079-.229.229-.377.241-2.829.241h-2.587v.696c0 .383-.03.776-.068.875-.11.288-1.57 1.188-1.707 1.052-.064-.065-.15-.681-.188-1.37l-.071-1.253-2.863-.017c-1.575-.01-2.93-.023-3.01-.03-.099-.008-.157.203-.174.635-.015.356-.055.765-.09.908-.059.244-1.37 1.444-1.577 1.444-.05 0-.186-.103-.3-.229zm-15.704-1.711c-.065-.17-.118-.366-.118-.433 0-.215-.69-1.426-1.182-2.076-.48-.632-.543-1.079-.155-1.079.355 0 1.5.634 1.941 1.075.43.43.454.493.454 1.19 0 1.2-.643 2.105-.94 1.323z" style="fill:#417d7b;stroke-width:.117593" transform="translate(-253.011 -168.98)"/><path d="M271.061 189.29c-1.422-.371-2.436-1.083-3.148-2.211-.664-1.051-.83-1.584-.901-2.9l-.066-1.214-.647.463c-1.04.743-1.83 1.094-2.52 1.118-.38.014-.693-.04-.813-.139-.263-.217-.247-.816.041-1.546.658-1.668.82-5.31.321-7.23-.314-1.213-.275-1.595.183-1.756.278-.097.37-.062.717.274.951.922 1.398 2.434 1.238 4.192-.053.58-.13 1.186-.172 1.347-.281 1.097-.83 2.537-1.222 3.207-.253.434-.411.819-.351.856.162.1 1.12-.456 2.268-1.317l1.015-.762v-8.921h-2.065c-1.29 0-2.162-.05-2.323-.132-.308-.157-.662-.574-.665-.784-.004-.24.347-.309.502-.097.121.165.456.197 2.317.22l2.176.028.014-1.145c.02-1.556.182-1.735 1.133-1.25 1.072.547 1.146.646 1.146 1.535v.801h1.688c1.608 0 1.71-.014 2.122-.294.526-.356.693-.364 1.197-.053.45.28.586.59.404.93-.123.231-.232.24-2.77.24h-2.641l.008 3.705c.005 2.037.038 3.704.075 3.704s.419-.285.849-.632l.782-.632.385-1.915c.403-2.011.665-2.707 1.177-3.138.344-.288.465-.315.714-.158.123.078.135.15.043.263-.24.3-.618 1.574-.738 2.487-.341 2.601-.04 3.997 1.367 6.335.434.722.59 1.383.36 1.53-.079.049-.345.09-.593.091-.393.002-.537-.085-1.127-.674-.86-.861-1.427-2.004-1.511-3.047-.033-.41-.087-.745-.119-.745s-.449.298-.925.663l-.865.663v6.392l.451.253c.648.364 2.444.571 3.34.385.756-.158 1.709-.737 1.946-1.183.202-.381.115-2.33-.136-3.026-.161-.445-.161-.516-.001-.676.255-.256.415-.225.984.187 1.066.772 1.38 1.4 1.244 2.487-.083.664-.586 1.829-.99 2.291-.127.145-.642.428-1.144.63-.746.298-1.122.374-2.04.41-.693.027-1.352-.015-1.714-.11zm25.988.045a67.416 67.416 0 0 0-1.587-.301c-1.258-.226-3.401-.88-4.189-1.28-.653-.33-1.593-1.425-2.058-2.396l-.355-.74.038-6.224c.033-5.496.06-6.245.224-6.41.16-.16.237-.164.53-.035.188.083.537.346.776.583l.435.432-.07 5.802c-.039 3.191-.03 6.171.018 6.622.08.732.135.866.518 1.247.355.353.69.509 1.957.909.841.265 2.063.567 2.715.671 1.084.174 1.253.174 1.99.003 1.12-.26 1.513-.535 1.904-1.333.434-.885.45-2.192.042-3.24-.296-.76-.214-1.252.207-1.252.326 0 1.627 1.418 1.962 2.138.34.732.362 1.152.108 2.132-.498 1.922-1.406 2.607-3.604 2.718-.6.03-1.302.01-1.56-.046zm50.83-.13c-.187-.11-.206-.379-.206-2.93 0-1.545-.04-2.831-.088-2.857-.049-.026-.307-.024-.573.004-.453.048-.504.092-.764.655-.471 1.016-1.328 2.232-1.903 2.702-.9.735-1.51.947-2.504.872-.936-.07-1.241-.192-1.647-.656-.432-.494-.464-.885-.118-1.475.61-1.041 2.282-1.874 5.333-2.655.358-.092.547-.222.671-.462.096-.184.248-.363.34-.398.212-.081.43.134.43.425 0 .177.057.21.264.155a2.19 2.19 0 0 1 .419-.073c.108 0 .143-.15.117-.501l-.036-.5-2.763-.015-2.764-.015v-.397c0-.387.013-.397.588-.467.324-.04 1.584-.066 2.802-.058l2.213.013-.024-.53a32.62 32.62 0 0 1-.009-1.496c.02-1.218.13-1.309 1.16-.957.642.22.719.282.84.684.073.244.132.878.132 1.408v.965l1.74-.038c1.468-.032 1.794-.072 2.08-.26l.339-.223-.756-.364c-.621-.299-1.064-.678-2.473-2.119l-1.717-1.755-.341.396c-1.182 1.373-3.469 2.934-5.222 3.564-.42.15-1.029.37-1.352.488-.869.315-3.154.773-3.272.656-.056-.056-.083-.195-.061-.309.03-.15.305-.277 1.006-.462 1.541-.408 2.904-1.183 4.738-2.694 1.888-1.556 3.517-3.257 4.069-4.249a.594.594 0 0 1 .376-.27c.358-.053.716.734.66 1.453-.038.481.01.614.424 1.175.483.654 1.937 1.842 2.761 2.257.448.225 2.287.738 3.293.919.258.046 1.184.144 2.057.217l1.588.133v.343c0 .321-.058.364-.923.677-1.505.546-2.39.607-3.84.265l-.294-.07.34.355c.205.215.31.427.267.538-.06.159-.433.183-2.771.183-1.643 0-2.73.046-2.773.116-.04.064-.038.294.003.513l.074.397 1.196.206c1.503.26 3.715.991 5.017 1.66 1.304.669 1.903 1.373 2.015 2.367.084.75.047.924-.217 1.026-.124.047-.531-.266-1.255-.967-1.007-.974-2.318-1.959-3.24-2.433-.67-.346-2.504-.881-3.023-.883-.46-.002-.49.019-.561.395-.041.219-.066 1.302-.055 2.408.014 1.434-.022 2.06-.124 2.183-.179.215-1.225.892-1.37.888a.935.935 0 0 1-.314-.124zm-5.018-3.626c1.246-.862 2.302-1.778 2.042-1.772-.229.005-2.054.576-2.568.803-1.678.742-2.453 1.899-1.271 1.899.374 0 .686-.162 1.796-.93zm-87.38 3.398c-1.212-.43-1.855-.91-2.25-1.677-.333-.649-.146-1.228.676-2.09.717-.75 1.555-1.243 2.867-1.684l.882-.296.034-.889.035-.889h-.508c-.42 0-.64.098-1.294.575-.434.315-.978.61-1.21.653-.564.106-1.188-.109-1.276-.439-.102-.38-.1-.385.236-.785.377-.448 1.09-.827 1.558-.827.283 0 .503-.169 1.18-.904.459-.497.833-.947.833-1 0-.196-.676-.087-.885.145-.12.131-.283.214-.363.183-.08-.03-.376.174-.658.456-.64.641-1.248.799-1.72.448-.36-.267-.454-.728-.25-1.22.097-.235.355-.444.85-.692.392-.196.785-.356.875-.356.268 0 .87-1.506 1.057-2.645.096-.582.182-1.8.193-2.705l.02-1.646.38-.037c.338-.033.417.022.719.498.5.789.648 1.45.575 2.57-.07 1.073-.26 1.717-.894 3.025a107 107 0 0 0-.467.97c-.022.048.229.088.556.088.532 0 .635-.044.98-.42.355-.39.784-1.122 1.388-2.372.133-.274.307-.988.387-1.587l.146-1.089h.35c.298 0 .388.08.626.561.163.329.303.865.338 1.295.05.639.012.836-.298 1.52-.427.941-1.75 2.757-2.879 3.949-.448.474-.786.891-.75.927.036.036.75.027 1.586-.02l1.52-.084.13-1.003c.142-1.101.433-1.833.751-1.891.186-.035.206.085.206 1.2 0 1.284.257 2.336.651 2.663.23.19.225.892-.006.98-.366.14-.893-.08-1.284-.535-.38-.443-.42-.46-1.025-.426l-.63.036-.034.87c-.02.48.012.919.07.976.057.058.47.136.917.173l.811.067.142-.378c.228-.611.436-.38.534.591.048.478.147 1.056.22 1.284.214.676.807 1.554 1.438 2.128.935.852.567 1.17-.864.746-1.086-.323-1.484-.99-1.614-2.707-.071-.943-.065-.936-.971-1.056-.588-.078-.59-.077-.597.26-.047 2.151-.152 2.51-1.02 3.47-1.026 1.136-1.872 1.433-2.97 1.042zm2.144-.988c.047-.07.087-.961.088-1.98.002-2.085.065-1.977-.962-1.639-.874.29-1.709.787-2.24 1.339-.355.367-.44.543-.433.893.005.24.044.524.088.632.144.353.762.738 1.308.814.83.116 2.055.082 2.15-.06zm-3.07-6.272c.146-.187.142-.19-.045-.044-.113.088-.205.181-.205.205 0 .097.096.035.25-.161zm74.12 7.218c-1.026-.435-3.573-2.475-3.582-2.867a.656.656 0 0 0-.1-.245c-.08-.125-.244-.085-.8.196-.865.437-2.804 1.118-3.723 1.31-.876.18-1.254.095-1.254-.286 0-.353.036-.375.957-.585 2.048-.465 3.984-1.49 3.98-2.106 0-.14-.112-.598-.246-1.018-.259-.808-.428-1.82-.815-4.874-.131-1.031-.264-1.901-.296-1.933-.032-.032-.573 0-1.202.07-.952.105-1.206.098-1.515-.045-.485-.225-.792-.572-.705-.798.057-.148.121-.156.371-.042.24.11.583.094 1.65-.074l1.348-.211v-2.86c0-1.677.047-2.889.112-2.929.219-.135 1.13.194 1.53.554.395.354.407.39.378 1.139-.017.425.004 1.438.046 2.252l.075 1.478.547-.094c.3-.051 1.34-.208 2.308-.347 1.463-.21 1.828-.303 2.147-.547.528-.403.94-.38 1.347.076.181.203.33.446.33.541 0 .299-.498.507-1.529.638-2.26.287-3.626.482-4.32.616l-.733.142.056.596c.031.328.114 1.257.184 2.066.15 1.718.249 2.294.592 3.425l.253.832.284-.306c.156-.168.331-.306.39-.306.057 0 .504-.576.991-1.28.924-1.332 1.413-2.435 1.647-3.716.188-1.032.43-1.007.787.081.395 1.207.375 2.86-.046 3.763-.402.862-1.849 2.336-3.217 3.276l-.25.172.31.768c.409 1.016.831 1.696 1.477 2.375.483.508.58.558 1.07.558.691 0 .975-.156 1.182-.652.202-.483.22-2.137.035-3.199-.167-.96-.053-1.123.557-.794 1.656.892 1.973 3.46.585 4.74-.413.381-.636.486-1.265.595-.996.174-1.215.157-1.928-.145zm-15.876-.179c-.736-.334-1.326-.91-1.414-1.38-.152-.811.51-3.097 1.217-4.2.54-.842 1.46-1.985 2.318-2.88l.827-.862v-4.743l-1.711-.059c-1.362-.047-1.775-.1-2.025-.265-.372-.244-.6-.629-.51-.861.093-.243.395-.205.541.068.118.22.247.235 1.937.235h1.811l.037-1.994c.025-1.33.083-2.04.176-2.132.106-.106.325-.036.94.302.442.242.842.5.89.574.047.074.086.808.087 1.633l.002 1.5h.602c.4 0 .754-.086 1.06-.258.567-.32.987-.21 1.308.34.215.368.215.378-.023.616-.216.216-.386.242-1.594.242h-1.353V178.187l.265-.08c.145-.045.78-.111 1.411-.148 1.068-.061 1.146-.05 1.145.156 0 .155-.262.358-.874.68-.48.252-1.142.693-1.469.979l-.595.52-.001 2.49c0 2.593-.072 3.122-.509 3.766-.805 1.186-1.218 1.601-2.001 2.009-.94.489-1.717.55-2.495.197zm2.436-.963.43-.111.078-1.322c.043-.726.061-2.031.04-2.899l-.036-1.578-.837.696a10.174 10.174 0 0 0-2.411 2.944c-.835 1.52-.704 2.24.439 2.408.634.094 1.635.033 2.297-.138zM282.9 184.92c-.468-.204-.789-.565-.968-1.09-.21-.617.137-1.949.748-2.868.723-1.09 1.604-1.996 1.896-1.954.454.065.337.43-.399 1.24-.396.437-.882 1.123-1.082 1.525-.314.635-.355.825-.31 1.444.033.457.123.784.25.912.187.187.222.187.58-.008.428-.232 1.186-1.19 1.506-1.904.55-1.224.74-2.284.751-4.173.009-1.571.036-1.827.199-1.858.647-.124 1.186 5.013.675 6.443-.346.97-1.213 1.924-2.02 2.223-.559.206-1.432.238-1.826.067zm20.323-2.892c-.46-.277-1.172-1.006-1.6-1.64-.157-.232-.517-1.093-.802-1.915-.285-.822-.562-1.488-.616-1.48-.142.024-1.145.612-1.218.715-.11.156-2.272.622-2.845.614-.667-.01-1.141-.304-1.757-1.091-.788-1.007-1.408-3.78-1.33-5.95.045-1.233.178-2.102.348-2.272.157-.156.413.388.413.876 0 1.356 1.007 4.484 1.834 5.694.708 1.036.977 1.283 1.535 1.413.955.221 1.689.138 2.358-.268l.624-.378-.067-.944c-.037-.52-.09-1.061-.119-1.203-.063-.314.106-.434.477-.341.24.06.29.163.355.746a8.02 8.02 0 0 0 2.17 4.593c.745.765 1.457 1.215 2.621 1.657.591.225.39.76-.43 1.141-.745.347-1.41.359-1.951.033zm40.399-6.565c-.181-.2-.197-.38-.129-1.455.077-1.21.075-1.226-.193-1.298-.15-.04-1.132-.074-2.183-.074l-1.91-.002v-.824h1.807c.995 0 1.974-.033 2.176-.073l.367-.074v-.919c0-.807.031-.94.253-1.096a.887.887 0 0 1 .558-.13l.747.117.441.07v.808c0 1.285-.266 1.18 2.997 1.18 2.231 0 2.883-.034 2.984-.156.077-.094.122-.591.11-1.233-.011-.591.019-1.114.066-1.161.047-.048.493.018.992.144l.906.23.034 1.03.034 1.028 1.025.014c1.982.026 2.53-.024 2.83-.261.394-.31.833-.274 1.27.103.5.43.588.772.282 1.079-.229.229-.377.241-2.829.241h-2.587l-.002.735c0 .404-.04.794-.088.867-.171.261-1.46 1.087-1.609 1.03-.167-.064-.297-.915-.299-1.956v-.676l-2.882-.017c-1.585-.01-2.947-.023-3.028-.03-.094-.007-.158.18-.177.518-.063 1.128-.12 1.25-.866 1.874-.392.327-.752.595-.801.595-.05 0-.182-.103-.296-.229zm-15.633-1.556c-.285-.974-.782-1.935-1.485-2.868-.366-.484-.382-.874-.037-.874.352 0 1.499.636 1.937 1.074.43.43.454.493.454 1.19 0 .463-.076.886-.206 1.145-.211.423-.582.61-.663.333z" style="fill:#31726f;stroke-width:.117593" transform="translate(-253.011 -168.98)"/><path d="M271.532 189.376c-.596-.09-1.738-.54-2.253-.887-.717-.484-1.309-1.217-1.789-2.215-.402-.836-.424-.946-.425-2.089-.002-1.366.052-1.33-.974-.635-1.095.742-1.622.966-2.316.984-.83.022-1.04-.148-.972-.782.028-.262.161-.768.295-1.124.133-.355.308-1.096.388-1.646.197-1.356.158-4.09-.073-5.057-.299-1.25-.319-1.394-.24-1.71.067-.266.129-.298.51-.266.36.03.503.13.85.59.639.847.845 1.51.912 2.926.045.936.01 1.449-.14 2.058-.345 1.413-.748 2.497-1.237 3.334-.26.447-.474.842-.474.88 0 .323 1.319-.409 2.676-1.486l.735-.584V172.765l-2.169-.037-2.168-.036-.36-.346c-.198-.19-.36-.416-.36-.503 0-.262.35-.316.523-.08.142.194.385.221 2.346.26l2.188.045v-1.242c0-1.12.023-1.255.234-1.368.298-.16 1.246.225 1.686.685.249.26.307.447.337 1.079l.036.764h1.656c1.616 0 1.669-.008 2.123-.323.565-.392.684-.398 1.175-.061.428.293.559.61.386.932-.107.2-.314.216-2.758.216h-2.641v3.705c0 2.037.032 3.704.072 3.704.116 0 1.138-.776 1.42-1.077.193-.207.348-.726.625-2.098.202-1.003.47-2.038.595-2.3.298-.627.835-1.14 1.09-1.043.249.096.246.149-.042.821-.642 1.497-.762 4.647-.235 6.138.143.405.54 1.202.884 1.772.344.57.643 1.216.665 1.437.035.343-.004.416-.266.509a1.28 1.28 0 0 1-.624.028c-.373-.093-1.217-.905-1.642-1.579-.4-.633-.778-1.785-.778-2.37 0-.26-.035-.473-.078-.473s-.466.292-.94.65l-.864.649.004 3.201c.004 3.193.005 3.202.271 3.396.401.29 1.078.449 2.254.526.919.06 1.15.035 1.764-.196.407-.154.891-.451 1.146-.705.44-.437.441-.44.441-1.427 0-.544-.08-1.293-.176-1.666-.224-.86-.224-.867.068-1.023.513-.275 1.92 1.042 2.05 1.92.162 1.073-.526 2.793-1.334 3.337-.857.577-2.879.969-4.077.79zm25.635-.058c-2.521-.39-5.161-1.127-6.051-1.689-.602-.38-1.43-1.38-1.872-2.263l-.367-.732.013-5.56c.008-3.057.048-5.903.089-6.323l.074-.765.396.02c.294.013.529.147.905.516l.508.499-.07 5.832c-.038 3.208-.03 6.193.017 6.633.077.713.132.841.498 1.176.52.476 2.513 1.163 4.38 1.512 1.174.219 1.436.233 2.103.11 1.692-.312 2.329-1.03 2.46-2.775.051-.69.01-.969-.253-1.73-.246-.714-.286-.96-.186-1.147.192-.36.39-.296 1.105.357.752.687 1.332 1.625 1.419 2.293.149 1.148-.561 2.895-1.416 3.484-.762.525-2.385.764-3.752.552zm50.712-.114c-.187-.109-.206-.381-.206-3.008v-2.889l-.559.083c-.307.046-.563.092-.57.102l-.513.959c-.618 1.157-.968 1.635-1.65 2.253-.976.883-1.844 1.127-3.086.87-.518-.108-.745-.229-1.023-.545-.497-.567-.555-.896-.246-1.396.627-1.015 1.886-1.746 4.06-2.359a230.8 230.8 0 0 0 1.68-.477c.084-.026.242-.208.353-.405.243-.431.651-.441.711-.017.031.22.092.262.294.207.14-.037.321-.069.402-.07.096 0 .147-.188.147-.538v-.537l-2.754.037-2.755.037-.055-.353c-.03-.194-.01-.4.045-.459s1.315-.111 2.802-.118l2.702-.01.007-1.408c.006-1.18.04-1.44.213-1.61.196-.193.24-.192.848.015.352.12.71.313.793.428.089.12.154.535.155.98 0 .424.034.973.075 1.22l.074.45 1.794-.038c1.574-.033 1.825-.065 2.044-.264l.25-.226-.738-.394c-.534-.284-1.217-.87-2.478-2.125-1.664-1.656-1.748-1.722-1.913-1.497-.831 1.132-3.176 2.82-4.93 3.548-1.593.662-3.378 1.186-4.386 1.29-.74.076-.75.073-.71-.201.034-.242.153-.304.91-.476.943-.213 2.473-.943 3.545-1.692 1.964-1.37 4.807-4.176 5.393-5.32.362-.707 1.014.086.97 1.178-.024.594.138.917.86 1.711.408.45 1.702 1.427 2.27 1.716 1.061.54 3.087.991 5.14 1.147 1.96.148 1.941.143 1.941.448 0 .334-.532.628-1.712.945-.802.215-1.168.253-1.904.196-.501-.038-1.043-.108-1.204-.155l-.293-.085.326.387c.569.676.43.713-2.636.713h-2.69v1.037l.853.134c1.93.302 3.556.81 5.448 1.704 1.127.532 1.856 1.366 2.033 2.33.262 1.418-.08 1.4-1.64-.083-1.576-1.497-2.881-2.32-4.413-2.78-1.295-.388-2.099-.445-2.21-.157-.039.103-.07 1.206-.07 2.452 0 2.536.06 2.35-.952 2.932-.612.352-.568.342-.842.183zm-5.08-3.545c1.246-.843 2.247-1.7 2.127-1.819-.034-.034-.623.104-1.31.306-1.297.383-2.558 1.065-2.995 1.621-.34.43-.144.742.465.742.376 0 .687-.154 1.713-.85zm-87.227 3.317c-1.911-.587-2.877-1.875-2.277-3.035.223-.431 1.18-1.315 1.851-1.708.3-.175.987-.467 1.527-.649l.983-.33.034-.9.035-.902h-.523c-.435 0-.638.087-1.216.522-1.24.931-2.398.974-2.483.09-.03-.307.042-.464.358-.78.363-.362 1.037-.653 1.52-.654.195 0 1.863-1.697 1.863-1.894 0-.205-.67-.104-.885.133-.12.132-.293.21-.386.175-.101-.039-.371.143-.674.455-.551.566-1.015.736-1.505.55-.457-.174-.619-.6-.447-1.175.12-.402.234-.51.861-.824.397-.198.812-.36.922-.36.316 0 .884-1.609 1.105-3.131.13-.89.165-1.628.113-2.309-.098-1.272-.02-1.616.37-1.616.376 0 .679.31.996 1.019.583 1.303.419 2.955-.48 4.829-.318.662-.578 1.23-.578 1.264 0 .034.283.06.627.06.584 0 .652-.03.978-.44.329-.413.842-1.283 1.35-2.287.121-.24.276-.848.345-1.352.201-1.483.195-1.467.556-1.425.494.057.891.953.9 2.029.006.709-.05.945-.372 1.595-.451.91-1.472 2.28-2.696 3.622-.49.536-.86 1.007-.823 1.045.038.037.772.021 1.63-.036l1.562-.104.08-.958c.05-.612.17-1.135.33-1.448.385-.755.53-.563.537.71.007 1.253.173 1.97.6 2.598.415.608.341.969-.207 1.015-.321.027-.515-.04-.794-.275-.203-.171-.37-.382-.37-.469 0-.23-.39-.318-.997-.227l-.531.08v1.942l.617.089c1.13.162 1.175.155 1.311-.204.074-.196.198-.318.304-.298.132.026.2.268.26.932.045.494.166 1.099.268 1.344.3.72.941 1.607 1.46 2.024.51.41.606.658.298.776-.295.113-.567.085-1.217-.125-1.103-.356-1.45-.952-1.634-2.817l-.08-.807-.623-.099c-.949-.15-.964-.134-.967 1.123-.003 1.271-.168 1.73-.934 2.592-.545.614-1.277 1.084-1.826 1.174-.194.032-.656-.036-1.026-.15zm2.116-2.863.033-1.983-.444.076c-.746.128-2.314.962-2.78 1.478-.351.388-.428.563-.428.975 0 1.09.716 1.493 2.587 1.457l1-.02zm-3.03-4.452c0-.07-.075-.058-.177.027-.097.08-.176.164-.176.187 0 .022.079.01.176-.027.097-.038.176-.122.176-.187zm74.083 7.277c-.779-.328-2.455-1.55-3.146-2.293-.275-.296-.5-.567-.502-.602a.713.713 0 0 0-.104-.225c-.083-.131-.255-.09-.91.22-2.695 1.279-4.958 1.709-4.842.92.031-.213.2-.297 1.037-.514 1.736-.45 2.774-.904 3.587-1.564.4-.325.4-.332-.002-1.781-.153-.55-.443-2.24-.646-3.758-.202-1.517-.39-2.793-.417-2.837-.053-.086-.81-.032-1.756.125-.656.11-.988-.008-1.462-.515-.341-.365-.264-.494.2-.333.239.084.593.072 1.21-.04.48-.088 1.072-.19 1.314-.228l.441-.069V169.693h.418c.482 0 .944.214 1.309.606.24.258.26.42.314 2.492.032 1.218.082 2.239.11 2.267.03.03.443-.024.92-.117.923-.181 1.406-.256 2.797-.432.63-.08.977-.192 1.256-.406.537-.409 1.01-.386 1.391.068.168.199.305.435.305.526 0 .26-.474.494-1.176.578-1.542.185-4.11.547-4.735.668l-.678.131.067.778c.306 3.559.39 4.168.73 5.247.101.323.205.664.23.757.045.173.056.165.956-.71 1.042-1.012 2.256-3.408 2.466-4.866.128-.89.371-.778.755.35.453 1.333.394 2.66-.167 3.784-.373.746-1.96 2.316-3.057 3.023-.189.122-.317.29-.285.374.501 1.305.874 1.984 1.479 2.695.732.861 1.043 1.028 1.71.92.936-.152 1.238-1.256.936-3.43-.226-1.623-.156-1.712.795-1.014.794.583 1.069 1.181 1.08 2.35.018 1.797-.742 2.59-2.694 2.812-.458.052-.73.007-1.234-.206zm-15.646-.07c-.382-.117-1.17-.616-1.425-.903-.467-.528-.374-1.654.277-3.358.541-1.417 1.29-2.473 3.295-4.647l.563-.61v-4.718h-3.409l-.47-.425c-.503-.454-.59-.713-.28-.832.121-.046.264.023.39.19.223.296.27.301 2.317.267l1.429-.023.041-1.993c.027-1.321.088-2.04.18-2.132.106-.106.318-.038.91.293.424.237.825.532.89.654.066.122.12.861.12 1.641v1.42h.592a2.49 2.49 0 0 0 1.072-.245c.586-.3.898-.232 1.243.266.242.351.247.393.07.59-.164.18-.393.211-1.585.211h-1.393l-.02.853c-.02.948.022 2.717.068 2.763.017.016.33-.026.696-.094.923-.17 2.02-.105 2.02.12 0 .095-.397.39-.882.658-.485.267-1.13.706-1.433.976l-.55.492-.038 2.678c-.036 2.628-.043 2.689-.347 3.274-.36.692-1.256 1.86-1.513 1.97a16.7 16.7 0 0 0-.818.425c-.657.358-1.346.44-2.01.238zm2.227-1.079c.318-.11.335-.155.407-1.08.092-1.185.1-4.786.011-4.786-.197 0-1.789 1.43-2.215 1.99-.658.864-1.301 1.958-1.48 2.515-.15.467-.08 1.195.126 1.322.443.274 2.406.299 3.151.04zm-32.264-2.827c-.459-.123-.982-.656-1.114-1.136-.125-.451-.003-1.28.29-1.984.48-1.15 1.923-2.895 2.342-2.835.4.058.358.428-.1.873-.573.555-1.304 1.56-1.53 2.1-.24.576-.241 1.69-.001 2.033.275.393.624.32 1.16-.242.636-.668 1.092-1.538 1.452-2.774.25-.855.301-1.302.33-2.837.017-1.003.036-1.863.041-1.911.005-.049.078-.088.164-.088.225 0 .51 1.03.734 2.646.38 2.76.008 4.429-1.216 5.44-.305.252-.627.5-.714.551-.257.15-1.48.26-1.839.164zm20.326-2.892c-.524-.296-.87-.604-1.354-1.206-.554-.69-.808-1.216-1.276-2.645a28.49 28.49 0 0 0-.43-1.256c-.043-.078-.996.4-1.334.67-.19.152-.91.352-2.107.585-.94.184-1.394.072-2.024-.497-.896-.81-1.318-1.93-1.695-4.5-.202-1.375-.178-2.469.08-3.675.182-.846.442-.726.527.244.158 1.812 1.056 4.596 1.865 5.788.89 1.308 1.251 1.516 2.648 1.52.508 0 .781-.076 1.274-.358l.626-.36-.084-1.302-.084-1.303.339.085c.187.047.348.095.36.106.01.01.079.454.152.986.235 1.72 1.09 3.378 2.324 4.505.632.578 2.07 1.407 2.44 1.407.262 0 .228.625-.048.875-.29.262-1.021.525-1.48.531-.195.003-.519-.087-.72-.2zm40.24-6.606c-.179-.198-.194-.375-.12-1.424.069-.962.053-1.217-.078-1.3-.09-.057-1.075-.104-2.191-.105l-2.029-.002v-.823l1.911-.002c1.051-.001 2.028-.033 2.171-.072.237-.063.263-.153.294-1.013.042-1.177.153-1.278 1.235-1.119l.73.108.034.96.034.96h5.997l.017-1.21c.009-.667.05-1.246.09-1.287.041-.041.484.031.984.16l.909.236.033 1.005.034 1.005.83.077c1.206.112 2.68-.03 3.06-.296.44-.308.735-.273 1.212.147.464.406.534.785.201 1.086-.186.169-.557.195-2.763.195h-2.549v.755c0 .733-.013.767-.46 1.147-.646.55-1.113.803-1.285.696-.095-.058-.172-.535-.218-1.344l-.071-1.254-2.775-.002c-1.527-.001-2.895-.034-3.04-.073-.254-.068-.265-.04-.269.678-.002.412-.071.87-.154 1.018-.142.257-1.35 1.318-1.498 1.318-.04 0-.163-.101-.276-.226zm-15.642-1.567a8.72 8.72 0 0 1-.121-.493c-.091-.41-.83-1.702-1.343-2.345-.415-.521-.43-.578-.192-.774.319-.265 1.87.583 2.323 1.269.277.42.266 1.353-.023 1.99-.219.482-.548.663-.644.353z" style="fill:#00514d;stroke-width:.117593" transform="translate(-253.011 -168.98)"/></svg>