<svg viewBox="0 0 223 416" fill="none" xmlns="http://www.w3.org/2000/svg">
<mask id="path-1-inside-1_303_1970" fill="white">
<path d="M222.873 33.6753C222.677 33.0785 222.275 32.286 221.482 31.699C220.688 31.1022 219.502 30.7108 218.513 30.5152C217.523 30.3195 216.73 30.3195 216.132 29.527C215.534 28.7345 215.142 27.1496 214.349 25.7701C213.555 24.3808 212.369 23.197 210.978 22.6002C209.597 22.0034 208.009 22.0034 206.618 21.8077C205.237 21.6121 204.041 21.2109 202.856 20.8196C202.64 20.7511 202.425 20.6728 202.209 20.6043C201.788 20.4576 201.366 20.3206 200.955 20.1739C200.886 20.1445 200.818 20.1249 200.749 20.0956C200.308 19.9391 199.877 19.7825 199.485 19.626C198.496 19.2346 197.702 18.8335 196.516 18.6378C195.331 18.4422 193.744 18.4422 192.352 18.2465C190.971 18.0508 189.776 17.6497 188.982 17.0627C188.796 16.9257 188.639 16.7789 188.492 16.6224C188.492 16.6224 188.472 16.6028 188.463 16.593C188.306 16.4365 188.169 16.2702 188.012 16.0843C187.875 15.9278 187.728 15.7517 187.581 15.5756C187.551 15.5364 187.512 15.4973 187.483 15.4581C187.316 15.2723 187.14 15.0864 186.934 14.8907C186.915 14.8711 186.905 14.8516 186.875 14.832C186.817 14.7831 186.768 14.7244 186.709 14.6755C185.621 13.6873 183.838 12.5035 182.643 10.1261C176.695 8.94225 176.695 8.34545 176.303 7.06379C175.912 5.78214 175.118 3.79606 174.128 2.41657C173.139 1.02729 171.953 0.244601 170.366 0.0391452C168.779 -0.156527 166.799 0.234818 164.624 1.42842C162.449 2.61224 160.068 4.58853 157.883 6.17348C155.708 7.75843 153.719 8.94225 152.534 10.3315C151.348 11.7208 150.947 13.296 150.555 14.4896C150.153 15.6734 149.761 16.4659 149.369 17.0627C148.977 17.6595 148.575 18.0508 147.194 18.8433C145.803 19.6358 143.432 20.8196 141.452 21.6121C141.217 21.7099 140.992 21.7882 140.766 21.8762C140.698 21.9056 140.62 21.9251 140.551 21.9545C140.404 22.0132 140.247 22.0621 140.1 22.111C140.012 22.1404 139.924 22.1697 139.836 22.1991C139.699 22.2382 139.571 22.2871 139.434 22.3263C139.336 22.3556 139.238 22.385 139.14 22.4143C139.013 22.4534 138.885 22.4926 138.748 22.5317C138.65 22.5611 138.542 22.5904 138.435 22.6198C138.297 22.6589 138.17 22.6882 138.033 22.7274C137.925 22.7567 137.817 22.7861 137.7 22.8154C137.563 22.8448 137.425 22.8839 137.278 22.9133C137.161 22.9426 137.043 22.972 136.916 23.0013C136.779 23.0307 136.632 23.0698 136.495 23.0992C136.367 23.1285 136.25 23.1579 136.112 23.1872C135.799 23.2557 135.466 23.334 135.113 23.4025C132.34 23.9993 128.372 24.7917 126.197 25.5744C124.022 26.3669 123.62 27.1594 121.641 28.7345C119.662 30.3195 116.095 32.6871 113.92 34.0764C111.745 35.4657 110.951 35.857 109.756 36.6495C108.571 37.442 106.983 38.6258 105.396 40.2107C105.034 40.5727 104.671 40.9641 104.299 41.3652C104.171 41.5022 104.054 41.6489 103.926 41.7859C103.681 42.0696 103.437 42.3533 103.192 42.6469C103.054 42.8132 102.917 42.9795 102.78 43.1458C102.535 43.4491 102.29 43.7524 102.055 44.0655C101.928 44.222 101.81 44.3786 101.683 44.5449C101.624 44.6231 101.555 44.7014 101.497 44.7797C101.212 45.1613 100.918 45.5526 100.634 45.9439C99.0471 48.1159 97.4598 50.4933 95.6766 52.4696C95.4219 52.7533 95.1573 53.0371 94.8928 53.3012C94.7752 53.4186 94.6576 53.536 94.5498 53.6534C94.3539 53.8589 94.1579 54.0644 93.962 54.26C93.7856 54.4459 93.6092 54.622 93.4329 54.8079C93.3349 54.9057 93.2467 55.0036 93.1487 55.1014C92.9626 55.2971 92.7862 55.4928 92.6098 55.6982C92.5609 55.7569 92.5021 55.8058 92.4629 55.8645C92.4531 55.8743 92.4433 55.8939 92.4335 55.9037C92.3845 55.9624 92.3453 56.0113 92.2963 56.07C92.1689 56.2265 92.0416 56.3929 91.9142 56.5494C91.8554 56.6277 91.8064 56.6962 91.7476 56.7744C91.6399 56.931 91.5321 57.0973 91.4243 57.2538C91.3753 57.3223 91.3361 57.3908 91.2871 57.4691C91.15 57.7039 91.0226 57.9387 90.905 58.193C89.9154 60.365 89.9154 63.1436 89.7195 65.3155C89.5235 67.4875 89.1218 69.0724 88.9258 70.4617C88.8573 70.9509 88.8083 71.4009 88.7593 71.8314C88.7299 72.0956 88.7005 72.3402 88.6613 72.575C88.6417 72.7315 88.6123 72.8881 88.5829 73.0348C88.5731 73.0935 88.5535 73.162 88.5437 73.2207C88.4849 73.4359 88.4262 73.6512 88.3282 73.8273C87.9363 74.6198 87.1426 75.0111 86.153 76.4004C85.1635 77.7897 83.9779 80.1573 82.7826 81.5466C81.597 82.9359 80.4017 83.3272 79.2161 83.5229C78.0306 83.7185 76.8353 83.7185 75.8457 84.3153C74.8561 84.9121 74.0624 86.096 72.4752 87.8766C70.8879 89.6572 68.5168 92.0346 67.3215 94.4023C63.7551 101.525 61.3742 105.683 59.0031 109.733C58.7288 110.203 58.4544 110.663 58.1899 111.122C57.9547 111.524 57.7196 111.925 57.4844 112.316C57.3864 112.492 57.2787 112.668 57.1807 112.835C56.9749 113.187 56.7692 113.529 56.5732 113.872C56.485 114.018 56.3969 114.165 56.3087 114.312C56.1225 114.625 55.9461 114.928 55.7698 115.241C55.6718 115.408 55.5836 115.564 55.4857 115.731C55.3191 116.014 55.1721 116.288 55.0154 116.552C54.9174 116.719 54.8194 116.885 54.7312 117.051C54.5842 117.316 54.4373 117.57 54.3001 117.824C54.2119 117.981 54.1237 118.137 54.0356 118.294C53.8886 118.558 53.7514 118.812 53.6241 119.057C53.5555 119.184 53.4771 119.321 53.4183 119.448C53.2223 119.82 53.0362 120.172 52.8696 120.505C51.4783 123.274 51.0864 124.859 50.2928 127.031C49.4991 129.203 48.3136 131.971 46.9223 134.153C46.5794 134.691 46.2266 135.19 45.8641 135.689C45.8543 135.709 45.8347 135.719 45.8249 135.738C45.4624 136.217 45.0999 136.697 44.7276 137.186C43.9535 138.204 43.1599 139.29 42.3663 140.679C40.779 143.448 39.2016 147.41 38.0062 149.973C36.8207 152.546 36.027 153.73 35.0374 155.119C34.0479 156.509 32.8623 158.084 31.667 159.669C30.4814 161.254 29.2861 162.829 27.9046 165.011C26.5133 167.183 24.9358 169.961 23.8385 173.121C22.7509 176.291 22.1532 179.852 18.5868 183.404C18.479 183.541 18.3712 183.668 18.2733 183.795C18.1851 183.903 18.1165 184.001 18.0283 184.099C17.8813 184.294 17.7246 184.48 17.5776 184.666C17.4502 184.823 17.3327 184.979 17.2151 185.136C17.0779 185.312 16.9407 185.488 16.8134 185.664C16.6958 185.811 16.588 185.957 16.4704 186.104C16.3431 186.271 16.2157 186.427 16.0981 186.593C15.9904 186.74 15.8826 186.877 15.7748 187.024C15.6572 187.171 15.5494 187.327 15.4417 187.474C15.3339 187.611 15.2359 187.748 15.1379 187.885C15.04 188.022 14.9322 188.169 14.8342 188.306C14.7362 188.443 14.6382 188.579 14.5403 188.716C14.4521 188.844 14.3541 188.971 14.2659 189.098C14.1777 189.235 14.0896 189.362 13.9916 189.489C13.9132 189.607 13.825 189.734 13.7466 189.851C13.6585 189.979 13.5801 190.106 13.4919 190.233C13.4135 190.35 13.3351 190.458 13.2665 190.566C13.1882 190.693 13.1098 190.81 13.0216 190.937C12.953 191.045 12.8844 191.143 12.8158 191.25C12.7375 191.378 12.6591 191.495 12.5807 191.622C12.5219 191.72 12.4631 191.818 12.4043 191.916C12.3259 192.043 12.2574 192.16 12.179 192.287C12.13 192.376 12.0712 192.464 12.0222 192.552C11.9438 192.679 11.8752 192.806 11.7969 192.933C11.7479 193.011 11.6989 193.1 11.6597 193.178C11.5911 193.305 11.5127 193.432 11.4441 193.55C11.3951 193.628 11.3559 193.706 11.307 193.784C11.2384 193.902 11.1698 194.029 11.111 194.146C11.0718 194.225 11.0228 194.303 10.9836 194.381C10.9052 194.528 10.8171 194.684 10.7387 194.831C10.7093 194.88 10.6897 194.929 10.6603 194.978C10.5525 195.183 10.4447 195.379 10.3468 195.585C8.66153 198.852 7.07427 202.414 6.08468 205.574C5.0951 208.744 4.69338 211.512 4.49743 214.076C4.30147 216.649 4.30147 219.016 4.49743 221.002C4.54641 221.541 4.615 222.04 4.69338 222.529C4.69338 222.548 4.69338 222.568 4.69338 222.587C4.71298 222.715 4.73257 222.822 4.75217 222.949C4.84035 223.487 4.92853 224.006 5.01671 224.505C5.11469 225.063 5.21267 225.611 5.28126 226.158C5.47721 227.743 5.47721 229.328 5.47721 231.5C5.47721 233.672 5.47721 236.451 5.28126 238.818C5.0853 241.196 4.68359 243.172 4.29167 245.745C4.23288 246.146 4.1643 246.567 4.10551 246.998C4.10551 247.017 4.10551 247.037 4.10551 247.056C4.10551 247.115 4.08591 247.174 4.07612 247.232C3.99773 247.77 3.91935 248.309 3.84097 248.886C3.76258 249.414 3.6842 249.962 3.60582 250.52C3.58622 250.637 3.57642 250.754 3.55683 250.872C3.46865 251.449 3.38047 252.036 3.28249 252.633C3.26289 252.741 3.25309 252.848 3.2335 252.946C3.13552 253.572 3.02774 254.208 2.91017 254.854C2.3125 258.219 1.51887 261.781 0.930993 263.953C0.333322 266.125 -0.0585938 266.917 -0.0585938 267.514C-0.0585938 268.111 0.333322 268.502 0.735035 268.893C1.13675 269.285 1.52866 269.686 1.72462 271.466C1.92058 273.247 1.92058 276.407 2.32229 278.393C2.37128 278.628 2.42027 278.843 2.47906 279.049C2.49866 279.117 2.51825 279.176 2.54765 279.244C2.59663 279.381 2.63583 279.509 2.69461 279.636C2.72401 279.704 2.7632 279.773 2.79259 279.841C2.84158 279.959 2.90037 280.066 2.96895 280.184C3.00815 280.252 3.05714 280.33 3.09633 280.399C3.13552 280.458 3.16491 280.516 3.19431 280.565C3.2237 280.604 3.26289 280.653 3.29228 280.692C3.37067 280.81 3.46865 280.927 3.55683 281.045C3.62541 281.133 3.694 281.221 3.77238 281.309C3.88016 281.436 3.99773 281.573 4.12511 281.71C4.20349 281.798 4.28187 281.886 4.37985 281.984C4.52682 282.14 4.69338 282.307 4.85015 282.473C4.93833 282.571 5.02651 282.659 5.12449 282.757C5.38903 283.021 5.68297 283.314 5.9965 283.637C8.47537 286.113 12.6297 290.261 17.3914 296.199C19.6254 300.661 21.6241 304.662 23.2702 307.852C23.3388 307.989 23.4074 308.116 23.4759 308.253C23.5641 308.429 23.6621 308.605 23.7503 308.771C23.8777 309.016 24.005 309.251 24.1226 309.486C24.152 309.535 24.1814 309.593 24.201 309.642C24.7987 310.777 25.3375 311.785 25.8078 312.626C25.9842 312.939 26.1508 313.223 26.3075 313.497C26.3369 313.546 26.3663 313.595 26.3957 313.644C26.5427 313.898 26.6896 314.133 26.817 314.358C26.8464 314.397 26.866 314.436 26.8954 314.475C27.0326 314.69 27.1599 314.896 27.2775 315.082C27.2775 315.082 27.2775 315.092 27.2775 315.101C27.4049 315.297 27.5127 315.463 27.6302 315.63C27.6498 315.659 27.6694 315.688 27.689 315.718C27.7968 315.874 27.8948 316.021 27.9928 316.148C28.0026 316.168 28.0222 316.187 28.032 316.207C28.1299 316.344 28.2181 316.471 28.3063 316.589C28.4043 316.716 28.4925 316.833 28.5806 316.951C28.5904 316.96 28.6002 316.98 28.61 316.99C28.6982 317.097 28.7766 317.215 28.8648 317.312C29.0019 317.498 29.1391 317.675 29.2763 317.851C30.0699 318.937 30.8635 320.326 31.2555 321.314C31.6474 322.302 31.6474 322.899 31.5494 323.192C31.4514 323.486 31.2555 323.486 30.6578 323.682C30.0601 323.877 29.0705 324.278 28.7766 325.071C28.4827 325.863 28.8746 327.047 30.0601 328.828C31.2457 330.608 33.2346 332.986 34.6161 334.561C36.0074 336.146 36.7913 336.939 37.5849 337.731C38.3785 338.523 39.1722 339.316 39.809 339.952C40.4557 340.598 40.9456 341.087 41.1415 341.488C41.3375 341.879 41.2395 342.182 41.0925 342.329C40.9456 342.476 40.7496 342.476 40.152 342.134C39.5543 341.791 38.5647 341.097 38.0748 340.852C37.5751 340.607 37.5751 340.803 37.5751 341.048C37.5751 341.292 37.5751 341.595 38.1728 342.085C38.7704 342.584 39.956 343.268 40.9456 343.621C41.1807 343.699 41.3963 343.758 41.6118 343.807C41.7 343.826 41.7686 343.836 41.847 343.855C41.9744 343.885 42.1017 343.904 42.2193 343.924C42.3369 343.944 42.4545 343.963 42.5622 343.973C42.6798 343.992 42.7778 344.002 42.8856 344.022C43.0423 344.041 43.1893 344.071 43.3167 344.1C43.9143 344.247 44.3063 344.55 45.0999 345.088C45.8935 345.636 47.0791 346.429 48.4704 347.211C48.6761 347.329 48.8917 347.446 49.0974 347.564C49.1758 347.612 49.264 347.652 49.3424 347.701C49.4991 347.779 49.6461 347.867 49.7931 347.945C49.9792 348.043 50.1654 348.141 50.3418 348.239C50.4985 348.327 50.6553 348.405 50.8121 348.483C50.9982 348.581 51.1746 348.669 51.3607 348.767C51.4979 348.835 51.6449 348.914 51.7723 348.982C52.0662 349.129 52.3503 349.276 52.6149 349.403C53.8004 350 54.594 350.391 55.1917 350.391C55.7894 350.391 56.1813 350 56.583 349.403C56.9749 348.806 57.3766 348.014 57.7686 347.818C58.1605 347.622 58.5622 348.014 58.9541 348.61C59.346 349.207 59.7477 349.99 60.1396 350.587C60.5316 351.183 60.9333 351.575 61.5309 351.976C62.1286 352.367 62.9222 352.768 63.9118 353.258C64.9014 353.757 66.087 354.344 67.2823 355.537C73.2296 361.476 77.9816 365.624 80.7544 367.904C83.5272 370.183 84.3208 370.575 84.7128 370.966C85.1047 371.357 85.1047 371.758 85.9963 373.441C86.8879 375.124 88.6711 378.088 93.4231 385.211C94.6086 387.588 94.6086 388.175 94.4127 389.066C94.2167 389.956 93.815 391.14 93.4231 392.529C93.0312 393.918 92.6294 395.494 92.4335 396.482C92.2375 397.47 92.2375 397.871 92.6294 398.654C93.0214 399.436 93.815 400.63 95.1083 402.215C96.4016 403.8 98.1751 405.776 99.2724 407.655C100.36 409.533 100.762 411.314 101.35 412.204C101.947 413.094 102.731 413.094 103.133 412.595C103.525 412.096 103.525 411.108 103.632 410.022C103.73 408.936 103.926 407.743 104.23 407.156C104.524 406.559 104.926 406.559 105.416 406.862C105.915 407.156 106.503 407.752 108.884 410.13C112.451 411.314 112.451 412.507 112.549 413.495C112.647 414.484 112.842 415.276 113.244 415.667C113.646 416.059 114.234 416.059 114.528 415.863C114.822 415.667 114.822 415.266 115.027 414.082C115.223 412.899 115.625 410.913 115.625 409.337C115.625 407.762 115.233 406.569 115.331 404.494C115.429 402.42 116.027 399.446 116.027 397.078C116.027 395.895 117.81 394.114 118.702 393.028C119.593 391.942 119.593 391.541 119.201 391.15C118.809 390.758 118.016 390.357 117.418 389.565C116.82 388.772 116.429 387.588 116.527 384.624C116.566 383.509 116.673 382.149 116.722 380.573C116.722 380.436 116.722 380.29 116.722 380.163C116.732 379.761 116.742 379.36 116.752 378.93C116.752 378.695 116.752 378.441 116.752 378.206C116.752 377.854 116.752 377.511 116.732 377.149C116.732 376.865 116.693 376.562 116.683 376.269C116.664 375.926 116.654 375.594 116.624 375.232C116.595 374.909 116.556 374.566 116.517 374.234C116.478 373.891 116.448 373.549 116.399 373.187C116.35 372.835 116.282 372.473 116.223 372.111C116.164 371.758 116.115 371.416 116.046 371.054L116.624 356.154C117.222 354.373 118.408 353.189 119.397 351.408C120.387 349.628 121.181 347.25 121.376 345.47C121.572 343.689 121.181 342.505 121.572 340.529C121.964 338.553 123.16 335.784 123.748 333.602C124.345 331.43 124.345 329.845 125.335 327.664C126.324 325.492 128.304 322.723 132.272 317.968C136.23 313.223 142.177 306.492 145.342 302.735C148.517 298.978 148.909 298.186 148.909 297.393C148.909 296.601 148.517 295.808 148.311 294.82C148.115 293.832 148.115 292.648 148.909 292.051C149.702 291.454 151.289 291.454 152.475 291.454C153.661 291.454 154.454 291.454 155.052 291.063C155.649 290.662 156.041 289.879 157.825 286.709C159.608 283.539 162.773 278.002 165.555 273.658C168.328 269.304 170.709 266.144 171.502 263.962C172.296 261.79 171.502 260.597 171.111 259.413C170.719 258.229 170.719 257.036 170.513 255.656C170.317 254.267 169.915 252.692 170.121 251.498C170.317 250.314 171.111 249.522 172.502 245.96C173.893 242.399 175.872 236.069 176.862 232.312C177.852 228.555 177.852 227.362 177.656 226.178C177.46 224.994 177.058 223.801 177.058 223.008C177.058 222.832 177.087 222.675 177.117 222.529C177.126 222.48 177.146 222.441 177.156 222.402C177.185 222.304 177.224 222.206 177.273 222.118C177.293 222.079 177.313 222.04 177.332 222C177.391 221.903 177.46 221.795 177.528 221.697C177.538 221.678 177.558 221.658 177.567 221.638C177.656 221.511 177.754 221.384 177.842 221.247C178.234 220.65 178.635 219.858 178.831 219.075C179.027 218.283 179.027 217.49 178.43 216.208C177.832 214.927 176.646 213.146 176.646 211.953C176.646 209.575 177.832 208.988 178.43 208.098C179.027 207.208 179.027 206.024 179.615 202.267C180.213 198.51 181.398 192.18 182.192 186.838C182.986 181.496 183.378 177.142 183.779 173.982C184.171 170.822 184.573 168.836 184.965 166.664C185.357 164.492 185.758 162.115 186.552 159.943C187.346 157.771 188.531 155.785 189.129 154.601C189.727 153.417 189.727 153.016 189.521 152.224C189.325 151.431 188.923 150.247 188.727 149.054C188.531 147.87 188.531 146.676 188.727 145.492C188.923 144.309 189.325 143.115 189.913 141.54C190.51 139.955 191.304 137.979 191.696 136.795C192.088 135.611 192.088 135.21 191.696 134.222C191.304 133.233 190.51 131.649 190.305 130.856C190.109 130.064 190.501 130.064 192.48 128.684C194.459 127.295 198.025 124.526 199.809 122.951C201.592 121.366 201.592 120.975 201.396 119.986C201.2 118.998 200.798 117.413 200.798 116.23C200.798 116.063 200.808 115.897 200.828 115.74C200.828 115.691 200.837 115.633 200.847 115.584C200.857 115.476 200.877 115.378 200.896 115.281C200.906 115.222 200.916 115.173 200.935 115.114C200.965 114.987 200.994 114.87 201.033 114.742C201.043 114.703 201.053 114.674 201.063 114.635C201.112 114.478 201.17 114.322 201.239 114.155C201.259 114.097 201.288 114.028 201.317 113.97C201.366 113.852 201.415 113.725 201.474 113.608C201.572 113.373 201.68 113.128 201.798 112.864C202.395 111.475 203.179 109.498 204.374 107.522C205.56 105.546 207.147 103.57 207.941 101.789C208.734 100.008 208.734 98.4233 209.126 97.2395C209.528 96.0557 210.312 95.2632 210.714 93.8739C211.106 92.4847 211.106 90.5084 211.703 88.7278C212.301 86.9471 213.486 85.3622 214.084 84.374C214.682 83.3859 214.682 82.9848 214.476 82.7891C214.28 82.5934 213.878 82.5934 212.693 81.3998C211.507 80.216 209.518 77.8386 208.333 76.4493C207.147 75.0698 206.745 74.6687 206.55 74.2773C206.354 73.886 206.354 73.4849 206.158 72.301C205.962 71.1172 205.56 69.1409 205.364 67.1549C205.168 65.1786 205.168 63.2023 204.962 62.0087C204.766 60.8248 204.365 60.4237 204.57 59.4356C204.766 58.4474 205.56 56.8625 206.158 55.483C206.755 54.0937 207.147 52.9099 207.745 51.3249C208.343 49.74 209.126 47.7637 210.518 45.5917C211.909 43.4198 213.888 41.0423 215.27 39.4574C215.573 39.1052 215.848 38.8019 216.102 38.5182C216.132 38.4888 216.171 38.4497 216.2 38.4105C216.279 38.3323 216.347 38.2638 216.416 38.1855C216.475 38.117 216.543 38.0486 216.602 37.9899C216.661 37.9311 216.71 37.8822 216.769 37.8333C216.837 37.7648 216.906 37.6963 216.974 37.6279C217.023 37.5887 217.063 37.5496 217.102 37.5105C217.17 37.442 217.239 37.3833 217.308 37.3246C217.347 37.2854 217.386 37.2561 217.425 37.2267C217.455 37.1974 217.484 37.1778 217.523 37.1485L218.209 36.6984C218.209 36.6984 218.229 36.6886 218.238 36.6788C219.032 36.2875 219.826 36.2875 220.619 36.082C221.413 35.8864 222.207 35.4852 222.598 35.0939C222.99 34.7025 222.99 34.3014 222.794 33.7046L222.873 33.6753Z"/>
</mask>
<path d="M222.873 33.6753C222.677 33.0785 222.275 32.286 221.482 31.699C220.688 31.1022 219.502 30.7108 218.513 30.5152C217.523 30.3195 216.73 30.3195 216.132 29.527C215.534 28.7345 215.142 27.1496 214.349 25.7701C213.555 24.3808 212.369 23.197 210.978 22.6002C209.597 22.0034 208.009 22.0034 206.618 21.8077C205.237 21.6121 204.041 21.2109 202.856 20.8196C202.64 20.7511 202.425 20.6728 202.209 20.6043C201.788 20.4576 201.366 20.3206 200.955 20.1739C200.886 20.1445 200.818 20.1249 200.749 20.0956C200.308 19.9391 199.877 19.7825 199.485 19.626C198.496 19.2346 197.702 18.8335 196.516 18.6378C195.331 18.4422 193.744 18.4422 192.352 18.2465C190.971 18.0508 189.776 17.6497 188.982 17.0627C188.796 16.9257 188.639 16.7789 188.492 16.6224C188.492 16.6224 188.472 16.6028 188.463 16.593C188.306 16.4365 188.169 16.2702 188.012 16.0843C187.875 15.9278 187.728 15.7517 187.581 15.5756C187.551 15.5364 187.512 15.4973 187.483 15.4581C187.316 15.2723 187.14 15.0864 186.934 14.8907C186.915 14.8711 186.905 14.8516 186.875 14.832C186.817 14.7831 186.768 14.7244 186.709 14.6755C185.621 13.6873 183.838 12.5035 182.643 10.1261C176.695 8.94225 176.695 8.34545 176.303 7.06379C175.912 5.78214 175.118 3.79606 174.128 2.41657C173.139 1.02729 171.953 0.244601 170.366 0.0391452C168.779 -0.156527 166.799 0.234818 164.624 1.42842C162.449 2.61224 160.068 4.58853 157.883 6.17348C155.708 7.75843 153.719 8.94225 152.534 10.3315C151.348 11.7208 150.947 13.296 150.555 14.4896C150.153 15.6734 149.761 16.4659 149.369 17.0627C148.977 17.6595 148.575 18.0508 147.194 18.8433C145.803 19.6358 143.432 20.8196 141.452 21.6121C141.217 21.7099 140.992 21.7882 140.766 21.8762C140.698 21.9056 140.62 21.9251 140.551 21.9545C140.404 22.0132 140.247 22.0621 140.1 22.111C140.012 22.1404 139.924 22.1697 139.836 22.1991C139.699 22.2382 139.571 22.2871 139.434 22.3263C139.336 22.3556 139.238 22.385 139.14 22.4143C139.013 22.4534 138.885 22.4926 138.748 22.5317C138.65 22.5611 138.542 22.5904 138.435 22.6198C138.297 22.6589 138.17 22.6882 138.033 22.7274C137.925 22.7567 137.817 22.7861 137.7 22.8154C137.563 22.8448 137.425 22.8839 137.278 22.9133C137.161 22.9426 137.043 22.972 136.916 23.0013C136.779 23.0307 136.632 23.0698 136.495 23.0992C136.367 23.1285 136.25 23.1579 136.112 23.1872C135.799 23.2557 135.466 23.334 135.113 23.4025C132.34 23.9993 128.372 24.7917 126.197 25.5744C124.022 26.3669 123.62 27.1594 121.641 28.7345C119.662 30.3195 116.095 32.6871 113.92 34.0764C111.745 35.4657 110.951 35.857 109.756 36.6495C108.571 37.442 106.983 38.6258 105.396 40.2107C105.034 40.5727 104.671 40.9641 104.299 41.3652C104.171 41.5022 104.054 41.6489 103.926 41.7859C103.681 42.0696 103.437 42.3533 103.192 42.6469C103.054 42.8132 102.917 42.9795 102.78 43.1458C102.535 43.4491 102.29 43.7524 102.055 44.0655C101.928 44.222 101.81 44.3786 101.683 44.5449C101.624 44.6231 101.555 44.7014 101.497 44.7797C101.212 45.1613 100.918 45.5526 100.634 45.9439C99.0471 48.1159 97.4598 50.4933 95.6766 52.4696C95.4219 52.7533 95.1573 53.0371 94.8928 53.3012C94.7752 53.4186 94.6576 53.536 94.5498 53.6534C94.3539 53.8589 94.1579 54.0644 93.962 54.26C93.7856 54.4459 93.6092 54.622 93.4329 54.8079C93.3349 54.9057 93.2467 55.0036 93.1487 55.1014C92.9626 55.2971 92.7862 55.4928 92.6098 55.6982C92.5609 55.7569 92.5021 55.8058 92.4629 55.8645C92.4531 55.8743 92.4433 55.8939 92.4335 55.9037C92.3845 55.9624 92.3453 56.0113 92.2963 56.07C92.1689 56.2265 92.0416 56.3929 91.9142 56.5494C91.8554 56.6277 91.8064 56.6962 91.7476 56.7744C91.6399 56.931 91.5321 57.0973 91.4243 57.2538C91.3753 57.3223 91.3361 57.3908 91.2871 57.4691C91.15 57.7039 91.0226 57.9387 90.905 58.193C89.9154 60.365 89.9154 63.1436 89.7195 65.3155C89.5235 67.4875 89.1218 69.0724 88.9258 70.4617C88.8573 70.9509 88.8083 71.4009 88.7593 71.8314C88.7299 72.0956 88.7005 72.3402 88.6613 72.575C88.6417 72.7315 88.6123 72.8881 88.5829 73.0348C88.5731 73.0935 88.5535 73.162 88.5437 73.2207C88.4849 73.4359 88.4262 73.6512 88.3282 73.8273C87.9363 74.6198 87.1426 75.0111 86.153 76.4004C85.1635 77.7897 83.9779 80.1573 82.7826 81.5466C81.597 82.9359 80.4017 83.3272 79.2161 83.5229C78.0306 83.7185 76.8353 83.7185 75.8457 84.3153C74.8561 84.9121 74.0624 86.096 72.4752 87.8766C70.8879 89.6572 68.5168 92.0346 67.3215 94.4023C63.7551 101.525 61.3742 105.683 59.0031 109.733C58.7288 110.203 58.4544 110.663 58.1899 111.122C57.9547 111.524 57.7196 111.925 57.4844 112.316C57.3864 112.492 57.2787 112.668 57.1807 112.835C56.9749 113.187 56.7692 113.529 56.5732 113.872C56.485 114.018 56.3969 114.165 56.3087 114.312C56.1225 114.625 55.9461 114.928 55.7698 115.241C55.6718 115.408 55.5836 115.564 55.4857 115.731C55.3191 116.014 55.1721 116.288 55.0154 116.552C54.9174 116.719 54.8194 116.885 54.7312 117.051C54.5842 117.316 54.4373 117.57 54.3001 117.824C54.2119 117.981 54.1237 118.137 54.0356 118.294C53.8886 118.558 53.7514 118.812 53.6241 119.057C53.5555 119.184 53.4771 119.321 53.4183 119.448C53.2223 119.82 53.0362 120.172 52.8696 120.505C51.4783 123.274 51.0864 124.859 50.2928 127.031C49.4991 129.203 48.3136 131.971 46.9223 134.153C46.5794 134.691 46.2266 135.19 45.8641 135.689C45.8543 135.709 45.8347 135.719 45.8249 135.738C45.4624 136.217 45.0999 136.697 44.7276 137.186C43.9535 138.204 43.1599 139.29 42.3663 140.679C40.779 143.448 39.2016 147.41 38.0062 149.973C36.8207 152.546 36.027 153.73 35.0374 155.119C34.0479 156.509 32.8623 158.084 31.667 159.669C30.4814 161.254 29.2861 162.829 27.9046 165.011C26.5133 167.183 24.9358 169.961 23.8385 173.121C22.7509 176.291 22.1532 179.852 18.5868 183.404C18.479 183.541 18.3712 183.668 18.2733 183.795C18.1851 183.903 18.1165 184.001 18.0283 184.099C17.8813 184.294 17.7246 184.48 17.5776 184.666C17.4502 184.823 17.3327 184.979 17.2151 185.136C17.0779 185.312 16.9407 185.488 16.8134 185.664C16.6958 185.811 16.588 185.957 16.4704 186.104C16.3431 186.271 16.2157 186.427 16.0981 186.593C15.9904 186.74 15.8826 186.877 15.7748 187.024C15.6572 187.171 15.5494 187.327 15.4417 187.474C15.3339 187.611 15.2359 187.748 15.1379 187.885C15.04 188.022 14.9322 188.169 14.8342 188.306C14.7362 188.443 14.6382 188.579 14.5403 188.716C14.4521 188.844 14.3541 188.971 14.2659 189.098C14.1777 189.235 14.0896 189.362 13.9916 189.489C13.9132 189.607 13.825 189.734 13.7466 189.851C13.6585 189.979 13.5801 190.106 13.4919 190.233C13.4135 190.35 13.3351 190.458 13.2665 190.566C13.1882 190.693 13.1098 190.81 13.0216 190.937C12.953 191.045 12.8844 191.143 12.8158 191.25C12.7375 191.378 12.6591 191.495 12.5807 191.622C12.5219 191.72 12.4631 191.818 12.4043 191.916C12.3259 192.043 12.2574 192.16 12.179 192.287C12.13 192.376 12.0712 192.464 12.0222 192.552C11.9438 192.679 11.8752 192.806 11.7969 192.933C11.7479 193.011 11.6989 193.1 11.6597 193.178C11.5911 193.305 11.5127 193.432 11.4441 193.55C11.3951 193.628 11.3559 193.706 11.307 193.784C11.2384 193.902 11.1698 194.029 11.111 194.146C11.0718 194.225 11.0228 194.303 10.9836 194.381C10.9052 194.528 10.8171 194.684 10.7387 194.831C10.7093 194.88 10.6897 194.929 10.6603 194.978C10.5525 195.183 10.4447 195.379 10.3468 195.585C8.66153 198.852 7.07427 202.414 6.08468 205.574C5.0951 208.744 4.69338 211.512 4.49743 214.076C4.30147 216.649 4.30147 219.016 4.49743 221.002C4.54641 221.541 4.615 222.04 4.69338 222.529C4.69338 222.548 4.69338 222.568 4.69338 222.587C4.71298 222.715 4.73257 222.822 4.75217 222.949C4.84035 223.487 4.92853 224.006 5.01671 224.505C5.11469 225.063 5.21267 225.611 5.28126 226.158C5.47721 227.743 5.47721 229.328 5.47721 231.5C5.47721 233.672 5.47721 236.451 5.28126 238.818C5.0853 241.196 4.68359 243.172 4.29167 245.745C4.23288 246.146 4.1643 246.567 4.10551 246.998C4.10551 247.017 4.10551 247.037 4.10551 247.056C4.10551 247.115 4.08591 247.174 4.07612 247.232C3.99773 247.77 3.91935 248.309 3.84097 248.886C3.76258 249.414 3.6842 249.962 3.60582 250.52C3.58622 250.637 3.57642 250.754 3.55683 250.872C3.46865 251.449 3.38047 252.036 3.28249 252.633C3.26289 252.741 3.25309 252.848 3.2335 252.946C3.13552 253.572 3.02774 254.208 2.91017 254.854C2.3125 258.219 1.51887 261.781 0.930993 263.953C0.333322 266.125 -0.0585938 266.917 -0.0585938 267.514C-0.0585938 268.111 0.333322 268.502 0.735035 268.893C1.13675 269.285 1.52866 269.686 1.72462 271.466C1.92058 273.247 1.92058 276.407 2.32229 278.393C2.37128 278.628 2.42027 278.843 2.47906 279.049C2.49866 279.117 2.51825 279.176 2.54765 279.244C2.59663 279.381 2.63583 279.509 2.69461 279.636C2.72401 279.704 2.7632 279.773 2.79259 279.841C2.84158 279.959 2.90037 280.066 2.96895 280.184C3.00815 280.252 3.05714 280.33 3.09633 280.399C3.13552 280.458 3.16491 280.516 3.19431 280.565C3.2237 280.604 3.26289 280.653 3.29228 280.692C3.37067 280.81 3.46865 280.927 3.55683 281.045C3.62541 281.133 3.694 281.221 3.77238 281.309C3.88016 281.436 3.99773 281.573 4.12511 281.71C4.20349 281.798 4.28187 281.886 4.37985 281.984C4.52682 282.14 4.69338 282.307 4.85015 282.473C4.93833 282.571 5.02651 282.659 5.12449 282.757C5.38903 283.021 5.68297 283.314 5.9965 283.637C8.47537 286.113 12.6297 290.261 17.3914 296.199C19.6254 300.661 21.6241 304.662 23.2702 307.852C23.3388 307.989 23.4074 308.116 23.4759 308.253C23.5641 308.429 23.6621 308.605 23.7503 308.771C23.8777 309.016 24.005 309.251 24.1226 309.486C24.152 309.535 24.1814 309.593 24.201 309.642C24.7987 310.777 25.3375 311.785 25.8078 312.626C25.9842 312.939 26.1508 313.223 26.3075 313.497C26.3369 313.546 26.3663 313.595 26.3957 313.644C26.5427 313.898 26.6896 314.133 26.817 314.358C26.8464 314.397 26.866 314.436 26.8954 314.475C27.0326 314.69 27.1599 314.896 27.2775 315.082C27.2775 315.082 27.2775 315.092 27.2775 315.101C27.4049 315.297 27.5127 315.463 27.6302 315.63C27.6498 315.659 27.6694 315.688 27.689 315.718C27.7968 315.874 27.8948 316.021 27.9928 316.148C28.0026 316.168 28.0222 316.187 28.032 316.207C28.1299 316.344 28.2181 316.471 28.3063 316.589C28.4043 316.716 28.4925 316.833 28.5806 316.951C28.5904 316.96 28.6002 316.98 28.61 316.99C28.6982 317.097 28.7766 317.215 28.8648 317.312C29.0019 317.498 29.1391 317.675 29.2763 317.851C30.0699 318.937 30.8635 320.326 31.2555 321.314C31.6474 322.302 31.6474 322.899 31.5494 323.192C31.4514 323.486 31.2555 323.486 30.6578 323.682C30.0601 323.877 29.0705 324.278 28.7766 325.071C28.4827 325.863 28.8746 327.047 30.0601 328.828C31.2457 330.608 33.2346 332.986 34.6161 334.561C36.0074 336.146 36.7913 336.939 37.5849 337.731C38.3785 338.523 39.1722 339.316 39.809 339.952C40.4557 340.598 40.9456 341.087 41.1415 341.488C41.3375 341.879 41.2395 342.182 41.0925 342.329C40.9456 342.476 40.7496 342.476 40.152 342.134C39.5543 341.791 38.5647 341.097 38.0748 340.852C37.5751 340.607 37.5751 340.803 37.5751 341.048C37.5751 341.292 37.5751 341.595 38.1728 342.085C38.7704 342.584 39.956 343.268 40.9456 343.621C41.1807 343.699 41.3963 343.758 41.6118 343.807C41.7 343.826 41.7686 343.836 41.847 343.855C41.9744 343.885 42.1017 343.904 42.2193 343.924C42.3369 343.944 42.4545 343.963 42.5622 343.973C42.6798 343.992 42.7778 344.002 42.8856 344.022C43.0423 344.041 43.1893 344.071 43.3167 344.1C43.9143 344.247 44.3063 344.55 45.0999 345.088C45.8935 345.636 47.0791 346.429 48.4704 347.211C48.6761 347.329 48.8917 347.446 49.0974 347.564C49.1758 347.612 49.264 347.652 49.3424 347.701C49.4991 347.779 49.6461 347.867 49.7931 347.945C49.9792 348.043 50.1654 348.141 50.3418 348.239C50.4985 348.327 50.6553 348.405 50.8121 348.483C50.9982 348.581 51.1746 348.669 51.3607 348.767C51.4979 348.835 51.6449 348.914 51.7723 348.982C52.0662 349.129 52.3503 349.276 52.6149 349.403C53.8004 350 54.594 350.391 55.1917 350.391C55.7894 350.391 56.1813 350 56.583 349.403C56.9749 348.806 57.3766 348.014 57.7686 347.818C58.1605 347.622 58.5622 348.014 58.9541 348.61C59.346 349.207 59.7477 349.99 60.1396 350.587C60.5316 351.183 60.9333 351.575 61.5309 351.976C62.1286 352.367 62.9222 352.768 63.9118 353.258C64.9014 353.757 66.087 354.344 67.2823 355.537C73.2296 361.476 77.9816 365.624 80.7544 367.904C83.5272 370.183 84.3208 370.575 84.7128 370.966C85.1047 371.357 85.1047 371.758 85.9963 373.441C86.8879 375.124 88.6711 378.088 93.4231 385.211C94.6086 387.588 94.6086 388.175 94.4127 389.066C94.2167 389.956 93.815 391.14 93.4231 392.529C93.0312 393.918 92.6294 395.494 92.4335 396.482C92.2375 397.47 92.2375 397.871 92.6294 398.654C93.0214 399.436 93.815 400.63 95.1083 402.215C96.4016 403.8 98.1751 405.776 99.2724 407.655C100.36 409.533 100.762 411.314 101.35 412.204C101.947 413.094 102.731 413.094 103.133 412.595C103.525 412.096 103.525 411.108 103.632 410.022C103.73 408.936 103.926 407.743 104.23 407.156C104.524 406.559 104.926 406.559 105.416 406.862C105.915 407.156 106.503 407.752 108.884 410.13C112.451 411.314 112.451 412.507 112.549 413.495C112.647 414.484 112.842 415.276 113.244 415.667C113.646 416.059 114.234 416.059 114.528 415.863C114.822 415.667 114.822 415.266 115.027 414.082C115.223 412.899 115.625 410.913 115.625 409.337C115.625 407.762 115.233 406.569 115.331 404.494C115.429 402.42 116.027 399.446 116.027 397.078C116.027 395.895 117.81 394.114 118.702 393.028C119.593 391.942 119.593 391.541 119.201 391.15C118.809 390.758 118.016 390.357 117.418 389.565C116.82 388.772 116.429 387.588 116.527 384.624C116.566 383.509 116.673 382.149 116.722 380.573C116.722 380.436 116.722 380.29 116.722 380.163C116.732 379.761 116.742 379.36 116.752 378.93C116.752 378.695 116.752 378.441 116.752 378.206C116.752 377.854 116.752 377.511 116.732 377.149C116.732 376.865 116.693 376.562 116.683 376.269C116.664 375.926 116.654 375.594 116.624 375.232C116.595 374.909 116.556 374.566 116.517 374.234C116.478 373.891 116.448 373.549 116.399 373.187C116.35 372.835 116.282 372.473 116.223 372.111C116.164 371.758 116.115 371.416 116.046 371.054L116.624 356.154C117.222 354.373 118.408 353.189 119.397 351.408C120.387 349.628 121.181 347.25 121.376 345.47C121.572 343.689 121.181 342.505 121.572 340.529C121.964 338.553 123.16 335.784 123.748 333.602C124.345 331.43 124.345 329.845 125.335 327.664C126.324 325.492 128.304 322.723 132.272 317.968C136.23 313.223 142.177 306.492 145.342 302.735C148.517 298.978 148.909 298.186 148.909 297.393C148.909 296.601 148.517 295.808 148.311 294.82C148.115 293.832 148.115 292.648 148.909 292.051C149.702 291.454 151.289 291.454 152.475 291.454C153.661 291.454 154.454 291.454 155.052 291.063C155.649 290.662 156.041 289.879 157.825 286.709C159.608 283.539 162.773 278.002 165.555 273.658C168.328 269.304 170.709 266.144 171.502 263.962C172.296 261.79 171.502 260.597 171.111 259.413C170.719 258.229 170.719 257.036 170.513 255.656C170.317 254.267 169.915 252.692 170.121 251.498C170.317 250.314 171.111 249.522 172.502 245.96C173.893 242.399 175.872 236.069 176.862 232.312C177.852 228.555 177.852 227.362 177.656 226.178C177.46 224.994 177.058 223.801 177.058 223.008C177.058 222.832 177.087 222.675 177.117 222.529C177.126 222.48 177.146 222.441 177.156 222.402C177.185 222.304 177.224 222.206 177.273 222.118C177.293 222.079 177.313 222.04 177.332 222C177.391 221.903 177.46 221.795 177.528 221.697C177.538 221.678 177.558 221.658 177.567 221.638C177.656 221.511 177.754 221.384 177.842 221.247C178.234 220.65 178.635 219.858 178.831 219.075C179.027 218.283 179.027 217.49 178.43 216.208C177.832 214.927 176.646 213.146 176.646 211.953C176.646 209.575 177.832 208.988 178.43 208.098C179.027 207.208 179.027 206.024 179.615 202.267C180.213 198.51 181.398 192.18 182.192 186.838C182.986 181.496 183.378 177.142 183.779 173.982C184.171 170.822 184.573 168.836 184.965 166.664C185.357 164.492 185.758 162.115 186.552 159.943C187.346 157.771 188.531 155.785 189.129 154.601C189.727 153.417 189.727 153.016 189.521 152.224C189.325 151.431 188.923 150.247 188.727 149.054C188.531 147.87 188.531 146.676 188.727 145.492C188.923 144.309 189.325 143.115 189.913 141.54C190.51 139.955 191.304 137.979 191.696 136.795C192.088 135.611 192.088 135.21 191.696 134.222C191.304 133.233 190.51 131.649 190.305 130.856C190.109 130.064 190.501 130.064 192.48 128.684C194.459 127.295 198.025 124.526 199.809 122.951C201.592 121.366 201.592 120.975 201.396 119.986C201.2 118.998 200.798 117.413 200.798 116.23C200.798 116.063 200.808 115.897 200.828 115.74C200.828 115.691 200.837 115.633 200.847 115.584C200.857 115.476 200.877 115.378 200.896 115.281C200.906 115.222 200.916 115.173 200.935 115.114C200.965 114.987 200.994 114.87 201.033 114.742C201.043 114.703 201.053 114.674 201.063 114.635C201.112 114.478 201.17 114.322 201.239 114.155C201.259 114.097 201.288 114.028 201.317 113.97C201.366 113.852 201.415 113.725 201.474 113.608C201.572 113.373 201.68 113.128 201.798 112.864C202.395 111.475 203.179 109.498 204.374 107.522C205.56 105.546 207.147 103.57 207.941 101.789C208.734 100.008 208.734 98.4233 209.126 97.2395C209.528 96.0557 210.312 95.2632 210.714 93.8739C211.106 92.4847 211.106 90.5084 211.703 88.7278C212.301 86.9471 213.486 85.3622 214.084 84.374C214.682 83.3859 214.682 82.9848 214.476 82.7891C214.28 82.5934 213.878 82.5934 212.693 81.3998C211.507 80.216 209.518 77.8386 208.333 76.4493C207.147 75.0698 206.745 74.6687 206.55 74.2773C206.354 73.886 206.354 73.4849 206.158 72.301C205.962 71.1172 205.56 69.1409 205.364 67.1549C205.168 65.1786 205.168 63.2023 204.962 62.0087C204.766 60.8248 204.365 60.4237 204.57 59.4356C204.766 58.4474 205.56 56.8625 206.158 55.483C206.755 54.0937 207.147 52.9099 207.745 51.3249C208.343 49.74 209.126 47.7637 210.518 45.5917C211.909 43.4198 213.888 41.0423 215.27 39.4574C215.573 39.1052 215.848 38.8019 216.102 38.5182C216.132 38.4888 216.171 38.4497 216.2 38.4105C216.279 38.3323 216.347 38.2638 216.416 38.1855C216.475 38.117 216.543 38.0486 216.602 37.9899C216.661 37.9311 216.71 37.8822 216.769 37.8333C216.837 37.7648 216.906 37.6963 216.974 37.6279C217.023 37.5887 217.063 37.5496 217.102 37.5105C217.17 37.442 217.239 37.3833 217.308 37.3246C217.347 37.2854 217.386 37.2561 217.425 37.2267C217.455 37.1974 217.484 37.1778 217.523 37.1485L218.209 36.6984C218.209 36.6984 218.229 36.6886 218.238 36.6788C219.032 36.2875 219.826 36.2875 220.619 36.082C221.413 35.8864 222.207 35.4852 222.598 35.0939C222.99 34.7025 222.99 34.3014 222.794 33.7046L222.873 33.6753Z" fill="#FEFCF4"/>
<path d="M222.873 33.6753C222.677 33.0785 222.275 32.286 221.482 31.699C220.688 31.1022 219.502 30.7108 218.513 30.5152C217.523 30.3195 216.73 30.3195 216.132 29.527C215.534 28.7345 215.142 27.1496 214.349 25.7701C213.555 24.3808 212.369 23.197 210.978 22.6002C209.597 22.0034 208.009 22.0034 206.618 21.8077C205.237 21.6121 204.041 21.2109 202.856 20.8196C202.64 20.7511 202.425 20.6728 202.209 20.6043C201.788 20.4576 201.366 20.3206 200.955 20.1739C200.886 20.1445 200.818 20.1249 200.749 20.0956C200.308 19.9391 199.877 19.7825 199.485 19.626C198.496 19.2346 197.702 18.8335 196.516 18.6378C195.331 18.4422 193.744 18.4422 192.352 18.2465C190.971 18.0508 189.776 17.6497 188.982 17.0627C188.796 16.9257 188.639 16.7789 188.492 16.6224C188.492 16.6224 188.472 16.6028 188.463 16.593C188.306 16.4365 188.169 16.2702 188.012 16.0843C187.875 15.9278 187.728 15.7517 187.581 15.5756C187.551 15.5364 187.512 15.4973 187.483 15.4581C187.316 15.2723 187.14 15.0864 186.934 14.8907C186.915 14.8711 186.905 14.8516 186.875 14.832C186.817 14.7831 186.768 14.7244 186.709 14.6755C185.621 13.6873 183.838 12.5035 182.643 10.1261C176.695 8.94225 176.695 8.34545 176.303 7.06379C175.912 5.78214 175.118 3.79606 174.128 2.41657C173.139 1.02729 171.953 0.244601 170.366 0.0391452C168.779 -0.156527 166.799 0.234818 164.624 1.42842C162.449 2.61224 160.068 4.58853 157.883 6.17348C155.708 7.75843 153.719 8.94225 152.534 10.3315C151.348 11.7208 150.947 13.296 150.555 14.4896C150.153 15.6734 149.761 16.4659 149.369 17.0627C148.977 17.6595 148.575 18.0508 147.194 18.8433C145.803 19.6358 143.432 20.8196 141.452 21.6121C141.217 21.7099 140.992 21.7882 140.766 21.8762C140.698 21.9056 140.62 21.9251 140.551 21.9545C140.404 22.0132 140.247 22.0621 140.1 22.111C140.012 22.1404 139.924 22.1697 139.836 22.1991C139.699 22.2382 139.571 22.2871 139.434 22.3263C139.336 22.3556 139.238 22.385 139.14 22.4143C139.013 22.4534 138.885 22.4926 138.748 22.5317C138.65 22.5611 138.542 22.5904 138.435 22.6198C138.297 22.6589 138.17 22.6882 138.033 22.7274C137.925 22.7567 137.817 22.7861 137.7 22.8154C137.563 22.8448 137.425 22.8839 137.278 22.9133C137.161 22.9426 137.043 22.972 136.916 23.0013C136.779 23.0307 136.632 23.0698 136.495 23.0992C136.367 23.1285 136.25 23.1579 136.112 23.1872C135.799 23.2557 135.466 23.334 135.113 23.4025C132.34 23.9993 128.372 24.7917 126.197 25.5744C124.022 26.3669 123.62 27.1594 121.641 28.7345C119.662 30.3195 116.095 32.6871 113.92 34.0764C111.745 35.4657 110.951 35.857 109.756 36.6495C108.571 37.442 106.983 38.6258 105.396 40.2107C105.034 40.5727 104.671 40.9641 104.299 41.3652C104.171 41.5022 104.054 41.6489 103.926 41.7859C103.681 42.0696 103.437 42.3533 103.192 42.6469C103.054 42.8132 102.917 42.9795 102.78 43.1458C102.535 43.4491 102.29 43.7524 102.055 44.0655C101.928 44.222 101.81 44.3786 101.683 44.5449C101.624 44.6231 101.555 44.7014 101.497 44.7797C101.212 45.1613 100.918 45.5526 100.634 45.9439C99.0471 48.1159 97.4598 50.4933 95.6766 52.4696C95.4219 52.7533 95.1573 53.0371 94.8928 53.3012C94.7752 53.4186 94.6576 53.536 94.5498 53.6534C94.3539 53.8589 94.1579 54.0644 93.962 54.26C93.7856 54.4459 93.6092 54.622 93.4329 54.8079C93.3349 54.9057 93.2467 55.0036 93.1487 55.1014C92.9626 55.2971 92.7862 55.4928 92.6098 55.6982C92.5609 55.7569 92.5021 55.8058 92.4629 55.8645C92.4531 55.8743 92.4433 55.8939 92.4335 55.9037C92.3845 55.9624 92.3453 56.0113 92.2963 56.07C92.1689 56.2265 92.0416 56.3929 91.9142 56.5494C91.8554 56.6277 91.8064 56.6962 91.7476 56.7744C91.6399 56.931 91.5321 57.0973 91.4243 57.2538C91.3753 57.3223 91.3361 57.3908 91.2871 57.4691C91.15 57.7039 91.0226 57.9387 90.905 58.193C89.9154 60.365 89.9154 63.1436 89.7195 65.3155C89.5235 67.4875 89.1218 69.0724 88.9258 70.4617C88.8573 70.9509 88.8083 71.4009 88.7593 71.8314C88.7299 72.0956 88.7005 72.3402 88.6613 72.575C88.6417 72.7315 88.6123 72.8881 88.5829 73.0348C88.5731 73.0935 88.5535 73.162 88.5437 73.2207C88.4849 73.4359 88.4262 73.6512 88.3282 73.8273C87.9363 74.6198 87.1426 75.0111 86.153 76.4004C85.1635 77.7897 83.9779 80.1573 82.7826 81.5466C81.597 82.9359 80.4017 83.3272 79.2161 83.5229C78.0306 83.7185 76.8353 83.7185 75.8457 84.3153C74.8561 84.9121 74.0624 86.096 72.4752 87.8766C70.8879 89.6572 68.5168 92.0346 67.3215 94.4023C63.7551 101.525 61.3742 105.683 59.0031 109.733C58.7288 110.203 58.4544 110.663 58.1899 111.122C57.9547 111.524 57.7196 111.925 57.4844 112.316C57.3864 112.492 57.2787 112.668 57.1807 112.835C56.9749 113.187 56.7692 113.529 56.5732 113.872C56.485 114.018 56.3969 114.165 56.3087 114.312C56.1225 114.625 55.9461 114.928 55.7698 115.241C55.6718 115.408 55.5836 115.564 55.4857 115.731C55.3191 116.014 55.1721 116.288 55.0154 116.552C54.9174 116.719 54.8194 116.885 54.7312 117.051C54.5842 117.316 54.4373 117.57 54.3001 117.824C54.2119 117.981 54.1237 118.137 54.0356 118.294C53.8886 118.558 53.7514 118.812 53.6241 119.057C53.5555 119.184 53.4771 119.321 53.4183 119.448C53.2223 119.82 53.0362 120.172 52.8696 120.505C51.4783 123.274 51.0864 124.859 50.2928 127.031C49.4991 129.203 48.3136 131.971 46.9223 134.153C46.5794 134.691 46.2266 135.19 45.8641 135.689C45.8543 135.709 45.8347 135.719 45.8249 135.738C45.4624 136.217 45.0999 136.697 44.7276 137.186C43.9535 138.204 43.1599 139.29 42.3663 140.679C40.779 143.448 39.2016 147.41 38.0062 149.973C36.8207 152.546 36.027 153.73 35.0374 155.119C34.0479 156.509 32.8623 158.084 31.667 159.669C30.4814 161.254 29.2861 162.829 27.9046 165.011C26.5133 167.183 24.9358 169.961 23.8385 173.121C22.7509 176.291 22.1532 179.852 18.5868 183.404C18.479 183.541 18.3712 183.668 18.2733 183.795C18.1851 183.903 18.1165 184.001 18.0283 184.099C17.8813 184.294 17.7246 184.48 17.5776 184.666C17.4502 184.823 17.3327 184.979 17.2151 185.136C17.0779 185.312 16.9407 185.488 16.8134 185.664C16.6958 185.811 16.588 185.957 16.4704 186.104C16.3431 186.271 16.2157 186.427 16.0981 186.593C15.9904 186.74 15.8826 186.877 15.7748 187.024C15.6572 187.171 15.5494 187.327 15.4417 187.474C15.3339 187.611 15.2359 187.748 15.1379 187.885C15.04 188.022 14.9322 188.169 14.8342 188.306C14.7362 188.443 14.6382 188.579 14.5403 188.716C14.4521 188.844 14.3541 188.971 14.2659 189.098C14.1777 189.235 14.0896 189.362 13.9916 189.489C13.9132 189.607 13.825 189.734 13.7466 189.851C13.6585 189.979 13.5801 190.106 13.4919 190.233C13.4135 190.35 13.3351 190.458 13.2665 190.566C13.1882 190.693 13.1098 190.81 13.0216 190.937C12.953 191.045 12.8844 191.143 12.8158 191.25C12.7375 191.378 12.6591 191.495 12.5807 191.622C12.5219 191.72 12.4631 191.818 12.4043 191.916C12.3259 192.043 12.2574 192.16 12.179 192.287C12.13 192.376 12.0712 192.464 12.0222 192.552C11.9438 192.679 11.8752 192.806 11.7969 192.933C11.7479 193.011 11.6989 193.1 11.6597 193.178C11.5911 193.305 11.5127 193.432 11.4441 193.55C11.3951 193.628 11.3559 193.706 11.307 193.784C11.2384 193.902 11.1698 194.029 11.111 194.146C11.0718 194.225 11.0228 194.303 10.9836 194.381C10.9052 194.528 10.8171 194.684 10.7387 194.831C10.7093 194.88 10.6897 194.929 10.6603 194.978C10.5525 195.183 10.4447 195.379 10.3468 195.585C8.66153 198.852 7.07427 202.414 6.08468 205.574C5.0951 208.744 4.69338 211.512 4.49743 214.076C4.30147 216.649 4.30147 219.016 4.49743 221.002C4.54641 221.541 4.615 222.04 4.69338 222.529C4.69338 222.548 4.69338 222.568 4.69338 222.587C4.71298 222.715 4.73257 222.822 4.75217 222.949C4.84035 223.487 4.92853 224.006 5.01671 224.505C5.11469 225.063 5.21267 225.611 5.28126 226.158C5.47721 227.743 5.47721 229.328 5.47721 231.5C5.47721 233.672 5.47721 236.451 5.28126 238.818C5.0853 241.196 4.68359 243.172 4.29167 245.745C4.23288 246.146 4.1643 246.567 4.10551 246.998C4.10551 247.017 4.10551 247.037 4.10551 247.056C4.10551 247.115 4.08591 247.174 4.07612 247.232C3.99773 247.77 3.91935 248.309 3.84097 248.886C3.76258 249.414 3.6842 249.962 3.60582 250.52C3.58622 250.637 3.57642 250.754 3.55683 250.872C3.46865 251.449 3.38047 252.036 3.28249 252.633C3.26289 252.741 3.25309 252.848 3.2335 252.946C3.13552 253.572 3.02774 254.208 2.91017 254.854C2.3125 258.219 1.51887 261.781 0.930993 263.953C0.333322 266.125 -0.0585938 266.917 -0.0585938 267.514C-0.0585938 268.111 0.333322 268.502 0.735035 268.893C1.13675 269.285 1.52866 269.686 1.72462 271.466C1.92058 273.247 1.92058 276.407 2.32229 278.393C2.37128 278.628 2.42027 278.843 2.47906 279.049C2.49866 279.117 2.51825 279.176 2.54765 279.244C2.59663 279.381 2.63583 279.509 2.69461 279.636C2.72401 279.704 2.7632 279.773 2.79259 279.841C2.84158 279.959 2.90037 280.066 2.96895 280.184C3.00815 280.252 3.05714 280.33 3.09633 280.399C3.13552 280.458 3.16491 280.516 3.19431 280.565C3.2237 280.604 3.26289 280.653 3.29228 280.692C3.37067 280.81 3.46865 280.927 3.55683 281.045C3.62541 281.133 3.694 281.221 3.77238 281.309C3.88016 281.436 3.99773 281.573 4.12511 281.71C4.20349 281.798 4.28187 281.886 4.37985 281.984C4.52682 282.14 4.69338 282.307 4.85015 282.473C4.93833 282.571 5.02651 282.659 5.12449 282.757C5.38903 283.021 5.68297 283.314 5.9965 283.637C8.47537 286.113 12.6297 290.261 17.3914 296.199C19.6254 300.661 21.6241 304.662 23.2702 307.852C23.3388 307.989 23.4074 308.116 23.4759 308.253C23.5641 308.429 23.6621 308.605 23.7503 308.771C23.8777 309.016 24.005 309.251 24.1226 309.486C24.152 309.535 24.1814 309.593 24.201 309.642C24.7987 310.777 25.3375 311.785 25.8078 312.626C25.9842 312.939 26.1508 313.223 26.3075 313.497C26.3369 313.546 26.3663 313.595 26.3957 313.644C26.5427 313.898 26.6896 314.133 26.817 314.358C26.8464 314.397 26.866 314.436 26.8954 314.475C27.0326 314.69 27.1599 314.896 27.2775 315.082C27.2775 315.082 27.2775 315.092 27.2775 315.101C27.4049 315.297 27.5127 315.463 27.6302 315.63C27.6498 315.659 27.6694 315.688 27.689 315.718C27.7968 315.874 27.8948 316.021 27.9928 316.148C28.0026 316.168 28.0222 316.187 28.032 316.207C28.1299 316.344 28.2181 316.471 28.3063 316.589C28.4043 316.716 28.4925 316.833 28.5806 316.951C28.5904 316.96 28.6002 316.98 28.61 316.99C28.6982 317.097 28.7766 317.215 28.8648 317.312C29.0019 317.498 29.1391 317.675 29.2763 317.851C30.0699 318.937 30.8635 320.326 31.2555 321.314C31.6474 322.302 31.6474 322.899 31.5494 323.192C31.4514 323.486 31.2555 323.486 30.6578 323.682C30.0601 323.877 29.0705 324.278 28.7766 325.071C28.4827 325.863 28.8746 327.047 30.0601 328.828C31.2457 330.608 33.2346 332.986 34.6161 334.561C36.0074 336.146 36.7913 336.939 37.5849 337.731C38.3785 338.523 39.1722 339.316 39.809 339.952C40.4557 340.598 40.9456 341.087 41.1415 341.488C41.3375 341.879 41.2395 342.182 41.0925 342.329C40.9456 342.476 40.7496 342.476 40.152 342.134C39.5543 341.791 38.5647 341.097 38.0748 340.852C37.5751 340.607 37.5751 340.803 37.5751 341.048C37.5751 341.292 37.5751 341.595 38.1728 342.085C38.7704 342.584 39.956 343.268 40.9456 343.621C41.1807 343.699 41.3963 343.758 41.6118 343.807C41.7 343.826 41.7686 343.836 41.847 343.855C41.9744 343.885 42.1017 343.904 42.2193 343.924C42.3369 343.944 42.4545 343.963 42.5622 343.973C42.6798 343.992 42.7778 344.002 42.8856 344.022C43.0423 344.041 43.1893 344.071 43.3167 344.1C43.9143 344.247 44.3063 344.55 45.0999 345.088C45.8935 345.636 47.0791 346.429 48.4704 347.211C48.6761 347.329 48.8917 347.446 49.0974 347.564C49.1758 347.612 49.264 347.652 49.3424 347.701C49.4991 347.779 49.6461 347.867 49.7931 347.945C49.9792 348.043 50.1654 348.141 50.3418 348.239C50.4985 348.327 50.6553 348.405 50.8121 348.483C50.9982 348.581 51.1746 348.669 51.3607 348.767C51.4979 348.835 51.6449 348.914 51.7723 348.982C52.0662 349.129 52.3503 349.276 52.6149 349.403C53.8004 350 54.594 350.391 55.1917 350.391C55.7894 350.391 56.1813 350 56.583 349.403C56.9749 348.806 57.3766 348.014 57.7686 347.818C58.1605 347.622 58.5622 348.014 58.9541 348.61C59.346 349.207 59.7477 349.99 60.1396 350.587C60.5316 351.183 60.9333 351.575 61.5309 351.976C62.1286 352.367 62.9222 352.768 63.9118 353.258C64.9014 353.757 66.087 354.344 67.2823 355.537C73.2296 361.476 77.9816 365.624 80.7544 367.904C83.5272 370.183 84.3208 370.575 84.7128 370.966C85.1047 371.357 85.1047 371.758 85.9963 373.441C86.8879 375.124 88.6711 378.088 93.4231 385.211C94.6086 387.588 94.6086 388.175 94.4127 389.066C94.2167 389.956 93.815 391.14 93.4231 392.529C93.0312 393.918 92.6294 395.494 92.4335 396.482C92.2375 397.47 92.2375 397.871 92.6294 398.654C93.0214 399.436 93.815 400.63 95.1083 402.215C96.4016 403.8 98.1751 405.776 99.2724 407.655C100.36 409.533 100.762 411.314 101.35 412.204C101.947 413.094 102.731 413.094 103.133 412.595C103.525 412.096 103.525 411.108 103.632 410.022C103.73 408.936 103.926 407.743 104.23 407.156C104.524 406.559 104.926 406.559 105.416 406.862C105.915 407.156 106.503 407.752 108.884 410.13C112.451 411.314 112.451 412.507 112.549 413.495C112.647 414.484 112.842 415.276 113.244 415.667C113.646 416.059 114.234 416.059 114.528 415.863C114.822 415.667 114.822 415.266 115.027 414.082C115.223 412.899 115.625 410.913 115.625 409.337C115.625 407.762 115.233 406.569 115.331 404.494C115.429 402.42 116.027 399.446 116.027 397.078C116.027 395.895 117.81 394.114 118.702 393.028C119.593 391.942 119.593 391.541 119.201 391.15C118.809 390.758 118.016 390.357 117.418 389.565C116.82 388.772 116.429 387.588 116.527 384.624C116.566 383.509 116.673 382.149 116.722 380.573C116.722 380.436 116.722 380.29 116.722 380.163C116.732 379.761 116.742 379.36 116.752 378.93C116.752 378.695 116.752 378.441 116.752 378.206C116.752 377.854 116.752 377.511 116.732 377.149C116.732 376.865 116.693 376.562 116.683 376.269C116.664 375.926 116.654 375.594 116.624 375.232C116.595 374.909 116.556 374.566 116.517 374.234C116.478 373.891 116.448 373.549 116.399 373.187C116.35 372.835 116.282 372.473 116.223 372.111C116.164 371.758 116.115 371.416 116.046 371.054L116.624 356.154C117.222 354.373 118.408 353.189 119.397 351.408C120.387 349.628 121.181 347.25 121.376 345.47C121.572 343.689 121.181 342.505 121.572 340.529C121.964 338.553 123.16 335.784 123.748 333.602C124.345 331.43 124.345 329.845 125.335 327.664C126.324 325.492 128.304 322.723 132.272 317.968C136.23 313.223 142.177 306.492 145.342 302.735C148.517 298.978 148.909 298.186 148.909 297.393C148.909 296.601 148.517 295.808 148.311 294.82C148.115 293.832 148.115 292.648 148.909 292.051C149.702 291.454 151.289 291.454 152.475 291.454C153.661 291.454 154.454 291.454 155.052 291.063C155.649 290.662 156.041 289.879 157.825 286.709C159.608 283.539 162.773 278.002 165.555 273.658C168.328 269.304 170.709 266.144 171.502 263.962C172.296 261.79 171.502 260.597 171.111 259.413C170.719 258.229 170.719 257.036 170.513 255.656C170.317 254.267 169.915 252.692 170.121 251.498C170.317 250.314 171.111 249.522 172.502 245.96C173.893 242.399 175.872 236.069 176.862 232.312C177.852 228.555 177.852 227.362 177.656 226.178C177.46 224.994 177.058 223.801 177.058 223.008C177.058 222.832 177.087 222.675 177.117 222.529C177.126 222.48 177.146 222.441 177.156 222.402C177.185 222.304 177.224 222.206 177.273 222.118C177.293 222.079 177.313 222.04 177.332 222C177.391 221.903 177.46 221.795 177.528 221.697C177.538 221.678 177.558 221.658 177.567 221.638C177.656 221.511 177.754 221.384 177.842 221.247C178.234 220.65 178.635 219.858 178.831 219.075C179.027 218.283 179.027 217.49 178.43 216.208C177.832 214.927 176.646 213.146 176.646 211.953C176.646 209.575 177.832 208.988 178.43 208.098C179.027 207.208 179.027 206.024 179.615 202.267C180.213 198.51 181.398 192.18 182.192 186.838C182.986 181.496 183.378 177.142 183.779 173.982C184.171 170.822 184.573 168.836 184.965 166.664C185.357 164.492 185.758 162.115 186.552 159.943C187.346 157.771 188.531 155.785 189.129 154.601C189.727 153.417 189.727 153.016 189.521 152.224C189.325 151.431 188.923 150.247 188.727 149.054C188.531 147.87 188.531 146.676 188.727 145.492C188.923 144.309 189.325 143.115 189.913 141.54C190.51 139.955 191.304 137.979 191.696 136.795C192.088 135.611 192.088 135.21 191.696 134.222C191.304 133.233 190.51 131.649 190.305 130.856C190.109 130.064 190.501 130.064 192.48 128.684C194.459 127.295 198.025 124.526 199.809 122.951C201.592 121.366 201.592 120.975 201.396 119.986C201.2 118.998 200.798 117.413 200.798 116.23C200.798 116.063 200.808 115.897 200.828 115.74C200.828 115.691 200.837 115.633 200.847 115.584C200.857 115.476 200.877 115.378 200.896 115.281C200.906 115.222 200.916 115.173 200.935 115.114C200.965 114.987 200.994 114.87 201.033 114.742C201.043 114.703 201.053 114.674 201.063 114.635C201.112 114.478 201.17 114.322 201.239 114.155C201.259 114.097 201.288 114.028 201.317 113.97C201.366 113.852 201.415 113.725 201.474 113.608C201.572 113.373 201.68 113.128 201.798 112.864C202.395 111.475 203.179 109.498 204.374 107.522C205.56 105.546 207.147 103.57 207.941 101.789C208.734 100.008 208.734 98.4233 209.126 97.2395C209.528 96.0557 210.312 95.2632 210.714 93.8739C211.106 92.4847 211.106 90.5084 211.703 88.7278C212.301 86.9471 213.486 85.3622 214.084 84.374C214.682 83.3859 214.682 82.9848 214.476 82.7891C214.28 82.5934 213.878 82.5934 212.693 81.3998C211.507 80.216 209.518 77.8386 208.333 76.4493C207.147 75.0698 206.745 74.6687 206.55 74.2773C206.354 73.886 206.354 73.4849 206.158 72.301C205.962 71.1172 205.56 69.1409 205.364 67.1549C205.168 65.1786 205.168 63.2023 204.962 62.0087C204.766 60.8248 204.365 60.4237 204.57 59.4356C204.766 58.4474 205.56 56.8625 206.158 55.483C206.755 54.0937 207.147 52.9099 207.745 51.3249C208.343 49.74 209.126 47.7637 210.518 45.5917C211.909 43.4198 213.888 41.0423 215.27 39.4574C215.573 39.1052 215.848 38.8019 216.102 38.5182C216.132 38.4888 216.171 38.4497 216.2 38.4105C216.279 38.3323 216.347 38.2638 216.416 38.1855C216.475 38.117 216.543 38.0486 216.602 37.9899C216.661 37.9311 216.71 37.8822 216.769 37.8333C216.837 37.7648 216.906 37.6963 216.974 37.6279C217.023 37.5887 217.063 37.5496 217.102 37.5105C217.17 37.442 217.239 37.3833 217.308 37.3246C217.347 37.2854 217.386 37.2561 217.425 37.2267C217.455 37.1974 217.484 37.1778 217.523 37.1485L218.209 36.6984C218.209 36.6984 218.229 36.6886 218.238 36.6788C219.032 36.2875 219.826 36.2875 220.619 36.082C221.413 35.8864 222.207 35.4852 222.598 35.0939C222.99 34.7025 222.99 34.3014 222.794 33.7046L222.873 33.6753Z" fill="#5F6200" fill-opacity="0.05"/>
<path d="M222.873 33.6753C222.677 33.0785 222.275 32.286 221.482 31.699C220.688 31.1022 219.502 30.7108 218.513 30.5152C217.523 30.3195 216.73 30.3195 216.132 29.527C215.534 28.7345 215.142 27.1496 214.349 25.7701C213.555 24.3808 212.369 23.197 210.978 22.6002C209.597 22.0034 208.009 22.0034 206.618 21.8077C205.237 21.6121 204.041 21.2109 202.856 20.8196C202.64 20.7511 202.425 20.6728 202.209 20.6043C201.788 20.4576 201.366 20.3206 200.955 20.1739C200.886 20.1445 200.818 20.1249 200.749 20.0956C200.308 19.9391 199.877 19.7825 199.485 19.626C198.496 19.2346 197.702 18.8335 196.516 18.6378C195.331 18.4422 193.744 18.4422 192.352 18.2465C190.971 18.0508 189.776 17.6497 188.982 17.0627C188.796 16.9257 188.639 16.7789 188.492 16.6224C188.492 16.6224 188.472 16.6028 188.463 16.593C188.306 16.4365 188.169 16.2702 188.012 16.0843C187.875 15.9278 187.728 15.7517 187.581 15.5756C187.551 15.5364 187.512 15.4973 187.483 15.4581C187.316 15.2723 187.14 15.0864 186.934 14.8907C186.915 14.8711 186.905 14.8516 186.875 14.832C186.817 14.7831 186.768 14.7244 186.709 14.6755C185.621 13.6873 183.838 12.5035 182.643 10.1261C176.695 8.94225 176.695 8.34545 176.303 7.06379C175.912 5.78214 175.118 3.79606 174.128 2.41657C173.139 1.02729 171.953 0.244601 170.366 0.0391452C168.779 -0.156527 166.799 0.234818 164.624 1.42842C162.449 2.61224 160.068 4.58853 157.883 6.17348C155.708 7.75843 153.719 8.94225 152.534 10.3315C151.348 11.7208 150.947 13.296 150.555 14.4896C150.153 15.6734 149.761 16.4659 149.369 17.0627C148.977 17.6595 148.575 18.0508 147.194 18.8433C145.803 19.6358 143.432 20.8196 141.452 21.6121C141.217 21.7099 140.992 21.7882 140.766 21.8762C140.698 21.9056 140.62 21.9251 140.551 21.9545C140.404 22.0132 140.247 22.0621 140.1 22.111C140.012 22.1404 139.924 22.1697 139.836 22.1991C139.699 22.2382 139.571 22.2871 139.434 22.3263C139.336 22.3556 139.238 22.385 139.14 22.4143C139.013 22.4534 138.885 22.4926 138.748 22.5317C138.65 22.5611 138.542 22.5904 138.435 22.6198C138.297 22.6589 138.17 22.6882 138.033 22.7274C137.925 22.7567 137.817 22.7861 137.7 22.8154C137.563 22.8448 137.425 22.8839 137.278 22.9133C137.161 22.9426 137.043 22.972 136.916 23.0013C136.779 23.0307 136.632 23.0698 136.495 23.0992C136.367 23.1285 136.25 23.1579 136.112 23.1872C135.799 23.2557 135.466 23.334 135.113 23.4025C132.34 23.9993 128.372 24.7917 126.197 25.5744C124.022 26.3669 123.62 27.1594 121.641 28.7345C119.662 30.3195 116.095 32.6871 113.92 34.0764C111.745 35.4657 110.951 35.857 109.756 36.6495C108.571 37.442 106.983 38.6258 105.396 40.2107C105.034 40.5727 104.671 40.9641 104.299 41.3652C104.171 41.5022 104.054 41.6489 103.926 41.7859C103.681 42.0696 103.437 42.3533 103.192 42.6469C103.054 42.8132 102.917 42.9795 102.78 43.1458C102.535 43.4491 102.29 43.7524 102.055 44.0655C101.928 44.222 101.81 44.3786 101.683 44.5449C101.624 44.6231 101.555 44.7014 101.497 44.7797C101.212 45.1613 100.918 45.5526 100.634 45.9439C99.0471 48.1159 97.4598 50.4933 95.6766 52.4696C95.4219 52.7533 95.1573 53.0371 94.8928 53.3012C94.7752 53.4186 94.6576 53.536 94.5498 53.6534C94.3539 53.8589 94.1579 54.0644 93.962 54.26C93.7856 54.4459 93.6092 54.622 93.4329 54.8079C93.3349 54.9057 93.2467 55.0036 93.1487 55.1014C92.9626 55.2971 92.7862 55.4928 92.6098 55.6982C92.5609 55.7569 92.5021 55.8058 92.4629 55.8645C92.4531 55.8743 92.4433 55.8939 92.4335 55.9037C92.3845 55.9624 92.3453 56.0113 92.2963 56.07C92.1689 56.2265 92.0416 56.3929 91.9142 56.5494C91.8554 56.6277 91.8064 56.6962 91.7476 56.7744C91.6399 56.931 91.5321 57.0973 91.4243 57.2538C91.3753 57.3223 91.3361 57.3908 91.2871 57.4691C91.15 57.7039 91.0226 57.9387 90.905 58.193C89.9154 60.365 89.9154 63.1436 89.7195 65.3155C89.5235 67.4875 89.1218 69.0724 88.9258 70.4617C88.8573 70.9509 88.8083 71.4009 88.7593 71.8314C88.7299 72.0956 88.7005 72.3402 88.6613 72.575C88.6417 72.7315 88.6123 72.8881 88.5829 73.0348C88.5731 73.0935 88.5535 73.162 88.5437 73.2207C88.4849 73.4359 88.4262 73.6512 88.3282 73.8273C87.9363 74.6198 87.1426 75.0111 86.153 76.4004C85.1635 77.7897 83.9779 80.1573 82.7826 81.5466C81.597 82.9359 80.4017 83.3272 79.2161 83.5229C78.0306 83.7185 76.8353 83.7185 75.8457 84.3153C74.8561 84.9121 74.0624 86.096 72.4752 87.8766C70.8879 89.6572 68.5168 92.0346 67.3215 94.4023C63.7551 101.525 61.3742 105.683 59.0031 109.733C58.7288 110.203 58.4544 110.663 58.1899 111.122C57.9547 111.524 57.7196 111.925 57.4844 112.316C57.3864 112.492 57.2787 112.668 57.1807 112.835C56.9749 113.187 56.7692 113.529 56.5732 113.872C56.485 114.018 56.3969 114.165 56.3087 114.312C56.1225 114.625 55.9461 114.928 55.7698 115.241C55.6718 115.408 55.5836 115.564 55.4857 115.731C55.3191 116.014 55.1721 116.288 55.0154 116.552C54.9174 116.719 54.8194 116.885 54.7312 117.051C54.5842 117.316 54.4373 117.57 54.3001 117.824C54.2119 117.981 54.1237 118.137 54.0356 118.294C53.8886 118.558 53.7514 118.812 53.6241 119.057C53.5555 119.184 53.4771 119.321 53.4183 119.448C53.2223 119.82 53.0362 120.172 52.8696 120.505C51.4783 123.274 51.0864 124.859 50.2928 127.031C49.4991 129.203 48.3136 131.971 46.9223 134.153C46.5794 134.691 46.2266 135.19 45.8641 135.689C45.8543 135.709 45.8347 135.719 45.8249 135.738C45.4624 136.217 45.0999 136.697 44.7276 137.186C43.9535 138.204 43.1599 139.29 42.3663 140.679C40.779 143.448 39.2016 147.41 38.0062 149.973C36.8207 152.546 36.027 153.73 35.0374 155.119C34.0479 156.509 32.8623 158.084 31.667 159.669C30.4814 161.254 29.2861 162.829 27.9046 165.011C26.5133 167.183 24.9358 169.961 23.8385 173.121C22.7509 176.291 22.1532 179.852 18.5868 183.404C18.479 183.541 18.3712 183.668 18.2733 183.795C18.1851 183.903 18.1165 184.001 18.0283 184.099C17.8813 184.294 17.7246 184.48 17.5776 184.666C17.4502 184.823 17.3327 184.979 17.2151 185.136C17.0779 185.312 16.9407 185.488 16.8134 185.664C16.6958 185.811 16.588 185.957 16.4704 186.104C16.3431 186.271 16.2157 186.427 16.0981 186.593C15.9904 186.74 15.8826 186.877 15.7748 187.024C15.6572 187.171 15.5494 187.327 15.4417 187.474C15.3339 187.611 15.2359 187.748 15.1379 187.885C15.04 188.022 14.9322 188.169 14.8342 188.306C14.7362 188.443 14.6382 188.579 14.5403 188.716C14.4521 188.844 14.3541 188.971 14.2659 189.098C14.1777 189.235 14.0896 189.362 13.9916 189.489C13.9132 189.607 13.825 189.734 13.7466 189.851C13.6585 189.979 13.5801 190.106 13.4919 190.233C13.4135 190.35 13.3351 190.458 13.2665 190.566C13.1882 190.693 13.1098 190.81 13.0216 190.937C12.953 191.045 12.8844 191.143 12.8158 191.25C12.7375 191.378 12.6591 191.495 12.5807 191.622C12.5219 191.72 12.4631 191.818 12.4043 191.916C12.3259 192.043 12.2574 192.16 12.179 192.287C12.13 192.376 12.0712 192.464 12.0222 192.552C11.9438 192.679 11.8752 192.806 11.7969 192.933C11.7479 193.011 11.6989 193.1 11.6597 193.178C11.5911 193.305 11.5127 193.432 11.4441 193.55C11.3951 193.628 11.3559 193.706 11.307 193.784C11.2384 193.902 11.1698 194.029 11.111 194.146C11.0718 194.225 11.0228 194.303 10.9836 194.381C10.9052 194.528 10.8171 194.684 10.7387 194.831C10.7093 194.88 10.6897 194.929 10.6603 194.978C10.5525 195.183 10.4447 195.379 10.3468 195.585C8.66153 198.852 7.07427 202.414 6.08468 205.574C5.0951 208.744 4.69338 211.512 4.49743 214.076C4.30147 216.649 4.30147 219.016 4.49743 221.002C4.54641 221.541 4.615 222.04 4.69338 222.529C4.69338 222.548 4.69338 222.568 4.69338 222.587C4.71298 222.715 4.73257 222.822 4.75217 222.949C4.84035 223.487 4.92853 224.006 5.01671 224.505C5.11469 225.063 5.21267 225.611 5.28126 226.158C5.47721 227.743 5.47721 229.328 5.47721 231.5C5.47721 233.672 5.47721 236.451 5.28126 238.818C5.0853 241.196 4.68359 243.172 4.29167 245.745C4.23288 246.146 4.1643 246.567 4.10551 246.998C4.10551 247.017 4.10551 247.037 4.10551 247.056C4.10551 247.115 4.08591 247.174 4.07612 247.232C3.99773 247.77 3.91935 248.309 3.84097 248.886C3.76258 249.414 3.6842 249.962 3.60582 250.52C3.58622 250.637 3.57642 250.754 3.55683 250.872C3.46865 251.449 3.38047 252.036 3.28249 252.633C3.26289 252.741 3.25309 252.848 3.2335 252.946C3.13552 253.572 3.02774 254.208 2.91017 254.854C2.3125 258.219 1.51887 261.781 0.930993 263.953C0.333322 266.125 -0.0585938 266.917 -0.0585938 267.514C-0.0585938 268.111 0.333322 268.502 0.735035 268.893C1.13675 269.285 1.52866 269.686 1.72462 271.466C1.92058 273.247 1.92058 276.407 2.32229 278.393C2.37128 278.628 2.42027 278.843 2.47906 279.049C2.49866 279.117 2.51825 279.176 2.54765 279.244C2.59663 279.381 2.63583 279.509 2.69461 279.636C2.72401 279.704 2.7632 279.773 2.79259 279.841C2.84158 279.959 2.90037 280.066 2.96895 280.184C3.00815 280.252 3.05714 280.33 3.09633 280.399C3.13552 280.458 3.16491 280.516 3.19431 280.565C3.2237 280.604 3.26289 280.653 3.29228 280.692C3.37067 280.81 3.46865 280.927 3.55683 281.045C3.62541 281.133 3.694 281.221 3.77238 281.309C3.88016 281.436 3.99773 281.573 4.12511 281.71C4.20349 281.798 4.28187 281.886 4.37985 281.984C4.52682 282.14 4.69338 282.307 4.85015 282.473C4.93833 282.571 5.02651 282.659 5.12449 282.757C5.38903 283.021 5.68297 283.314 5.9965 283.637C8.47537 286.113 12.6297 290.261 17.3914 296.199C19.6254 300.661 21.6241 304.662 23.2702 307.852C23.3388 307.989 23.4074 308.116 23.4759 308.253C23.5641 308.429 23.6621 308.605 23.7503 308.771C23.8777 309.016 24.005 309.251 24.1226 309.486C24.152 309.535 24.1814 309.593 24.201 309.642C24.7987 310.777 25.3375 311.785 25.8078 312.626C25.9842 312.939 26.1508 313.223 26.3075 313.497C26.3369 313.546 26.3663 313.595 26.3957 313.644C26.5427 313.898 26.6896 314.133 26.817 314.358C26.8464 314.397 26.866 314.436 26.8954 314.475C27.0326 314.69 27.1599 314.896 27.2775 315.082C27.2775 315.082 27.2775 315.092 27.2775 315.101C27.4049 315.297 27.5127 315.463 27.6302 315.63C27.6498 315.659 27.6694 315.688 27.689 315.718C27.7968 315.874 27.8948 316.021 27.9928 316.148C28.0026 316.168 28.0222 316.187 28.032 316.207C28.1299 316.344 28.2181 316.471 28.3063 316.589C28.4043 316.716 28.4925 316.833 28.5806 316.951C28.5904 316.96 28.6002 316.98 28.61 316.99C28.6982 317.097 28.7766 317.215 28.8648 317.312C29.0019 317.498 29.1391 317.675 29.2763 317.851C30.0699 318.937 30.8635 320.326 31.2555 321.314C31.6474 322.302 31.6474 322.899 31.5494 323.192C31.4514 323.486 31.2555 323.486 30.6578 323.682C30.0601 323.877 29.0705 324.278 28.7766 325.071C28.4827 325.863 28.8746 327.047 30.0601 328.828C31.2457 330.608 33.2346 332.986 34.6161 334.561C36.0074 336.146 36.7913 336.939 37.5849 337.731C38.3785 338.523 39.1722 339.316 39.809 339.952C40.4557 340.598 40.9456 341.087 41.1415 341.488C41.3375 341.879 41.2395 342.182 41.0925 342.329C40.9456 342.476 40.7496 342.476 40.152 342.134C39.5543 341.791 38.5647 341.097 38.0748 340.852C37.5751 340.607 37.5751 340.803 37.5751 341.048C37.5751 341.292 37.5751 341.595 38.1728 342.085C38.7704 342.584 39.956 343.268 40.9456 343.621C41.1807 343.699 41.3963 343.758 41.6118 343.807C41.7 343.826 41.7686 343.836 41.847 343.855C41.9744 343.885 42.1017 343.904 42.2193 343.924C42.3369 343.944 42.4545 343.963 42.5622 343.973C42.6798 343.992 42.7778 344.002 42.8856 344.022C43.0423 344.041 43.1893 344.071 43.3167 344.1C43.9143 344.247 44.3063 344.55 45.0999 345.088C45.8935 345.636 47.0791 346.429 48.4704 347.211C48.6761 347.329 48.8917 347.446 49.0974 347.564C49.1758 347.612 49.264 347.652 49.3424 347.701C49.4991 347.779 49.6461 347.867 49.7931 347.945C49.9792 348.043 50.1654 348.141 50.3418 348.239C50.4985 348.327 50.6553 348.405 50.8121 348.483C50.9982 348.581 51.1746 348.669 51.3607 348.767C51.4979 348.835 51.6449 348.914 51.7723 348.982C52.0662 349.129 52.3503 349.276 52.6149 349.403C53.8004 350 54.594 350.391 55.1917 350.391C55.7894 350.391 56.1813 350 56.583 349.403C56.9749 348.806 57.3766 348.014 57.7686 347.818C58.1605 347.622 58.5622 348.014 58.9541 348.61C59.346 349.207 59.7477 349.99 60.1396 350.587C60.5316 351.183 60.9333 351.575 61.5309 351.976C62.1286 352.367 62.9222 352.768 63.9118 353.258C64.9014 353.757 66.087 354.344 67.2823 355.537C73.2296 361.476 77.9816 365.624 80.7544 367.904C83.5272 370.183 84.3208 370.575 84.7128 370.966C85.1047 371.357 85.1047 371.758 85.9963 373.441C86.8879 375.124 88.6711 378.088 93.4231 385.211C94.6086 387.588 94.6086 388.175 94.4127 389.066C94.2167 389.956 93.815 391.14 93.4231 392.529C93.0312 393.918 92.6294 395.494 92.4335 396.482C92.2375 397.47 92.2375 397.871 92.6294 398.654C93.0214 399.436 93.815 400.63 95.1083 402.215C96.4016 403.8 98.1751 405.776 99.2724 407.655C100.36 409.533 100.762 411.314 101.35 412.204C101.947 413.094 102.731 413.094 103.133 412.595C103.525 412.096 103.525 411.108 103.632 410.022C103.73 408.936 103.926 407.743 104.23 407.156C104.524 406.559 104.926 406.559 105.416 406.862C105.915 407.156 106.503 407.752 108.884 410.13C112.451 411.314 112.451 412.507 112.549 413.495C112.647 414.484 112.842 415.276 113.244 415.667C113.646 416.059 114.234 416.059 114.528 415.863C114.822 415.667 114.822 415.266 115.027 414.082C115.223 412.899 115.625 410.913 115.625 409.337C115.625 407.762 115.233 406.569 115.331 404.494C115.429 402.42 116.027 399.446 116.027 397.078C116.027 395.895 117.81 394.114 118.702 393.028C119.593 391.942 119.593 391.541 119.201 391.15C118.809 390.758 118.016 390.357 117.418 389.565C116.82 388.772 116.429 387.588 116.527 384.624C116.566 383.509 116.673 382.149 116.722 380.573C116.722 380.436 116.722 380.29 116.722 380.163C116.732 379.761 116.742 379.36 116.752 378.93C116.752 378.695 116.752 378.441 116.752 378.206C116.752 377.854 116.752 377.511 116.732 377.149C116.732 376.865 116.693 376.562 116.683 376.269C116.664 375.926 116.654 375.594 116.624 375.232C116.595 374.909 116.556 374.566 116.517 374.234C116.478 373.891 116.448 373.549 116.399 373.187C116.35 372.835 116.282 372.473 116.223 372.111C116.164 371.758 116.115 371.416 116.046 371.054L116.624 356.154C117.222 354.373 118.408 353.189 119.397 351.408C120.387 349.628 121.181 347.25 121.376 345.47C121.572 343.689 121.181 342.505 121.572 340.529C121.964 338.553 123.16 335.784 123.748 333.602C124.345 331.43 124.345 329.845 125.335 327.664C126.324 325.492 128.304 322.723 132.272 317.968C136.23 313.223 142.177 306.492 145.342 302.735C148.517 298.978 148.909 298.186 148.909 297.393C148.909 296.601 148.517 295.808 148.311 294.82C148.115 293.832 148.115 292.648 148.909 292.051C149.702 291.454 151.289 291.454 152.475 291.454C153.661 291.454 154.454 291.454 155.052 291.063C155.649 290.662 156.041 289.879 157.825 286.709C159.608 283.539 162.773 278.002 165.555 273.658C168.328 269.304 170.709 266.144 171.502 263.962C172.296 261.79 171.502 260.597 171.111 259.413C170.719 258.229 170.719 257.036 170.513 255.656C170.317 254.267 169.915 252.692 170.121 251.498C170.317 250.314 171.111 249.522 172.502 245.96C173.893 242.399 175.872 236.069 176.862 232.312C177.852 228.555 177.852 227.362 177.656 226.178C177.46 224.994 177.058 223.801 177.058 223.008C177.058 222.832 177.087 222.675 177.117 222.529C177.126 222.48 177.146 222.441 177.156 222.402C177.185 222.304 177.224 222.206 177.273 222.118C177.293 222.079 177.313 222.04 177.332 222C177.391 221.903 177.46 221.795 177.528 221.697C177.538 221.678 177.558 221.658 177.567 221.638C177.656 221.511 177.754 221.384 177.842 221.247C178.234 220.65 178.635 219.858 178.831 219.075C179.027 218.283 179.027 217.49 178.43 216.208C177.832 214.927 176.646 213.146 176.646 211.953C176.646 209.575 177.832 208.988 178.43 208.098C179.027 207.208 179.027 206.024 179.615 202.267C180.213 198.51 181.398 192.18 182.192 186.838C182.986 181.496 183.378 177.142 183.779 173.982C184.171 170.822 184.573 168.836 184.965 166.664C185.357 164.492 185.758 162.115 186.552 159.943C187.346 157.771 188.531 155.785 189.129 154.601C189.727 153.417 189.727 153.016 189.521 152.224C189.325 151.431 188.923 150.247 188.727 149.054C188.531 147.87 188.531 146.676 188.727 145.492C188.923 144.309 189.325 143.115 189.913 141.54C190.51 139.955 191.304 137.979 191.696 136.795C192.088 135.611 192.088 135.21 191.696 134.222C191.304 133.233 190.51 131.649 190.305 130.856C190.109 130.064 190.501 130.064 192.48 128.684C194.459 127.295 198.025 124.526 199.809 122.951C201.592 121.366 201.592 120.975 201.396 119.986C201.2 118.998 200.798 117.413 200.798 116.23C200.798 116.063 200.808 115.897 200.828 115.74C200.828 115.691 200.837 115.633 200.847 115.584C200.857 115.476 200.877 115.378 200.896 115.281C200.906 115.222 200.916 115.173 200.935 115.114C200.965 114.987 200.994 114.87 201.033 114.742C201.043 114.703 201.053 114.674 201.063 114.635C201.112 114.478 201.17 114.322 201.239 114.155C201.259 114.097 201.288 114.028 201.317 113.97C201.366 113.852 201.415 113.725 201.474 113.608C201.572 113.373 201.68 113.128 201.798 112.864C202.395 111.475 203.179 109.498 204.374 107.522C205.56 105.546 207.147 103.57 207.941 101.789C208.734 100.008 208.734 98.4233 209.126 97.2395C209.528 96.0557 210.312 95.2632 210.714 93.8739C211.106 92.4847 211.106 90.5084 211.703 88.7278C212.301 86.9471 213.486 85.3622 214.084 84.374C214.682 83.3859 214.682 82.9848 214.476 82.7891C214.28 82.5934 213.878 82.5934 212.693 81.3998C211.507 80.216 209.518 77.8386 208.333 76.4493C207.147 75.0698 206.745 74.6687 206.55 74.2773C206.354 73.886 206.354 73.4849 206.158 72.301C205.962 71.1172 205.56 69.1409 205.364 67.1549C205.168 65.1786 205.168 63.2023 204.962 62.0087C204.766 60.8248 204.365 60.4237 204.57 59.4356C204.766 58.4474 205.56 56.8625 206.158 55.483C206.755 54.0937 207.147 52.9099 207.745 51.3249C208.343 49.74 209.126 47.7637 210.518 45.5917C211.909 43.4198 213.888 41.0423 215.27 39.4574C215.573 39.1052 215.848 38.8019 216.102 38.5182C216.132 38.4888 216.171 38.4497 216.2 38.4105C216.279 38.3323 216.347 38.2638 216.416 38.1855C216.475 38.117 216.543 38.0486 216.602 37.9899C216.661 37.9311 216.71 37.8822 216.769 37.8333C216.837 37.7648 216.906 37.6963 216.974 37.6279C217.023 37.5887 217.063 37.5496 217.102 37.5105C217.17 37.442 217.239 37.3833 217.308 37.3246C217.347 37.2854 217.386 37.2561 217.425 37.2267C217.455 37.1974 217.484 37.1778 217.523 37.1485L218.209 36.6984C218.209 36.6984 218.229 36.6886 218.238 36.6788C219.032 36.2875 219.826 36.2875 220.619 36.082C221.413 35.8864 222.207 35.4852 222.598 35.0939C222.99 34.7025 222.99 34.3014 222.794 33.7046L222.873 33.6753Z" stroke="" stroke-width="2" mask="url(#path-1-inside-1_303_1970)"/>
</svg>
