<svg viewBox="0 0 24 24" fill="none" xmlns="http://www.w3.org/2000/svg">
<mask id="mask0_716_3186" style="mask-type:alpha" maskUnits="userSpaceOnUse" x="0" y="0" width="24" height="24">
<rect width="24" height="24" fill="#D9D9D9"/>
</mask>
<g mask="url(#mask0_716_3186)">
<path d="M6.125 14C5.29167 12.9667 4.646 11.8167 4.188 10.55C3.72933 9.28333 3.5 7.93333 3.5 6.5C3.5 6.03333 3.525 5.579 3.575 5.137C3.625 4.69567 3.7 4.25833 3.8 3.825L2.05 5.55L1 4.5L4.5 1L8 4.5L6.95 5.55L5.325 3.95C5.225 4.36667 5.146 4.78733 5.088 5.212C5.02933 5.63733 5 6.06667 5 6.5C5 7.71667 5.19167 8.86667 5.575 9.95C5.95833 11.0333 6.5 12.025 7.2 12.925L6.125 14ZM14.85 21.85L8.05 19.225L8.75 17.325C8.86667 17.025 9.03333 16.7627 9.25 16.538C9.46667 16.3127 9.73333 16.1667 10.05 16.1L12.025 15.7L8.7 8.275C8.41667 7.64167 8.4 7.004 8.65 6.362C8.9 5.72067 9.34167 5.25833 9.975 4.975C10.6083 4.69167 11.246 4.67067 11.888 4.912C12.5293 5.154 12.9917 5.59167 13.275 6.225L15.025 10.15L15.625 9.9C15.6917 9.86667 15.7667 9.85 15.85 9.85H16.1L20.2 10C20.6333 10.0167 21.0167 10.1667 21.35 10.45C21.6833 10.7333 21.9083 11.0917 22.025 11.525L23.425 16.875C23.5583 17.3583 23.5127 17.8167 23.288 18.25C23.0627 18.6833 22.725 19 22.275 19.2L16.425 21.8C16.175 21.9167 15.9127 21.9793 15.638 21.988C15.3627 21.996 15.1 21.95 14.85 21.85ZM15.625 19.975L21.45 17.375L20.1 12L15.475 11.825L13.9 12.525L11.45 7.05C11.3833 6.91667 11.2877 6.825 11.163 6.775C11.0377 6.725 10.9083 6.73333 10.775 6.8C10.6417 6.86667 10.55 6.95833 10.5 7.075C10.45 7.19167 10.4583 7.31667 10.525 7.45L14.85 17.125L10.6 18.05L15.625 19.975Z" fill="#48473C"/>
</g>
</svg>
