<svg xmlns="http://www.w3.org/2000/svg" xml:space="preserve" viewBox="0 0 132.3 123.119"><path d="M391.51 405.831v-61.56H523.8v123.12H391.509z" style="fill:none;stroke-width:.117593" transform="translate(-391.51 -344.272)"/><path d="M487.994 394.399a5.878 5.878 0 0 1-.728-.28c-.272-.123-.682-.223-.912-.223-.23 0-.418-.047-.418-.104 0-.323 1.85-2.736 2.76-3.6.272-.26.724-.815 1.004-1.235.28-.42.837-1.161 1.239-1.646l.73-.882-.036-.824c-.02-.452-.119-1.082-.22-1.4-.474-1.48-.057-3.92.901-5.28.128-.18.384-.63.57-.999.632-1.258 2.201-2.821 3.648-3.636 1.235-.695 2.953-.75 4.159-.13.51.261 1.95.442 3.564.447.78.003 1.113-.055 1.675-.292a10.97 10.97 0 0 1 1.437-.468c1.466-.346 4.847-.167 7.127.377l1.336.319.833-.456c1.24-.678 2.266-1.01 2.675-.868.295.103.4.062.935-.361.332-.262.824-.532 1.095-.6.271-.067.58-.171.687-.231.176-.098 1.503-.474 1.675-.474.039 0 .071 4.446.071 9.88v9.88l-.323-.077a1.434 1.434 0 0 1-.51-.237c-.103-.09-.444-.16-.768-.16-1.245 0-2.948-.66-3.588-1.388l-.35-.4-1.393.199c-1.526.218-1.474.227-2.505-.453-.308-.203-.592-.489-.63-.634-.186-.693-1.353-1.135-2.242-.85-.596.192-.848.425-1.108 1.027-.118.274-.283.5-.367.501-.167.002-1.02.793-2.253 2.088-.444.468-.874.85-.955.85-.081 0-.218.084-.303.188-.086.103-.423.322-.75.487-1.733.877-1.598.836-2.374.727-.72-.101-1.697-.432-2.192-.741-.143-.09-.552-.198-.908-.24a6.94 6.94 0 0 1-1.024-.198c-.307-.098-.48-.075-.926.122a3.118 3.118 0 0 1-1.21.242c-.746-.002-2.217.287-2.837.556-.226.099-.94.223-1.587.277-1.697.141-2.294.33-3.186 1.008-.355.27-.913.34-1.518.192z" style="fill:#fcfded;stroke-width:.117593" transform="translate(-391.51 -344.272)"/><path d="M487.994 394.399a5.878 5.878 0 0 1-.728-.28c-.272-.123-.652-.223-.846-.223-.194 0-.382-.048-.417-.105-.138-.224 1.59-2.52 2.618-3.478.28-.26.75-.845 1.044-1.297.295-.453.87-1.224 1.277-1.713l.74-.89-.042-.815a8.081 8.081 0 0 0-.226-1.462c-.455-1.607-.05-3.901.921-5.233a8.18 8.18 0 0 0 .571-1c.413-.85 1.129-1.7 2.156-2.558 1.716-1.433 2.896-1.823 4.553-1.507.49.094 1.02.256 1.179.36.334.219 1.898.407 3.402.41.85.002 1.16-.051 1.756-.302 1.488-.626 3.073-.768 5.796-.517 1.484.137 2.285.28 3.316.59l.73.22.799-.462c1.15-.665 2.337-1.06 2.751-.916.287.1.398.057.929-.363.332-.262.824-.533 1.095-.602a5.89 5.89 0 0 0 .728-.23c.4-.18 1.61-.49 1.67-.429.12.12-.098.294-.466.372-.476.101-2.065.626-2.38.786-.13.066-.429.304-.665.53-.403.386-.454.402-.828.279-.34-.112-.53-.087-1.273.165a9.91 9.91 0 0 0-1.582.723l-.708.425-1.235-.31c-1.524-.382-3.087-.55-5.233-.559-1.636-.007-1.655-.004-2.999.473-1.072.381-1.517.48-2.15.481-1.3.002-3.03-.233-3.506-.475-.241-.123-.817-.286-1.28-.363-1.142-.188-2.16 0-3.115.577-1.015.612-2.757 2.39-3.194 3.26-.195.389-.52.965-.723 1.28-.824 1.284-1.16 3.709-.702 5.07.108.324.21.94.228 1.368.03.755.016.797-.436 1.336-.75.894-1.105 1.363-1.648 2.177-.28.42-.733.975-1.006 1.233-.636.6-1.502 1.641-2.109 2.535l-.476.7h.305c.168 0 .552.113.854.25.686.313 1.604.316 2.024.006.823-.61 2.461-1.105 3.285-.994.307.041.723-.021 1.209-.182 1.173-.387 2.262-.608 2.996-.608.431 0 .906-.094 1.3-.257.556-.23.678-.243 1.178-.115.307.079.79.171 1.076.205.285.035.744.189 1.02.343.671.374 1.622.647 2.256.647.377 0 .732-.118 1.302-.432 1.369-.756 1.812-1.1 3.098-2.4.692-.698 1.412-1.35 1.602-1.448a.761.761 0 0 0 .41-.512c.23-1.143 2.326-1.589 3.33-.707.22.192.398.422.398.51 0 .088.3.387.667.664.604.456.724.5 1.264.476a14.73 14.73 0 0 0 1.538-.198l.941-.17.412.45c.754.825 2.28 1.403 3.726 1.411.4.002.76.057.8.122.04.065.176.117.302.117.152 0 .228.081.228.244 0 .197-.05.228-.265.164a2.492 2.492 0 0 1-.5-.225c-.129-.08-.633-.176-1.12-.212-1.232-.092-2.463-.584-3.16-1.262-.297-.29-.584-.514-.638-.497-.053.017-.668.114-1.365.215-1.19.174-1.293.173-1.667-.02-.586-.304-1.27-.882-1.432-1.212-.259-.526-.74-.781-1.474-.78-.97.002-1.465.284-1.765 1.006-.133.32-.31.581-.395.582-.167.002-1.024.792-2.172 1.999-.399.42-.901.869-1.116.998-2.37 1.425-2.461 1.462-3.352 1.34-.749-.102-1.852-.484-2.157-.746-.097-.083-.494-.186-.882-.23-.388-.042-.867-.136-1.065-.207-.299-.107-.455-.087-.926.121-.388.172-.807.251-1.326.251-.8 0-2.047.256-2.739.563-.226.1-.804.198-1.285.217-1.535.063-2.605.388-3.488 1.06-.355.27-.912.34-1.518.192z" style="fill:#d1eee9;stroke-width:.117593" transform="translate(-391.51 -344.272)"/><path d="M487.652 394.214a6.06 6.06 0 0 0-1.01-.278c-.714-.098-.736-.119-.508-.48.574-.908 1.581-2.188 2.384-3.03.494-.517 1.086-1.231 1.316-1.587a21.37 21.37 0 0 1 1.14-1.527l.722-.881-.046-.883c-.025-.486-.13-1.173-.234-1.526-.423-1.445-.08-3.482.826-4.91.214-.337.519-.87.678-1.183.647-1.277 2.292-2.896 3.743-3.682.713-.387.784-.4 2.032-.4 1.18 0 1.356.029 2 .335.66.315.825.34 2.596.398l1.892.062.97-.374c1.412-.544 2.596-.666 4.841-.498 2.05.153 2.85.276 4.01.616l.785.23 1.096-.583c1.263-.673 2.049-.908 2.516-.752.274.091.377.05.742-.295.478-.452.575-.497 2.13-.976l1.322-.409c.113-.035.206-.009.206.057 0 .067-.225.18-.5.251-.832.217-2.248.713-2.51.88a4.886 4.886 0 0 0-.62.532c-.341.34-.406.362-.703.239-.486-.201-1.296.02-2.578.704-1.044.557-1.112.576-1.588.456-2.414-.608-3.76-.768-6.259-.743-1.362.013-1.52.045-3.116.627-.966.351-1.046.361-2.398.296-1.577-.076-2.062-.162-3.07-.542-.811-.307-2.368-.367-3.193-.123-1.262.371-3.35 2.252-4.094 3.687-.246.475-.562 1.022-.702 1.216-.929 1.284-1.265 3.787-.717 5.34.1.28.18.848.18 1.26 0 .748-.004.756-.715 1.603-.394.468-.95 1.205-1.238 1.637-.287.431-.905 1.176-1.372 1.655a19.33 19.33 0 0 0-1.59 1.912l-.74 1.043.505.143c.278.078.717.224.976.325.642.249 1.261.239 1.601-.026.824-.644 2.167-1.063 3.43-1.07.374-.003.876-.088 1.117-.19.598-.254 1.883-.517 3.083-.63.55-.053 1.196-.181 1.436-.287.394-.172.508-.174 1.176-.017.407.096.862.176 1.011.177.15 0 .652.185 1.117.41.465.223 1.183.46 1.595.524.803.126.71.152 2.19-.626.875-.46 1.514-.95 2.228-1.71 1.127-1.198 1.788-1.813 2.143-1.993.14-.071.289-.282.33-.469.15-.68.887-1.115 1.895-1.117.866 0 1.427.281 1.722.867.118.235.488.596.88.86.654.44.701.452 1.396.377.396-.042 1.058-.149 1.472-.237l.752-.16.47.513c.749.815 2.143 1.351 3.517 1.351.364 0 .753.05.865.11.113.06.297.137.41.172.113.035.206.14.206.235 0 .138-.075.15-.374.065-.206-.06-.428-.161-.494-.227s-.36-.122-.655-.124c-1.298-.01-3.175-.755-3.727-1.478-.197-.258-.378-.386-.487-.344-.096.037-.72.144-1.388.238-1.193.167-1.22.166-1.661-.091-.77-.448-1.19-.811-1.331-1.154-.222-.534-.657-.749-1.525-.751-.95-.003-1.525.29-1.717.877-.072.218-.257.496-.412.618-1.033.812-1.245 1.01-2.104 1.97-.615.69-1.448 1.324-2.352 1.795-.226.118-.597.32-.823.448-.66.374-1.925.248-3.004-.3-.47-.238-1.143-.47-1.533-.528a22.244 22.244 0 0 1-1.049-.18c-.236-.05-.54.006-.92.17a3.324 3.324 0 0 1-1.287.243c-.77 0-1.815.21-3 .606-.484.161-.887.223-1.162.178-.772-.125-2.378.347-3.156.927-.48.359-1.244.41-1.988.136z" style="fill:#9fdfd9;stroke-width:.117593" transform="translate(-391.51 -344.272)"/><path d="M487.821 394.28a1.61 1.61 0 0 1-.526-.22c-.13-.09-.432-.164-.672-.164-.779 0-.746-.122.479-1.764a24.103 24.103 0 0 1 1.49-1.764c.459-.485 1.056-1.214 1.329-1.619a22.31 22.31 0 0 1 1.167-1.539l.671-.801-.07-.872a10.764 10.764 0 0 0-.28-1.634c-.182-.665-.192-.906-.078-1.907.146-1.282.41-2.08.98-2.966.213-.33.52-.855.68-1.167.68-1.312 2.629-3.15 3.973-3.748 1.031-.459 2.83-.387 3.838.153.36.192.809.257 2.413.349l1.971.112.753-.336c1.139-.51 1.768-.62 3.51-.622 1.96-.002 3.824.182 4.964.491 1.48.401 1.386.406 2.25-.1 1.056-.617 2.258-.998 2.728-.866.306.086.424.042.882-.328.291-.236.662-.486.823-.556.746-.326 2.864-.881 2.705-.709-.032.035-.35.145-.706.245-1.533.43-2.198.716-2.763 1.187-.526.438-.622.477-.914.371-.462-.168-1.212.046-2.555.732l-1.117.571-.751-.212c-1.517-.429-3.173-.622-5.364-.626l-2.117-.004-1.148.448c-1.04.405-1.253.448-2.234.445-1.763-.005-2.515-.107-3.654-.499-1.187-.408-2.293-.48-3.106-.204-1.381.471-3.533 2.375-4.24 3.753a19.13 19.13 0 0 1-.74 1.305c-.832 1.296-1.156 3.39-.762 4.92.108.421.222 1.1.253 1.508l.056.744-.86 1.079a30.765 30.765 0 0 0-1.287 1.726 7.777 7.777 0 0 1-.918 1.117c-.876.838-2.585 3.04-2.585 3.332 0 .063.105.088.233.054.128-.033.459.057.735.201.276.144.805.29 1.175.323.59.054.722.025 1.059-.231.88-.671 2.253-1.079 3.446-1.024.256.012.723-.069 1.036-.179 1.005-.352 2.112-.576 2.961-.598.497-.013.975-.099 1.2-.215.44-.228.684-.236 1.823-.063a6.37 6.37 0 0 1 1.682.536c.455.223 1.188.467 1.629.542.8.137.802.137 1.574-.27 1.377-.728 2.188-1.301 2.882-2.038l.906-.958c.431-.451.893-.847 1.147-.983.14-.075.36-.37.485-.655.314-.708.675-.915 1.72-.982.739-.047.925-.019 1.272.195.223.138.479.403.568.587.187.386.687.831 1.267 1.13.427.218 1.055.201 2.538-.07l.706-.129.594.571c.782.753 1.682 1.109 2.993 1.184.943.055 1.881.318 1.881.527 0 .164-.406.104-.703-.105-.17-.119-.456-.187-.71-.168-1.08.077-2.872-.602-3.702-1.403l-.47-.454-.941.168c-1.563.278-1.937.241-2.695-.268-.385-.26-.746-.615-.864-.853-.3-.599-.859-.847-1.762-.782-.902.064-1.276.295-1.574.97-.126.285-.346.577-.49.65-.383.198-.958.73-2.02 1.876-.848.914-1.643 1.466-3.225 2.237-.717.35-1.603.24-2.955-.37-.565-.254-1.15-.462-1.298-.462-.15 0-.577-.063-.95-.14-.623-.129-.724-.119-1.244.125-.435.203-.693.25-1.111.2-.539-.065-2.019.244-3.272.681-.318.112-.7.158-.956.117-.475-.076-1.932.22-2.499.506a6.091 6.091 0 0 0-.741.465c-.372.278-.991.345-1.798.194z" style="fill:#63ccc8;stroke-width:.117593" transform="translate(-391.51 -344.272)"/><path d="M487.818 394.251c-.418-.135-1.165-.497-.882-.428.13.031.447.138.705.236.653.248 1.424.237 1.805-.026.428-.297.606-.395.606-.337 0 .028-.201.19-.447.36-.466.323-1.158.398-1.787.195zm-1.704-.47c-.139-.225 2.4-3.562 2.836-3.73.097-.036.494-.54.884-1.12.389-.578.986-1.38 1.327-1.783l.62-.73-.085-.995c-.047-.546-.137-1.126-.202-1.287-.198-.5-.264-1.323-.16-2 .094-.612.1-.586.114.493.008.626.074 1.287.147 1.47.072.182.174.776.227 1.32l.095.99-.682.833a28.195 28.195 0 0 0-1.242 1.656 15.598 15.598 0 0 1-1.347 1.646c-.877.917-1.542 1.724-2.102 2.55-.435.641-.437.65-.167.72.186.05.186.056.007.068-.11.007-.23-.038-.27-.102zm4.408-.356c.227-.124.544-.222.706-.218.265.006.26.015-.059.092a3.092 3.092 0 0 0-.61.224c-.14.075-.3.135-.352.133-.053-.003.089-.107.315-.23zm1.154-.315c.085-.034.186-.03.226.009.039.039-.03.067-.155.062-.137-.006-.165-.034-.07-.071zm12.252-.035c.226-.049.517-.125.647-.171.154-.054.133-.02-.06.098-.16.099-.452.176-.646.17-.347-.008-.346-.01.059-.097zm-11.671-.085c.145-.028.383-.028.529 0 .145.028.026.05-.265.05-.29 0-.41-.022-.264-.05zm10.644 0a.676.676 0 0 1 .353.005c.08.032-.014.056-.208.054-.194-.002-.26-.029-.145-.059zm-8.867-.205c.218-.101.509-.178.647-.171.19.009.165.036-.102.108-.852.234-.936.243-.545.063zm7.424-.305c-.355-.192-.832-.354-1.058-.36-.387-.011-1.137-.19-.882-.21.48-.038 1.634.26 2.176.562.355.198.593.36.529.358-.065 0-.409-.159-.765-.35zm3.63.129c.152-.133.333-.242.401-.242.145 0 .138.006-.326.277l-.353.207zm-9.92-.117c.342-.14 1.322-.362 1.559-.353.228.01-.744.277-1.383.382-.27.044-.331.035-.177-.029zm2.821-.417c.324-.155.774-.28 1-.275l.412.008-.47.079c-.26.043-.651.168-.871.279-.22.11-.459.199-.53.196-.07-.002.136-.131.46-.287zm8.232-.09c.319-.21 1.23-1.028 2.027-1.816.797-.789 1.55-1.466 1.673-1.505a.451.451 0 0 0 .277-.272c.049-.186.054-.186.066.002.008.112-.132.28-.31.376-.34.182-1.073.864-2.14 1.99-.577.61-1.872 1.606-2.087 1.606-.046 0 .176-.172.494-.382zm17.021-.916c-.145-.058-.264-.16-.264-.227s-.146-.129-.324-.138c-.287-.014-.293-.022-.052-.068.15-.028.4.032.555.134.156.102.364.185.463.185.1 0 .181.053.181.118 0 .142-.2.14-.559-.004zm-2.263-.469c-.183-.06-.027-.071.411-.03.388.036.728.084.755.108.095.082-.876.018-1.166-.077zm-1.323-.476c-.243-.128-.441-.259-.441-.29 0-.053.929.38 1.048.49.136.122-.217.006-.607-.2zm-.975-.727c-.176-.21-.432-.416-.569-.458-.248-.076-.248-.077-.005-.088.224-.011.453.18.864.723.273.361.042.22-.29-.177zm-4.141-.588c-.4-.274-.729-.57-.73-.658-.003-.087-.184-.339-.404-.559-.22-.22-.358-.4-.306-.4.12 0 .823.799.823.935 0 .057.277.307.614.555.475.348.763.467 1.265.522l.65.07-.593.018c-.518.015-.682-.045-1.319-.483zm2.12.301a.676.676 0 0 1 .352.004c.08.032-.014.057-.208.054-.194-.002-.259-.029-.145-.058zm.762-.114a.454.454 0 0 1 .294 0c.08.033.014.06-.147.06-.162 0-.228-.027-.147-.06zm-7.142-.935c.008-.3.724-.874 1.078-.864.085.003-.008.076-.208.163-.2.087-.478.303-.618.481s-.253.277-.252.22zm1.38-.946a.454.454 0 0 1 .294 0c.08.032.014.059-.147.059-.162 0-.228-.027-.147-.06zm.646-.003a.965.965 0 0 1 .412 0c.113.03.02.053-.206.053-.226 0-.319-.024-.206-.053zm-20.835-5.89c-.013-.428.389-1.437.885-2.225.253-.4.642-1.051.865-1.447.691-1.223 2.48-2.826 3.81-3.415 1.067-.471 2.94-.38 3.803.185.152.1.814.22 1.589.288 2.128.189 2.702.16 3.46-.176 1.144-.506 1.908-.645 3.539-.645 1.924 0 3.83.19 4.967.496 1.44.386 1.39.39 2.474-.183 1.265-.669 2.134-.933 2.548-.776.322.123.375.097 1.025-.494a2.61 2.61 0 0 1 .824-.46c.266-.083.863-.274 1.327-.425.464-.151.94-.27 1.058-.263.118.007.03.066-.197.132-2.01.584-2.664.86-3.184 1.347-.371.347-.576.465-.66.38-.33-.33-1.248-.102-2.773.693l-1.031.538-1.027-.25c-1.852-.453-2.169-.49-4.73-.571-2.209-.07-2.303-.055-4.116.603-.85.308-.942.317-2.528.25-1.638-.07-2.245-.147-2.47-.312-.244-.18-1.108-.414-2.005-.544-.638-.092-1.833.224-2.631.696-1.068.632-2.712 2.348-3.291 3.435a81.02 81.02 0 0 1-.841 1.54c-.188.33-.418.885-.512 1.235-.094.35-.174.515-.178.368z" style="fill:#45c4bd;stroke-width:.117593" transform="translate(-391.51 -344.272)"/><path d="M488.406 394.32c0-.026.207-.067.46-.09.253-.025.435-.004.405.046-.056.09-.865.131-.865.044zm-.728-.152c.085-.034.186-.03.225.01.04.038-.03.066-.154.061-.137-.006-.165-.034-.071-.071zm1.786-.082c0-.024.093-.117.206-.205.186-.147.19-.142.044.044-.153.196-.25.258-.25.161zm-2.61-.27c.086-.035.187-.03.226.008.04.04-.03.067-.154.062-.137-.006-.165-.033-.071-.07zm-.8-.085c0-.113.698-1.129.775-1.129.033 0-.11.252-.318.559-.46.681-.457.677-.457.57zm4.468-.306a.706.706 0 0 1 .294-.114c.065 0 .038.052-.059.114a.706.706 0 0 1-.294.114c-.064 0-.038-.051.06-.114zm.566-.198c.085-.034.187-.03.226.01.039.038-.03.066-.155.061-.137-.006-.165-.033-.07-.07zm.588-.117c.085-.034.186-.03.226.009.039.039-.03.067-.155.062-.137-.006-.165-.034-.07-.071zm12.144.038c.027-.023.208-.078.402-.121.257-.058.305-.047.176.04-.159.108-.696.183-.578.08zm-11.502-.157a.676.676 0 0 1 .353.004c.08.032-.014.057-.208.054-.194-.002-.26-.029-.145-.058zm10.647.001c.085-.034.186-.03.225.01.04.038-.03.066-.154.06-.137-.005-.165-.033-.07-.07zm-9.172-.118c.085-.034.186-.03.225.01.04.039-.03.066-.154.061-.137-.006-.165-.033-.071-.07zm7.871-.28c-.242-.128-.44-.26-.44-.291 0-.053.928.382 1.048.49.135.122-.218.007-.608-.199zm-7.166.045c.085-.034.187-.03.226.01.039.038-.03.066-.155.061-.137-.006-.164-.033-.07-.071zm10.81-.17c.08-.08.174-.116.21-.08.037.037-.029.103-.145.147-.167.063-.18.05-.065-.066zm-18.431-.029c0-.024.093-.117.206-.206.186-.146.19-.142.044.045-.154.196-.25.258-.25.161zm8.562-.036c.085-.034.186-.03.226.01.039.038-.03.066-.155.061-.137-.006-.165-.034-.07-.071zm.94-.235c.086-.034.187-.03.226.009.04.04-.03.067-.154.062-.137-.006-.165-.034-.071-.071zm9.548.04c0-.028.139-.141.308-.252.17-.112.273-.144.229-.073-.084.135-.537.41-.537.324zm-7.879-.124c0-.025.082-.077.183-.116.104-.04.152-.02.11.046-.069.112-.293.166-.293.07zm2.146-.034a.965.965 0 0 1 .412 0c.113.03.02.053-.206.053-.226 0-.319-.024-.206-.053zm-12.624-.448c.567-.736.986-1.2.85-.941-.068.13-.37.5-.668.823-.427.46-.466.486-.182.118zm11.985.33c.085-.033.186-.029.225.01.04.039-.03.067-.154.062-.137-.006-.165-.034-.071-.071zm-.94-.117c.084-.034.185-.03.225.01.039.038-.03.066-.155.061-.137-.006-.165-.033-.07-.071zm.47 0c.084-.034.186-.03.225.01.039.038-.03.066-.154.061-.137-.006-.165-.033-.071-.071zm8.748-1.214c1.196-1.24 2.05-1.998 2.246-1.998.077 0-.027.102-.23.227-.204.124-.942.812-1.641 1.528-.7.716-1.3 1.303-1.335 1.303-.035 0 .397-.476.96-1.06zm15.41.468c-.146-.059-.265-.161-.265-.228s-.146-.129-.324-.137c-.287-.015-.293-.022-.052-.068.15-.029.4.031.555.133.156.102.364.186.463.186.1 0 .181.053.181.117 0 .142-.2.14-.559-.004zm-1.823-.427a.454.454 0 0 1 .294 0c.08.032.014.06-.147.06-.162 0-.228-.028-.147-.06zm-.58-.12c.084-.034.185-.03.225.009.039.039-.03.067-.155.062-.137-.006-.165-.034-.07-.071zm-31.765-.514c.188-.23.462-.614.61-.853.148-.239.294-.434.324-.434.12 0-.391.757-.822 1.219-.334.357-.363.375-.112.068zm30.905.243c-.041-.067.006-.087.11-.047.204.079.242.163.073.163-.061 0-.143-.052-.183-.116zm-.596-.302c-.215-.173-.211-.175.066-.043.36.171.427.226.277.226-.063 0-.217-.083-.343-.183zm-.703-.552c-.176-.21-.432-.417-.569-.459-.248-.076-.248-.076-.005-.088.224-.01.453.18.864.723.273.361.042.22-.29-.176zm-3.522-.205c-.041-.066.006-.086.11-.046.204.078.241.163.072.163-.06 0-.143-.053-.182-.117zm.558.035a.965.965 0 0 1 .411 0c.113.03.02.054-.206.054-.226 0-.319-.024-.205-.054zm.881-.114a.454.454 0 0 1 .294 0c.081.033.015.06-.147.06-.161 0-.227-.027-.147-.06zm-2.246-.457c-.3-.229-.546-.463-.546-.52 0-.057-.139-.279-.308-.494-.29-.37-.286-.368.055.02.199.227.456.518.572.648.115.13.369.353.563.496.194.143.32.262.281.264-.04.002-.317-.184-.617-.414zm3.195.337c.084-.034.186-.03.225.009.039.04-.03.067-.154.062-.137-.006-.165-.034-.071-.071zm-27.262-.74c.136-.191.308-.386.382-.43.073-.046-.015.11-.196.348-.393.516-.541.581-.186.083zm19.993-.204c0-.067.092-.195.206-.284.19-.15.192-.144.033.074-.095.129-.188.257-.206.284-.018.027-.033-.006-.033-.074zm-19.023-.975c.289-.355.555-.726.592-.823.06-.157.069-.157.076 0 .004.097-.262.468-.592.823l-.6.647zm20.412.038c.085-.034.186-.03.225.009.04.039-.03.066-.154.061-.137-.006-.165-.033-.071-.07zm.698.002a.454.454 0 0 1 .294 0c.08.032.015.059-.147.059-.162 0-.228-.027-.147-.06zm-20.678-1.863c-.039-.453-.106-.929-.149-1.058-.043-.13.004-.058.105.16.117.25.171.636.149 1.058l-.035.663zm-.37-1.97a5.589 5.589 0 0 1 .027-1.146c.077-.583.088-.534.103.5.017 1.22-.031 1.464-.13.647zm.165-2.087c0-.161.026-.228.059-.147a.454.454 0 0 1 0 .294c-.033.081-.06.015-.06-.147zm.113-.47c-.002-.097.069-.335.158-.53.208-.453.21-.242.004.295-.087.226-.16.332-.162.235zm.591-1.418c.148-.262.34-.537.428-.61.088-.072-.011.143-.22.478-.449.723-.59.812-.208.132zm.574-.875c0-.065.051-.197.114-.294.063-.097.114-.124.114-.059a.706.706 0 0 1-.114.294c-.063.097-.114.124-.114.059zm.448-.912c.356-.566 1.066-1.386 1.603-1.848.26-.225.1-.013-.356.47-.456.483-.95 1.077-1.097 1.32-.147.242-.295.44-.329.44-.033 0 .048-.171.18-.382zm2.312-2.44c.117-.129.24-.235.272-.235.032 0-.037.106-.154.235-.117.13-.24.236-.272.236-.032 0 .037-.106.154-.236zm6.644-.354c-.291-.04.35-.069 1.427-.065 1.075.004 1.895.048 1.822.097-.15.1-2.44.078-3.249-.032zm12.963-.12c-.375-.15-1.979-.467-2.93-.577-.603-.07-.682-.097-.318-.109.601-.02 2.381.28 3.14.529.312.102.694.161.85.131.154-.03.253-.009.22.047-.08.129-.618.117-.962-.021zm-18.843-.06c0-.086.955-.54 1.055-.501.054.02-.162.152-.479.293-.316.141-.576.235-.576.208zm4.91-.014a.454.454 0 0 1 .294 0c.08.033.014.06-.147.06-.162 0-.228-.027-.147-.06zm-.912-.291a8.668 8.668 0 0 0-1.41-.324c-.558-.073-.644-.104-.318-.115.577-.02 1.99.302 2.273.517.267.201.263.2-.545-.079zm6.084.014c.273-.122.697-.253.94-.293.301-.048.18.024-.38.225-.965.347-1.271.384-.56.068zm10.144.07c0-.033.106-.116.235-.185.13-.07.236-.1.236-.067 0 .032-.106.115-.236.184-.129.07-.235.1-.235.067zm-18.844-.38a.454.454 0 0 1 .294 0c.08.032.015.058-.147.058-.162 0-.228-.026-.147-.059zm10.995-.128a25.176 25.176 0 0 1 1.823 0c.5.022.09.04-.912.04s-1.412-.018-.911-.04zm9.084-.149c.259-.119.63-.248.823-.288.194-.04.01.062-.411.224-.888.344-1.089.376-.412.064zm1.646-.2a.911.911 0 0 1-.342-.159c-.06-.056.084-.049.318.016.4.11.454.091.872-.309.455-.435.74-.589 1.304-.703.175-.035.057.042-.262.172a3.74 3.74 0 0 0-1.004.652c-.234.228-.476.409-.538.401a4.414 4.414 0 0 1-.348-.07zm2.822-1.39c.195-.09.433-.16.53-.158.097.002-.01.075-.236.162-.536.207-.748.203-.294-.004zm.941-.29c.13-.056.341-.1.47-.098.19.003.178.022-.058.098-.402.129-.711.129-.412 0z" style="fill:#3ac1bb;stroke-width:.117593" transform="translate(-391.51 -344.272)"/><path d="M488.406 394.32c0-.026.207-.067.46-.09.253-.025.435-.004.405.046-.056.09-.865.131-.865.044zm3.27-1.21c.085-.034.186-.03.226.009.039.039-.03.067-.155.062-.137-.006-.165-.034-.07-.071zm12.23 0c.085-.034.186-.03.225.009.04.039-.03.067-.154.062-.137-.006-.165-.034-.071-.071zm-11.642-.118c.085-.034.186-.03.226.01.039.038-.03.066-.155.061-.137-.006-.165-.033-.07-.071zm-5.387-.552c0-.024.093-.117.206-.206.186-.146.19-.142.044.045-.154.196-.25.258-.25.161zm8.562-.036c.085-.034.186-.03.226.01.039.038-.03.066-.155.061-.137-.006-.165-.033-.07-.071zm4.814-.35a.454.454 0 0 1 .294 0c.08.033.015.06-.147.06-.162 0-.228-.027-.147-.06zm-.698-.12c.085-.034.186-.03.225.009.04.04-.03.067-.154.062-.137-.006-.165-.034-.071-.071zm-.47-.118c.084-.034.186-.03.225.01.039.038-.03.066-.154.061-.137-.006-.165-.033-.071-.07zm8.312-.742c.252-.26.486-.47.518-.47.032 0-.148.21-.4.47-.253.258-.486.47-.519.47-.032 0 .148-.212.4-.47zm-19.462.058c.152-.161.303-.294.335-.294.033 0-.065.133-.217.294-.152.162-.303.294-.335.294-.032 0 .065-.132.217-.294zm35.454-.023a.735.735 0 0 1-.352-.203.83.83 0 0 0-.294-.216c-.145-.056-.142-.07.02-.078.11-.005.277.07.374.167a.686.686 0 0 0 .42.177c.134 0 .244.053.244.117 0 .123-.027.126-.412.036zm-1.962-.469c.085-.034.186-.03.225.01.04.039-.03.066-.154.061-.137-.006-.165-.033-.07-.07zm-1.447-.388c-.041-.067.006-.087.11-.046.204.078.242.162.073.162-.061 0-.143-.052-.183-.116zm-30.986-.164c0-.024.092-.117.205-.205.187-.147.191-.143.045.044-.154.196-.25.258-.25.161zm30.516-.071c-.041-.067.006-.087.11-.047.204.079.241.163.072.163-.06 0-.143-.052-.182-.116zm-10.82-.355c.117-.129.24-.235.272-.235.032 0-.037.106-.154.235-.117.13-.24.236-.272.236-.032 0 .037-.106.154-.236zm9.988-.294c-.173-.226-.4-.415-.506-.42-.128-.006-.142-.03-.04-.07.178-.072.418.11.744.568.34.478.176.414-.198-.077zm-9.34-.235c.151-.161.302-.294.334-.294.032 0-.065.133-.217.294-.152.162-.303.294-.335.294-.033 0 .065-.132.217-.294zm6.437.099a.454.454 0 0 1 .294 0c.081.032.015.06-.147.06-.161 0-.228-.028-.147-.06zm.948-.12c.085-.034.187-.03.226.009.039.039-.03.067-.155.062-.137-.006-.164-.034-.07-.071zm-26.671-.552c0-.025.093-.117.206-.206.186-.146.19-.142.044.044-.154.196-.25.258-.25.162zm23.392-.985-.285-.323.323.285c.178.157.324.302.324.323 0 .092-.096.017-.362-.285zm-22.51-.147c.117-.13.24-.235.272-.235.032 0-.037.106-.155.235-.117.13-.239.235-.271.235-.032 0 .037-.105.154-.235zm.529-.632c0-.025.093-.117.206-.206.186-.146.19-.142.044.044-.153.196-.25.259-.25.162zm.265-1.308c0-.259.025-.35.053-.205.028.147.027.358-.002.47-.029.113-.052-.006-.05-.265zm-.36-2c.002-.193.03-.258.059-.144a.676.676 0 0 1-.004.353c-.032.08-.057-.014-.054-.208zm.007-1.41c.001-.259.026-.351.054-.205.028.147.027.358-.002.47-.03.113-.053-.006-.051-.265zm.215-1.421c.006-.137.034-.165.071-.071.034.085.03.186-.009.225-.039.04-.067-.03-.062-.154zm.814-1.695c.138-.195.278-.353.31-.353.032 0-.054.158-.192.353-.139.194-.278.352-.31.352-.033 0 .054-.158.192-.352zm1.176-2.036c0-.02.172-.193.382-.383l.382-.345-.345.382c-.322.356-.419.436-.419.346zm1.176-1.198c.152-.162.303-.294.335-.294.032 0-.066.132-.217.294-.152.161-.303.294-.335.294-.033 0 .065-.133.217-.294zm.588-.456c0-.025.092-.117.206-.206.186-.146.19-.142.044.044-.154.196-.25.259-.25.162zm6.879-.544-.588-.08.552-.019c.303-.01.584.034.624.1.04.064.056.108.036.098a8.34 8.34 0 0 0-.624-.099zm1.323.031c.34-.024.895-.024 1.235 0 .34.024.061.043-.618.043s-.957-.02-.617-.043zm12.002-.111c.085-.034.186-.03.225.009.04.039-.03.067-.154.062-.137-.006-.165-.034-.071-.071zm-14.347-.118c.085-.034.187-.03.226.01.039.038-.03.066-.154.061-.137-.006-.165-.033-.071-.071zm13.876 0c.085-.034.187-.03.226.01.039.038-.03.066-.155.061-.137-.006-.164-.033-.07-.071zm-14.654-.241c-.278-.097-.48-.2-.449-.232.08-.08.878.193.96.327.038.06.052.102.032.094l-.543-.19zm5.811.033c.201-.093.519-.2.706-.236.29-.057.28-.044-.072.094a7.361 7.361 0 0 1-.706.236c-.22.056-.203.033.072-.094zm7.572-.064c-.233-.075-.245-.094-.059-.094.13 0 .368.042.53.094.232.074.244.094.058.094-.13 0-.367-.042-.53-.094zm-16.816-.118a.726.726 0 0 1 .353-.107c.116.004.096.04-.059.107-.323.14-.509.14-.294 0zm15.963-.078a.454.454 0 0 1 .294 0c.081.033.015.06-.147.06-.161 0-.227-.027-.147-.06zm-15.162-.12c.085-.034.187-.03.226.01.039.038-.03.066-.155.061-.137-.006-.165-.033-.07-.071zm1.583 0a.676.676 0 0 1 .352.003c.08.032-.014.057-.208.054-.194-.002-.259-.028-.144-.058zm12.405-.003c.146-.028.358-.027.47.002.113.03-.007.053-.266.051-.258 0-.35-.025-.204-.053zm-13.407-.117c.145-.028.384-.028.53 0 .145.028.026.05-.266.05-.29 0-.41-.022-.264-.05zm10.348-.004a21.737 21.737 0 0 1 1.705 0c.469.022.085.04-.852.04-.938 0-1.322-.018-.853-.04zm9.496-.329c.194-.088.432-.16.529-.158.097.002-.01.075-.235.163-.537.206-.749.203-.294-.004zm1.499-.018c.113-.03.206-.102.206-.162 0-.06.06-.11.132-.11.09 0 .086.055-.015.177-.08.097-.232.17-.337.163-.162-.012-.16-.022.014-.068zm-.67-.143c-.036-.058.04-.079.17-.045.275.072.31.152.066.152-.093 0-.2-.048-.235-.107zm1.12-.277c.028-.016.182-.136.344-.264l.294-.234-.224.264c-.124.146-.278.265-.343.265-.066 0-.097-.014-.07-.03zm.814-.557a.706.706 0 0 1 .294-.114c.065 0 .038.051-.059.114a.706.706 0 0 1-.294.114c-.064 0-.038-.051.06-.114zm1.058-.333c.097-.06.31-.144.47-.187.205-.055.24-.046.118.03-.097.06-.308.144-.47.187-.204.055-.24.046-.118-.03zm1.037-.335c.085-.034.186-.03.225.009.04.039-.03.067-.154.062-.137-.006-.165-.034-.071-.071zm.47-.118c.085-.034.186-.03.225.01.04.038-.03.066-.154.061-.137-.006-.165-.033-.07-.071z" style="fill:#22b9b4;stroke-width:.117593" transform="translate(-391.51 -344.272)"/></svg>