<svg xmlns="http://www.w3.org/2000/svg" xml:space="preserve" viewBox="0 0 132.314 123.119"><path d="M385.558 265.55v-61.56h132.291v123.12H385.558z" style="fill:none;stroke-width:.117593" transform="translate(-385.535 -203.99)"/><path d="M404.276 325.337c-.783-.154-1.712-.625-2.299-1.166l-.53-.49-.447.303c-.245.167-.53.303-.633.303-.103 0-.507.13-.898.289-.794.323-1.314.304-2.045-.075-.233-.12-1.185-.447-2.117-.727-.932-.28-2.078-.678-2.548-.885-.962-.423-1.248-.458-2.086-.258-.323.078-1.144.186-1.823.241-.679.055-1.374.154-1.545.22-.171.067-.411.095-.534.063-.136-.036-.397.08-.675.302-.25.198-.472.36-.496.36-.023 0-.042-4.234-.042-9.408v-9.407h.258c.142 0 .465.143.718.318.4.278.6.325 1.541.366 1.064.047 1.085.053 1.234.39.17.383.67.69 1.123.69.257 0 .3.052.3.363 0 .276.127.487.529.878.478.465.53.567.53 1.064 0 .579.401 2.107.583 2.22.058.036.078.242.042.458-.051.32 0 .465.275.772.308.345.4.379 1.041.383.387.003.856.083 1.043.178.279.143.427.149.839.033.998-.28 2.719.38 4.489 1.72.271.205.56.396.64.423.106.035.07.159-.121.428-.149.209-.307.517-.352.686l-.082.306-1.761-.024c-1.704-.024-1.77-.016-2.015.247-.361.387-.442.827-.227 1.243.33.636.745.734 3.39.796 1.313.03 2.546.087 2.74.124.572.11 2.024.61 2.317.797.304.194 1.422.672 2.563 1.095.825.306 3.343.862 3.904.862.535 0 .8.195.8.592 0 .192-.044.348-.098.348-.053 0-.331.155-.617.344-.286.19-.785.41-1.108.49-.749.186-1.435.615-1.686 1.053-.2.351-.43.478-1.254.694-.549.143-2.128.142-2.86-.002zm-18.277-24.005-.441-.456V206.791l.264-.231c.717-.626 2.23-.786 3.734-.395.796.207 1.141.19 2.23-.114.9-.251 2.246-.228 3.238.055.452.13 1.094.236 1.426.236.77 0 1.983.451 2.986 1.11.892.587.977.68 1.168 1.272.078.243.244.496.368.563.442.236.869 1.754.978 3.477.07 1.083.121 1.254.503 1.666.153.166.311.438.35.604.04.167.164.41.278.539.504.575.634 1.032.682 2.392.054 1.528-.08 2.37-.59 3.722-.624 1.65-.798 2.046-1.205 2.736-.366.62-.384.691-.214.88.102.114.238.206.301.206.064 0 .553.294 1.087.654.68.457 1.018.766 1.123 1.028.084.207.3.532.482.722.182.19.331.388.331.44 0 .053.221.096.492.096.745 0 1.464.396 1.63.897.077.234.256.467.415.54.5.227.749 1.64.47 2.665l-.172.633.405.53c.516.676.682 1.261.692 2.437.008.992-.223 2.51-.41 2.7a.486.486 0 0 0-.112.299c0 .103-.313.696-.695 1.316l-.695 1.13.695.253c.382.14.695.301.695.36 0 .058.287.39.638.739.477.473.806.686 1.301.841.494.156.727.306.912.588.136.208.4.465.586.572.703.403.963 1.532.778 3.373-.083.834-.193 1.167-.562 1.705-.132.194-.241.415-.242.491 0 .077.287.27.638.431.419.192.7.411.817.638.098.19.319.437.49.55.462.303.795 1.158.802 2.065.013 1.79-.298 2.965-1.017 3.834-.154.187-.663.907-1.13 1.6-.944 1.402-1.62 2.12-3.011 3.196-1.467 1.136-4.203 2.77-4.925 2.943-.334.08-.338.09-.266.706.08.672-.051 1.213-.42 1.743-.272.39-.217.505.287.606.333.066.44.022.796-.332.871-.865 1.156-1.126 1.228-1.126.042 0 .219-.098.394-.219.853-.585 2.07-1.227 2.517-1.328 1.256-.282 3.215-.082 3.995.408.15.094.462.205.69.245.618.108 2.537 1.294 3.191 1.974.782.81 1.7 2.33 1.796 2.974.09.606.596 1.126 1.32 1.358.56.179.888.472 1.411 1.257.49.735.666 1.578.695 3.327.017 1.008.066 1.32.27 1.7.138.256.25.663.25.905 0 .24.047.467.104.503.058.035.14.207.184.38.044.175.309.518.588.764.363.32.532.574.591.89.14.749.392 1.057.932 1.141.618.097 1.606.377 2.4.68.516.197.774.225 1.47.16.89-.085 2.18-.387 2.368-.556.167-.149.506-.121.88.072.183.095.511.202.73.238.468.078.924.546.924.95 0 .157.053.287.118.287s.117.153.117.34c0 .275-.086.386-.44.572-.243.128-.647.348-.899.49-.772.436-1.942.834-3.54 1.206-1.226.285-1.95.375-3.646.452-1.164.054-2.32.15-2.57.214-.474.122-1.017.545-1.017.793 0 .176-.936.4-2.028.487-.437.035-.794.112-.794.171 0 .06.199.186.441.281.243.095.538.228.657.295.118.067.644.121 1.168.12.8-.002 1.078.053 1.744.346.436.19.903.347 1.039.347.135 0 .338.049.45.108.113.06.495.191.851.293.574.164.966.238 2.587.49.837.129.984.189 1.308.536.454.486 1.033.547 4.72.493 2.62-.038 3.078-.018 3.397.147.362.187.429.187 1.923-.013.13-.017.667-.12 1.195-.228a7.77 7.77 0 0 1 2-.143c.978.051 2.117.221 2.19.327.019.027.134.243.256.48.286.554.233.62-1.19 1.47l-1.095.653-1.208-.178c-1.186-.175-1.234-.173-2.721.125-1.313.262-1.583.284-2.037.163-.32-.086-1.984-.167-4.307-.21-3.228-.061-3.945-.043-4.882.124-.975.174-1.166.176-1.705.026-.996-.279-1.504-.36-2.371-.38-2.413-.058-4.408-.2-4.859-.346-.279-.09-.659-.134-.844-.097-.235.047-.578-.044-1.139-.3-.795-.364-.819-.367-2.977-.396-1.97-.026-2.22-.053-2.646-.282-.26-.14-.565-.431-.682-.652-.125-.236-.52-.6-.97-.893-.417-.273-.759-.547-.759-.61 0-.064-.317-.275-.704-.471a17.156 17.156 0 0 1-1.492-.884c-.805-.54-1.311-.659-1.554-.366-.074.088-.314.19-.535.226-.22.036-.727.277-1.126.536-.398.258-.923.504-1.168.545-.327.055-.611.243-1.077.71-.898.9-2.846 1.865-4.285 2.122-1.18.21-2.538.159-3.352-.129-.273-.096-.754-.36-1.07-.586l-.572-.412-.47.296c-.258.163-.469.335-.469.383 0 .048-.107.746-.239 1.551-.394 2.418-.898 4.239-1.173 4.239-.05 0-.265.27-.476.6-.534.83-1.057 1.148-1.875 1.135-.59-.009-.684-.049-1.087-.466zm25.262-2.076c-.05-.082-.06-.181-.021-.22.105-.105.22.05.163.22-.04.12-.067.12-.142 0z" style="fill:#fcfded;stroke-width:.117593" transform="translate(-385.535 -203.99)"/><path d="M404.666 325.389c-.524-.082-1.488-.407-1.822-.616-.162-.101-.562-.408-.89-.683l-.595-.5-.256.256c-.34.34-1.681.806-2.52.876-.533.044-.757.007-1.059-.175-.371-.223-1.101-.475-3.323-1.143-.582-.175-1.27-.427-1.529-.56-.757-.386-1.206-.444-1.933-.246-.36.098-1.21.224-1.889.281-2.144.18-2.547.268-2.938.642-.265.254-.354.292-.354.15 0-.297.688-.716 1.345-.819a36.735 36.735 0 0 1 1.888-.204c.712-.06 1.573-.195 1.913-.299.742-.226 1.214-.162 2.233.302.404.184 1.198.473 1.763.642.566.169 1.48.467 2.029.663 1.432.51 1.792.528 2.892.147.511-.178 1.098-.447 1.304-.599.206-.151.392-.275.414-.275.021 0 .329.266.684.592 1.158 1.063 2.44 1.49 4.113 1.37 1.178-.086 1.88-.348 2.176-.816.284-.448.798-.762 1.591-.97.684-.181 1.76-.832 1.76-1.065 0-.092-.187-.191-.44-.235-2.965-.513-4.705-1.028-6.45-1.91-.835-.42-1.905-.792-2.576-.893-.259-.04-1.496-.096-2.75-.127-2.674-.065-3.117-.192-3.48-.998-.256-.567-.173-.97.295-1.437l.343-.344 1.709.036c1.509.031 1.708.013 1.708-.155 0-.104.111-.332.248-.506s.23-.33.206-.346c-.024-.017-.281-.22-.572-.451-.656-.52-2.387-1.45-2.94-1.58-.226-.052-.888-.104-1.47-.114l-1.55-.027c-1.033-.02-1.822-.677-1.787-1.49.008-.194-.077-.564-.19-.823-.114-.258-.255-.893-.313-1.41-.1-.892-.131-.964-.573-1.37-.273-.25-.498-.579-.54-.793-.06-.295-.132-.366-.373-.366-.2 0-.463-.17-.79-.511-.487-.509-.495-.512-1.479-.575-.552-.035-1.145-.145-1.342-.248a3.104 3.104 0 0 0-.676-.251c-.178-.036-.323-.133-.323-.215 0-.263.515-.199.98.123.386.267.604.32 1.504.362 1.014.049 1.059.063 1.224.382.232.449.617.698 1.08.698.351 0 .386.032.386.358 0 .267.135.496.529.895.487.495.53.585.532 1.141.002.345.131.958.301 1.428.164.452.294.97.289 1.148-.022.8.557 1.262 1.583 1.262.271 0 .655.057.853.125.254.09.495.089.828 0 .338-.092.647-.09 1.1.003.677.14 2.633 1.125 3.227 1.624.2.169.465.367.588.441.19.115.201.168.073.353-.083.12-.237.417-.341.66l-.19.44h-1.747c-1.581 0-1.768.022-1.978.232-.345.346-.417.79-.2 1.245.314.657.673.761 2.817.815 3.458.086 4.122.213 6.14 1.173 1.885.896 2.984 1.242 5.057 1.592 1.5.253 1.7.337 1.704.718.002.257-1.196.972-2.027 1.21-.69.199-1.433.736-1.558 1.127-.04.127-.302.3-.623.411-.552.193-2.356.325-3.023.222zm-17.508-23.647c-.046-.046-.26-.07-.475-.05-.328.027-.448-.038-.758-.413-.508-.617-.468-.93.046-.348.354.402.447.447.776.382.207-.042.44-.02.524.05.109.09.282.058.63-.12.263-.134.479-.292.479-.352 0-.059.263-.434.584-.834.373-.466.652-.963.774-1.383.235-.808.6-2.703.712-3.693.077-.684.124-.776.624-1.237.297-.275.62-.5.717-.5.097 0 .32.15.494.335 1.255 1.33 4.078 1.386 6.62.13.731-.36 1.453-.828 1.91-1.238.429-.384.92-.708 1.176-.776.243-.065.785-.322 1.206-.571.42-.25.923-.49 1.117-.536.194-.045.444-.161.556-.258.327-.285 1.093-.113 1.846.415.36.253 1.012.658 1.449.9.436.243.794.484.794.536 0 .052.333.319.74.593.408.274.857.676.999.892.466.71.777.793 3.14.831 2.326.038 2.543.067 3.01.4.214.152.515.227.911.227.326 0 .74.06.923.134.301.123 2.984.328 5.035.385.698.02 2.542.344 2.775.488.04.025.57-.038 1.177-.14.916-.152 1.753-.172 4.909-.112 2.093.039 4.03.128 4.307.198.395.099.711.084 1.487-.072 1.787-.36 2.036-.384 2.748-.279l1.176.175c.417.061.588 0 1.508-.542.57-.336 1.068-.692 1.106-.79.13-.342-.272-.79-.813-.906-.718-.153-3.133-.138-3.624.023-.226.075-.623.16-.881.19-.26.03-.738.09-1.064.134-.406.054-.72.027-1-.088-.327-.134-1.046-.158-3.699-.123-3.545.046-4.168-.024-4.483-.504-.226-.345-.585-.47-1.867-.645a17.814 17.814 0 0 1-2.057-.432 29.107 29.107 0 0 0-1.481-.389 3.667 3.667 0 0 1-.882-.33c-.288-.164-.729-.248-1.57-.299-.642-.039-1.221-.124-1.287-.19-.065-.066-.23-.12-.366-.12-.225 0-1.117-.778-1.117-.974 0-.046.304-.086.676-.088a9.866 9.866 0 0 0 1.49-.162c.642-.124.862-.223 1.04-.468.125-.17.336-.369.47-.44.484-.26 1.815-.453 3.2-.466 1.396-.013 1.777-.056 3.433-.39 1.633-.33 3.255-.938 4.355-1.634.484-.306.49-.318.324-.637-.094-.18-.17-.41-.17-.514-.002-.246-.416-.616-.612-.546-.085.03-.41-.074-.722-.23-.434-.217-.605-.253-.728-.151-.254.21-1.265.44-2.33.529-.915.076-1.066.054-2.324-.343-.74-.233-1.59-.423-1.886-.423-.5 0-.564-.036-.85-.468-.17-.258-.31-.613-.31-.789 0-.21-.148-.472-.43-.762-.488-.5-.733-1.057-.85-1.938a2.698 2.698 0 0 0-.395-1.058c-.287-.416-.303-.497-.191-.983.118-.51.096-.973-.11-2.351-.175-1.184-.862-2.14-1.847-2.576-.934-.413-1.325-.811-1.411-1.435-.096-.7-.746-1.818-1.586-2.731-.754-.82-2.309-1.874-3.062-2.077a5.03 5.03 0 0 1-.842-.31c-1.43-.756-3.846-.702-5.055.114-.214.144-.734.455-1.154.69-.42.236-.831.539-.912.673-.082.134-.214.242-.294.241-.08 0-.34.223-.576.498l-.43.5-.57-.152c-.313-.084-.615-.198-.672-.253-.057-.057.058-.38.265-.743.314-.548.367-.759.367-1.456 0-.83.115-1.096.476-1.096.35 0 2.373-1.15 4.33-2.458 1.098-.735 2.558-2.202 3.27-3.285.368-.56.88-1.284 1.136-1.607.637-.804.85-1.334 1.078-2.683.194-1.15.137-1.93-.188-2.562-.246-.48-1.504-1.637-2.019-1.857-.307-.132-.557-.292-.557-.357s.18-.45.401-.857c.349-.64.413-.89.484-1.878.094-1.296-.06-2.183-.437-2.524-.132-.12-.46-.442-.731-.717a3.092 3.092 0 0 0-1.099-.714c-.334-.117-.749-.356-.922-.529-.174-.173-.36-.315-.414-.315-.054 0-.183-.163-.286-.362-.207-.4-.838-.73-1.426-.746-.205-.005-.405-.042-.445-.082-.04-.04.203-.516.539-1.058.924-1.49 1.13-1.975 1.402-3.3.362-1.756.191-2.868-.59-3.854-.322-.407-.37-.543-.3-.862.047-.208.11-.785.14-1.283l.056-.904-.464-.507c-.255-.278-.501-.626-.546-.773-.106-.341-.871-.733-1.432-.733-.364 0-.502-.08-.857-.492-.233-.27-.484-.636-.56-.812-.154-.362-1.17-1.152-2.05-1.594-.326-.163-.62-.372-.655-.463-.035-.092.253-.815.64-1.607.388-.793.881-1.943 1.097-2.558.372-1.058.393-1.203.396-2.763.003-1.626 0-1.654-.35-2.222a74.143 74.143 0 0 1-.646-1.078c-.162-.276-.393-.64-.514-.807-.16-.223-.245-.63-.313-1.51-.144-1.872-.415-2.877-.88-3.263-.106-.088-.323-.417-.483-.732a2.727 2.727 0 0 0-.822-.947c-.76-.536-2.257-1.125-3.06-1.205a8.52 8.52 0 0 1-1.336-.263c-.942-.283-2.798-.252-3.657.061-.498.182-.77.217-1.117.146-1.597-.326-1.953-.37-2.7-.332-.697.035-.926.103-1.412.42-.596.388-.877.326-.385-.085.557-.465 1.184-.617 2.293-.556.572.031 1.391.126 1.82.21.697.136.851.13 1.412-.056.965-.321 2.47-.377 3.393-.126.42.115 1.188.248 1.705.296 1.058.1 2.005.476 3.2 1.274.599.4.756.574.875.968.079.265.262.559.406.653.472.31.986 2.096.988 3.429 0 .727.185 1.55.347 1.55.056 0 .23.257.386.572.157.314.406.741.554.95.415.582.594 1.352.594 2.56 0 1.228-.24 2.473-.663 3.43-.153.347-.278.704-.278.793 0 .09-.283.71-.63 1.378-.522 1.01-.604 1.25-.486 1.411.078.107.223.195.32.195.099 0 .245.08.325.177.081.097.197.176.259.176.226 0 1.524 1.093 1.63 1.373.061.16.283.497.493.75.334.402.445.46.884.462.621.003 1.344.431 1.545.916.079.19.293.457.477.593.237.175.36.393.419.747.114.673.09 1.413-.063 1.981-.12.444-.104.5.282 1.005.278.364.468.795.593 1.345.235 1.035.23 1.35-.043 2.673-.256 1.24-.562 1.965-1.34 3.177-.438.682-.507.853-.343.855.595.005 1.557.558 1.557.895 0 .085.158.236.35.336.192.1.4.275.462.39.061.117.384.285.715.375.332.09.706.273.83.406.364.386.856.868 1.134 1.11.745.65.728 3.286-.03 4.668l-.393.716.65.27c.49.203.697.365.835.654.101.212.309.443.462.512.652.297 1.142 1.961.882 2.995a4.803 4.803 0 0 0-.135.955c0 .593-.256 1.143-1.043 2.233-.375.52-.949 1.343-1.274 1.83-.615.917-1.618 1.93-2.81 2.837-1.32 1.004-4.083 2.613-4.913 2.861-.192.057-.213.146-.154.642.08.684-.054 1.239-.44 1.808l-.283.417.36.126c.445.155.797.162.797.017 0-.165 1.68-1.565 2.194-1.827.249-.127.667-.374.93-.549 1.103-.735 3.276-.951 4.526-.45.352.14.997.379 1.434.529.436.15.956.389 1.156.53.2.143.57.372.824.509 1.14.617 2.674 2.625 2.96 3.878.163.708.361.91 1.344 1.367.593.276.826.474 1.26 1.07.383.526.55.882.598 1.272.037.298.118.704.181.903.145.457.149 1.71.006 2.085-.086.227-.049.37.185.698.16.227.338.697.394 1.044.121.757.374 1.515.505 1.515.052 0 .277.177.5.394.286.277.406.499.406.748 0 .195.106.49.236.654.129.164.235.356.235.427 0 .07.197.129.437.129.414 0 1.461.27 2.604.672.384.135.74.16 1.412.102.95-.084 2.214-.386 2.318-.556.094-.15.42-.121.789.072.18.094.52.207.753.25.522.099.859.372.859.698 0 .135.078.348.173.474.394.522.259.686-1.143 1.387-2.194 1.096-4.248 1.584-7.031 1.672-2.3.072-3.109.253-3.592.806-.306.349-.499.443-1.213.594-.468.098-1.098.18-1.401.182l-.55.004.329.29c.181.16.449.29.594.29.145 0 .315.052.378.115.063.062.6.14 1.195.172.845.045 1.208.123 1.669.356.324.164.773.298.997.298.225 0 .436.044.468.097.052.083 1.047.339 2.867.735.276.06.662.11.858.11.445 0 1.004.28 1.168.586.068.127.294.279.503.337.209.059 1.904.092 3.767.075 3.137-.028 3.421-.014 3.855.196.257.124.526.19.598.145.072-.045.507-.125.966-.179.46-.053 1.18-.177 1.6-.274.866-.2 2.771-.242 2.882-.064.04.065.277.118.528.118.371 0 .501.065.706.353.468.656.32.907-.994 1.685l-1.17.693-1.24-.205-1.24-.204-1.394.315c-1.178.266-1.486.297-1.999.198-1.467-.283-7.96-.344-9.33-.089-.826.155-1.052.158-1.587.022-1.394-.354-1.869-.433-2.19-.362-.186.04-.677.021-1.091-.043-.415-.065-1.363-.128-2.106-.14-.744-.011-1.564-.09-1.823-.173a3.736 3.736 0 0 0-1.017-.142c-.394.008-.696-.078-1.085-.306-.529-.31-.587-.317-2.747-.343-2.495-.03-2.908-.14-3.418-.905-.15-.226-.614-.643-1.03-.927-.417-.284-.757-.56-.757-.613 0-.053-.357-.292-.794-.532a13.68 13.68 0 0 1-1.168-.711c-.206-.152-.424-.276-.485-.276-.062 0-.177-.079-.258-.176-.08-.097-.321-.176-.535-.176-.214 0-.468.079-.565.176a.694.694 0 0 1-.426.176c-.292 0-.851.268-1.37.656a2.994 2.994 0 0 1-.889.406c-.372.093-.736.33-1.268.826-.913.85-2.767 1.794-3.963 2.019-.978.183-2.616.173-3.323-.021-.287-.079-.829-.352-1.204-.606l-.681-.463-.462.292c-.467.294-.506.38-.664 1.419-.39 2.561-.881 4.38-1.29 4.763a4.1 4.1 0 0 0-.578.758c-.379.647-1.364 1.199-1.642.92z" style="fill:#9fdfd9;stroke-width:.117593" transform="translate(-385.535 -203.99)"/><path d="M403.785 325.125c-.872-.28-1.126-.428-1.774-1.035l-.554-.518-.428.29c-.235.16-.598.327-.806.372a4.15 4.15 0 0 0-.814.303c-.596.301-1.252.278-1.934-.07-.313-.159-1.39-.535-2.392-.835-1.003-.3-2.088-.681-2.411-.846-.659-.335-1.275-.376-2.293-.152-.356.078-1.15.19-1.764.248-2.184.208-2.267.227-2.675.616-.21.2-.382.311-.382.246s.145-.258.323-.428c.362-.346.973-.475 3.151-.666.715-.062 1.537-.194 1.827-.293.604-.205 1.18-.1 2.342.43.63.286.855.363 2.705.913.485.145 1.196.393 1.58.553.435.181.831.27 1.057.235.508-.078 2.167-.737 2.411-.958.308-.278.45-.231 1.108.363.333.301.943.707 1.357.901.63.297.937.363 1.916.41 1.568.075 2.57-.179 2.917-.74.24-.386 1.01-.835 1.923-1.118.468-.145 1.607-.805 1.604-.929-.006-.228-.333-.335-1.743-.57-1.762-.293-3.194-.743-4.84-1.52-2.095-.987-2.56-1.091-5.163-1.154-1.267-.03-2.58-.113-2.918-.183-.785-.163-1.21-.62-1.21-1.305 0-1.103.396-1.291 2.514-1.195 1.385.062 1.603.048 1.603-.106 0-.098.13-.37.29-.606.16-.235.241-.428.18-.428-.06 0-.283-.152-.496-.339-.454-.398-1.151-.82-2.209-1.339-.685-.336-.886-.378-1.94-.402-1.281-.03-2.706-.18-3.02-.32-.323-.144-.567-.617-.567-1.1 0-.248-.045-.501-.102-.563-.216-.237-.486-1.3-.486-1.914 0-.612-.03-.676-.587-1.266-.324-.342-.588-.719-.588-.838 0-.149-.156-.27-.498-.39-.312-.107-.587-.309-.735-.538-.23-.355-.27-.368-1.34-.444-.836-.06-1.175-.135-1.398-.31a1.205 1.205 0 0 0-.631-.232c-.372 0-.451-.167-.137-.287.127-.05.387.054.71.281.422.298.621.359 1.18.36.938.002 1.555.12 1.555.297 0 .223.688.762 1.068.838.246.05.35.154.406.41.042.19.309.575.594.856.49.483.52.548.52 1.164 0 .4.113.968.293 1.468.162.448.294.977.294 1.176 0 .209.116.496.274.68.233.27.411.334 1.205.428.512.061 1.31.105 1.772.097.462-.008 1.097.044 1.411.114.567.126 2.504 1.182 3.12 1.701.178.15.391.296.475.325.11.04.082.148-.108.411a2.43 2.43 0 0 0-.34.674l-.078.315-1.759-.039-1.758-.04-.284.33c-.423.492-.385 1.064.103 1.552.35.35.479.396 1.323.478 1.001.096 1.434.11 1.994.062.979-.084 2.86.15 3.808.474.543.185 1.045.384 1.117.442.206.166 1.797.829 2.884 1.202.545.186 1.709.454 2.587.596.88.14 1.607.26 1.618.265.01.005.056.154.1.332.064.252.034.338-.137.399-.12.042-.386.201-.591.353-.206.152-.663.35-1.016.443-.817.213-1.552.676-1.784 1.123-.136.265-.327.393-.789.53-.855.254-2.894.232-3.74-.04zm-16.507-23.38c-.045-.046-.264-.071-.486-.056-.403.027-.535-.059-1.029-.669-.375-.464-.209-.553.179-.096.344.408.442.454 1.027.487.777.044 1.267-.206 1.664-.848a7.33 7.33 0 0 1 .577-.788c.517-.595.917-2.131 1.337-5.131.066-.471.145-.59.63-.94.305-.222.583-.416.618-.434.035-.017.263.152.507.376.684.627 1.368.904 2.4.975 2.118.144 4.598-.712 6.08-2.098.492-.46.877-.712 1.237-.809.287-.077.865-.347 1.284-.6.418-.252.833-.458.921-.458.088 0 .363-.117.61-.259.4-.23.5-.243.917-.118.257.077.7.318.985.535.285.217.842.563 1.238.77.397.206.82.484.941.619s.496.422.833.638c.337.216.75.602.92.857.288.436.52.584 1.23.79.162.047 1.22.094 2.352.106 1.987.02 2.078.031 2.637.334.396.215.754.314 1.139.314.308 0 .696.052.863.115.167.063 1.004.146 1.86.183l2.615.113c.582.025 1.455.134 1.94.242l1.14.255c.143.031.774-.03 1.404-.138.98-.167 1.672-.183 4.798-.113 2.174.048 3.877.139 4.206.223.444.113.698.109 1.293-.022 1.883-.415 2.139-.435 3.358-.274.649.086 1.274.12 1.389.076.115-.044.623-.327 1.13-.628.954-.568 1.056-.73.785-1.245-.187-.355-.332-.428-.698-.355-.173.034-.35.005-.394-.067-.1-.162-2.151-.164-2.889-.003-.29.064-.873.163-1.293.22-.42.058-.927.14-1.126.184-.231.05-.525.01-.82-.113-.394-.164-.939-.188-3.872-.163-1.877.015-3.546-.015-3.707-.067-.162-.052-.464-.257-.672-.454-.277-.263-.545-.383-1-.45-1.387-.2-2.659-.463-3.326-.687-.388-.13-.826-.238-.974-.24-.148-.001-.537-.138-.865-.304-.456-.232-.833-.315-1.613-.36-1.196-.067-1.951-.294-2.398-.72-.495-.472-.424-.618.294-.604 1.134.023 2.396-.277 2.496-.593.19-.6 1.037-.809 3.824-.942 1.132-.054 2.296-.155 2.587-.224 2.884-.688 3.535-.91 4.792-1.64.679-.393.895-.652.627-.75-.06-.021-.127-.202-.15-.402-.05-.445-.338-.754-.705-.754-.151 0-.484-.112-.738-.248-.35-.187-.513-.218-.661-.125-.215.134-1.567.43-2.546.558-.469.061-.808.021-1.411-.165-2.064-.639-2.434-.726-2.795-.659-.34.064-.4.03-.64-.377a3.003 3.003 0 0 1-.33-.862c-.044-.268-.212-.548-.475-.79-.438-.403-.837-1.353-.843-2.008-.002-.212-.143-.604-.312-.873-.294-.465-.303-.525-.191-1.32.09-.643.08-.94-.044-1.303a3.477 3.477 0 0 1-.161-.916c-.003-.905-.758-1.939-1.773-2.43-.91-.441-1.349-.91-1.451-1.55-.162-1.009-1.9-3.293-2.9-3.81a9.39 9.39 0 0 1-.771-.469 4.452 4.452 0 0 0-1.025-.469 8.823 8.823 0 0 1-1.102-.423c-1.211-.586-3.861-.458-4.754.23-.153.118-.596.383-.984.588-.388.205-1.076.72-1.528 1.146-.497.467-.928.775-1.087.778-.339.006-.971-.255-.971-.4 0-.062.145-.36.322-.662.256-.437.325-.708.336-1.315.016-1.018.024-1.058.194-1.058.413 0 3.718-1.872 4.851-2.747 1.225-.946 2.129-1.864 2.795-2.839.398-.582 1.02-1.46 1.384-1.953.657-.89.782-1.206 1.042-2.64.264-1.457.076-2.38-.623-3.05-.27-.259-.577-.609-.683-.777-.114-.18-.465-.416-.852-.573-.745-.303-.753-.356-.186-1.25.229-.36.351-.756.423-1.365.217-1.853.033-2.78-.645-3.235a2.429 2.429 0 0 1-.61-.614c-.154-.253-.388-.398-.892-.554-.375-.116-.823-.345-.994-.508-.172-.163-.371-.35-.443-.414a4.104 4.104 0 0 1-.376-.444c-.293-.393-.97-.697-1.456-.654-.2.018-.343-.022-.33-.092.012-.069.298-.57.633-1.114.836-1.352 1.102-1.988 1.344-3.21.345-1.741.14-2.979-.644-3.87l-.378-.43.193-.768c.255-1.02.104-1.991-.371-2.376-.175-.143-.4-.43-.5-.639-.241-.501-.76-.79-1.444-.8-.494-.008-.576-.047-.738-.361-.1-.194-.237-.353-.303-.353s-.218-.218-.337-.484c-.236-.527-1.135-1.285-1.952-1.647-.264-.116-.575-.317-.692-.446-.205-.227-.199-.256.203-.975.456-.815 1.397-3.061 1.603-3.824.25-.931.338-2.121.229-3.11-.09-.81-.176-1.081-.5-1.567-.215-.323-.46-.762-.543-.975-.083-.213-.242-.45-.354-.529-.236-.165-.327-.532-.412-1.671-.127-1.69-.427-2.765-.885-3.177-.143-.128-.378-.502-.524-.83-.219-.494-.395-.68-1.015-1.071-.81-.51-2.348-1.095-2.887-1.096-.183 0-.773-.107-1.31-.236-1.169-.28-2.323-.3-3.201-.055-1.115.312-1.488.333-2.225.126-.801-.225-2.492-.27-2.983-.08-.182.07-.513.267-.735.436-.533.407-.523.199.012-.228.603-.482 1.541-.63 2.782-.44.537.083 1.227.188 1.533.234.353.052.68.031.892-.058.952-.4 2.564-.467 3.667-.15.227.064.853.162 1.392.216 1.717.174 3.729 1.228 4.195 2.197.13.27.352.614.494.765.526.56.79 1.528.974 3.575.097 1.082.137 1.219.457 1.561.192.206.384.532.427.725.042.192.121.35.176.35.055 0 .249.304.431.676.31.634.331.767.327 2.146-.006 1.903-.329 3.03-1.61 5.619-.36.73-.555 1.252-.49 1.317.058.059.345.233.636.388.813.433 1.866 1.26 1.953 1.536.043.136.268.474.499.75.346.415.491.503.828.503.616 0 1.42.436 1.605.869.085.2.312.501.504.668.3.259.362.416.435 1.095.054.504.032 1.04-.06 1.473l-.145.681.416.544c.663.87.878 2.328.567 3.842-.229 1.114-.568 1.93-1.27 3.057-.59.95-.608 1.002-.36 1.04.143.023.314.082.378.131.065.05.263.125.44.167.177.042.415.222.529.399a3.651 3.651 0 0 0 1.758 1.393c.522.185.75.343.968.673.156.237.35.43.43.43.24 0 .74.682.88 1.202.084.31.102.932.05 1.729-.071 1.111-.123 1.323-.48 1.983-.22.406-.4.76-.4.785 0 .026.29.179.643.341.398.182.727.431.86.65.12.197.36.47.535.607.552.434.71.888.717 2.052.011 2.282-.028 2.386-1.928 5.142-1.065 1.545-1.703 2.241-3.005 3.277-1.438 1.145-4.64 3.046-5.13 3.046-.191 0-.218.101-.218.818 0 .83-.108 1.219-.502 1.799l-.22.323.31.118c.54.205.808.137 1.152-.294.18-.227.38-.412.445-.412.064 0 .288-.172.499-.382.21-.21.698-.557 1.084-.771.385-.214.867-.493 1.07-.62 1.148-.721 3.525-.756 4.851-.07.298.153.725.314.948.357.608.118 2.336 1.199 3.009 1.883.763.776 1.636 2.202 1.81 2.96.148.638.635 1.144 1.35 1.4.665.238.854.402 1.35 1.163.35.537.502.903.527 1.269.02.282.104.734.188 1.004.117.378.123.682.026 1.336-.12.813-.113.865.171 1.295.163.247.323.677.356.957.033.279.134.674.225.878.091.204.166.429.166.5 0 .071.04.13.088.13.048 0 .287.19.53.42.325.309.44.513.44.785 0 .557.45 1.144.879 1.145.328.001.98.175 2.749.733.794.25.707.256 2.832-.162.351-.07.714-.201.806-.293.18-.18.493-.13.932.147.143.09.412.164.597.164.386 0 .848.424.848.779 0 .129.077.337.172.463.095.125.175.29.177.365.002.075-.38.359-.85.63-1.936 1.123-4.914 1.879-7.404 1.879-2.173 0-3.672.371-3.822.947-.089.34-1.916.787-2.694.66l-.431-.07.333.349c.184.191.443.35.577.352a.954.954 0 0 1 .47.176c.158.12.528.173 1.196.173.741 0 1.1.06 1.536.256.312.14.833.32 1.156.4.323.079 1.064.274 1.646.434.582.16 1.535.36 2.117.445.898.132 1.11.207 1.4.497.19.187.477.39.64.453.166.063 1.834.11 3.805.105 2.949-.006 3.565.022 3.86.176.29.149.475.16 1.027.06 3.425-.62 4.516-.72 4.99-.457.149.082.344.135.433.116.352-.072.71.12.887.473.32.64.258.732-.948 1.452l-1.133.676-.778-.08-1.463-.147a4.246 4.246 0 0 0-1.412.115c-1.647.415-1.722.423-2.54.252-.433-.09-1.393-.162-2.132-.16-.74.002-2.244-.032-3.344-.076-1.626-.065-2.229-.042-3.233.124-1.485.246-1.231.25-2.587-.04-.772-.165-1.943-.275-3.787-.356-1.468-.065-2.774-.174-2.902-.242-.129-.07-.515-.126-.859-.127a2.095 2.095 0 0 1-1.154-.306c-.512-.294-.602-.305-2.705-.33-2.546-.03-3-.149-3.482-.911-.159-.252-.565-.636-.902-.852-.338-.216-.72-.511-.849-.655-.13-.144-.5-.395-.823-.557a7.741 7.741 0 0 1-.94-.557c-.443-.33-1.484-.887-1.66-.887-.072 0-.258.098-.412.217a1.94 1.94 0 0 1-.692.296c-.226.044-.676.26-1 .479-.323.22-.82.461-1.106.537-.358.094-.726.334-1.186.773-.89.85-2.936 1.873-4.143 2.073-1.905.315-3.358.08-4.397-.713l-.601-.46-.529.33c-.514.32-.53.35-.612 1.074-.223 2-.87 4.661-1.22 5.018-.11.112-.43.51-.711.886-.537.717-1.24 1.163-1.472.932z" style="fill:#63ccc7;stroke-width:.117593" transform="translate(-385.535 -203.99)"/><path d="M404.107 325.218c-.676-.16-1.581-.659-2.158-1.19-.493-.455-.531-.47-.738-.282-.27.244-2.036.905-2.615.979-.311.04-.626-.042-1.176-.303-.412-.197-1.411-.55-2.22-.785-.808-.235-1.84-.592-2.293-.794-.954-.426-1.427-.453-2.88-.165-.55.109-1.133.193-1.294.188-.162-.005.235-.105.882-.222.646-.117 1.306-.263 1.466-.326.347-.135 1.086.038 2.057.482.364.167 1.308.494 2.097.728.79.233 1.77.557 2.18.72.475.19.878.277 1.117.24.603-.092 2.116-.676 2.38-.918.133-.123.31-.224.392-.224.083 0 .471.29.863.645.79.715 1.61 1.084 2.735 1.232.647.085.661.093.176.096a4.974 4.974 0 0 1-.97-.101zm2.382.049c.998-.17 1.496-.4 1.866-.86.39-.485 1.134-.947 1.51-.938.116.003.013.076-.23.162-.63.225-1.023.509-1.246.9-.227.398-.89.698-1.658.75-.295.02-.404.013-.242-.014zm-20.674-1.88c.313-.312.784-.442 2.036-.562l.588-.057-.53.114c-.29.063-.777.147-1.08.186-.363.047-.641.167-.814.351-.145.154-.319.28-.387.28s.016-.14.187-.311zm24.664-.107c.222-.097.473-.233.559-.304.085-.071.155-.095.155-.054 0 .117-.744.541-.94.537-.098-.002.004-.083.226-.18zm1.043-.611c.365-.289.236-.61-.254-.634l-.37-.017.348-.052c.24-.035.394.013.5.158.229.313.187.464-.171.619l-.323.14zm-1.681-.851c-.49-.125-.008-.13.588-.007.395.081.414.097.117.096a3.45 3.45 0 0 1-.705-.09zm-.794-.196a.454.454 0 0 1 .294 0c.08.033.014.06-.147.06-.162 0-.228-.027-.147-.06zm-.463-.12c.085-.034.186-.03.225.01.04.038-.03.066-.154.06-.137-.005-.165-.033-.071-.07zm-.47-.118c.084-.034.186-.03.225.01.039.039-.03.066-.155.061-.137-.006-.164-.033-.07-.07zm-1.742-.554c-.68-.274-1.42-.6-1.647-.725a7.97 7.97 0 0 0-.764-.365c-.194-.077-.273-.143-.176-.148.098-.005.442.134.765.307.323.174 1.222.569 1.998.877.776.308 1.332.559 1.235.557-.097-.002-.732-.228-1.411-.503zm-3.587-1.482c-.155-.066-.175-.103-.059-.107a.721.721 0 0 1 .353.107c.215.14.03.14-.294 0zm-1.382-.203a3.74 3.74 0 0 1 .765 0c.21.027.038.048-.383.048-.42 0-.592-.021-.382-.048zm-3.467-.116c.179-.027.443-.027.588.002.145.027-.002.05-.325.049-.324-.001-.442-.024-.263-.051zm1.53.003a.676.676 0 0 1 .352.004c.08.032-.014.056-.208.054-.194-.002-.26-.029-.145-.059zm.703 0a.965.965 0 0 1 .411 0c.113.03.02.054-.206.054-.226 0-.319-.024-.205-.054zm-3.586-.22c-.385-.21-.677-.732-.677-1.213 0-.332.488-1.073.707-1.073.054 0-.057.155-.246.344-.677.676-.344 1.689.656 1.996.238.073.276.11.118.114-.13.003-.38-.073-.558-.169zm2.376-2.256c.609-.025 1.031-.095 1.086-.182.062-.097.091-.077.092.064.002.183-.118.203-1.086.182l-1.087-.024zm-1.905-.113c.146-.028.358-.027.47.002.113.03-.007.052-.266.051-.259-.001-.35-.025-.204-.054zm3.088-.335c0-.061.1-.239.22-.395l.22-.284-.556-.44a7.878 7.878 0 0 0-1.015-.676 4.893 4.893 0 0 1-.695-.433c-.129-.107.083-.022.47.189.586.318 1.054.641 1.853 1.281.049.04-.044.25-.206.47-.161.22-.293.349-.291.288zm-2.413-2.52c-.04-.067.006-.087.111-.047.204.079.241.163.072.163-.061 0-.143-.052-.183-.116zm-2.735-.318a.965.965 0 0 1 .412 0c.113.03.02.054-.206.054-.226 0-.319-.024-.206-.054zm1.823.003a.454.454 0 0 1 .294 0c.08.033.015.06-.147.06-.162 0-.228-.027-.147-.06zm-3.055-.146c-.674-.06-.84-.121-1.117-.414l-.326-.343.391.314c.32.257.513.314 1.059.316.367 0 .746.053.843.116.097.062.124.106.06.097a42.742 42.742 0 0 0-.91-.086zm2.114.023c.146-.028.384-.028.53 0 .145.028.026.051-.265.051-.291 0-.41-.023-.265-.05zm-3.618-1.352c-.032-.304-.014-.51.04-.456.053.053.078.302.056.553l-.04.456zm-.395-1.215a.992.992 0 0 1-.065-.329c.004-.075.058-.01.12.145.062.155.091.302.066.328-.026.026-.08-.039-.12-.144zm-.19-1.217c0-.662-.024-.716-.525-1.224-.288-.293-.556-.659-.595-.813-.05-.198-.216-.332-.561-.452a1.388 1.388 0 0 1-.728-.548c-.13-.207-.317-.384-.414-.391-.132-.01-.137-.03-.022-.076.087-.034.336.15.565.417.27.316.542.503.803.552.314.059.407.142.46.411.038.186.308.581.601.878.512.52.533.569.533 1.24 0 .384-.026.698-.059.698-.032 0-.058-.311-.058-.692zm-5.09-3.776c-.164-.13-.432-.235-.596-.235-.164 0-.33-.053-.37-.118-.147-.238.554-.11.919.167.206.157.56.307.786.334l.411.05-.425.018a1.105 1.105 0 0 1-.724-.216zm.677-3.885c-.042-.068-.243-.09-.46-.048-.345.064-.428.02-.812-.429-.502-.586-.49-.78.013-.217.301.338.423.387 1.027.418.804.04 1.124-.137 1.655-.918.189-.278.457-.622.597-.764.442-.453.913-2.305 1.274-5.009.067-.498.143-.615.669-1.03l.593-.47.45.407c.507.458 1.059.771 1.582.899.286.07.302.088.084.098-.328.014-1.269-.45-1.777-.878-.347-.293-.389-.301-.584-.124-.116.105-.265.19-.33.19-.3 0-.487.52-.73 2.036-.143.894-.38 2.086-.526 2.65-.267 1.024-.3 1.082-1.573 2.692-.26.327-1.047.667-1.152.496zm49.868-5.394c-.154-.06-.04-.09.347-.09.387 0 .5.03.347.09-.126.05-.283.09-.347.09a1.3 1.3 0 0 1-.347-.09zm-11.177-.128c-.194-.052-.557-.13-.806-.173-.25-.043-.428-.103-.398-.133.03-.03.446.023.924.119.477.096 1.026.195 1.22.221.278.038.253.05-.117.055a3.623 3.623 0 0 1-.823-.089zm1.501-.082a.676.676 0 0 1 .353.004c.08.032-.014.056-.208.054-.194-.002-.26-.029-.145-.059zm8.994.004a.454.454 0 0 1 .294 0c.08.032.015.06-.147.06-.162 0-.228-.028-.147-.06zm1.764 0a.454.454 0 0 1 .294 0c.08.032.014.06-.147.06-.162 0-.228-.028-.147-.06zm-10.052-.121a.676.676 0 0 1 .353.004c.08.032-.014.056-.208.054-.194-.002-.26-.029-.145-.059zm4.825-.006c.634-.022 1.64-.021 2.234 0 .595.021.076.038-1.152.038-1.23 0-1.716-.017-1.082-.038zm6.02-.03c.13-.056.342-.1.47-.098.19.003.178.022-.058.098-.402.129-.711.129-.412 0zm3.41.01c.34-.042.875-.238 1.265-.462.372-.214.676-.36.676-.327 0 .034-.336.25-.746.48-.569.317-.87.412-1.264.4l-.518-.017zm-13.023-.097a15.665 15.665 0 0 1 1.47 0c.404.023.074.041-.735.041-.808 0-1.139-.018-.735-.041zm11.995.009a.454.454 0 0 1 .294 0c.08.032.014.06-.147.06-.162 0-.228-.028-.147-.06zm-18.462-.125a3.74 3.74 0 0 1 .764 0c.21.026.038.047-.382.047s-.592-.02-.382-.047zm17.168 0a3.74 3.74 0 0 1 .765 0c.21.026.038.047-.383.047-.42 0-.592-.02-.382-.047zm-20.725-.176a33.746 33.746 0 0 0-1.412-.196c-.517-.06-1.036-.211-1.399-.407-.317-.172-.518-.312-.447-.312.07 0 .378.132.682.294.394.21.736.294 1.19.294.35 0 .741.056.868.124.128.068.977.145 1.887.17.91.024 1.678.068 1.706.096.092.092-2.472.04-3.075-.063zm25.386-.704.34-.285-.203-.427c-.118-.249-.334-.475-.516-.542-.224-.082-.251-.117-.096-.124.288-.012.9.653.9.978 0 .167-.133.33-.382.47l-.382.214zm-49.375-.217c.646-.047 1.493-.15 1.881-.227.972-.194 2.642-1.083 3.574-1.902 1.047-.92 1.16-.876.145.055-1.534 1.408-3.724 2.217-5.894 2.177l-.882-.016zm16.722 0c-.835-.127-1.299-.389-1.564-.881-.111-.207-.472-.548-.801-.758-.33-.211-.731-.512-.893-.669-.162-.157-.712-.534-1.223-.838a42.348 42.348 0 0 1-1.235-.756c-.4-.267-.802-.44-1.048-.452-.12-.006-.141-.032-.052-.068.234-.095.918.179 1.393.556.242.192.815.557 1.276.81.46.255.967.601 1.126.771.16.17.493.423.74.562.247.139.625.497.84.795.545.76 1.015.879 3.395.856 1.024-.01 1.842.001 1.818.025-.102.102-3.156.14-3.772.046zm25.611-.732c-.16-.098-1.172-.164-3.175-.207l-2.94-.064 2.858-.024c2.377-.02 2.916.006 3.207.156.22.113.514.158.788.12.35-.048.379-.04.144.043-.415.146-.612.14-.882-.024zm-6.88-.15c-.096-.02-.372-.069-.613-.108-.265-.043-.602-.226-.853-.463-.31-.293-.557-.41-.974-.458-1.88-.223-4.458-.862-5.336-1.324-.448-.235-.716-.286-1.497-.286-1.027 0-1.687-.19-2.338-.67-.477-.353-.503-.628-.06-.612.307.01.31.016.05.088l-.273.077.304.286c.464.436 1.076.623 2.301.703.812.053 1.26.144 1.639.335.287.145.584.263.66.263.077 0 .477.109.89.242 1.082.349 2.14.572 3.665.773.395.052.674.178.937.424.449.42.779.557 1.36.568.238.005.539.054.668.11.213.091.208.1-.059.095a3.167 3.167 0 0 1-.47-.042zm8.125.023c.026-.024.366-.072.754-.107.426-.038.612-.025.47.034-.226.095-1.325.16-1.224.073zm4.811-.193c-.097-.063-.335-.116-.53-.118-.193-.002-.431-.06-.528-.13-.139-.098-.113-.11.117-.058.162.037.403.068.536.07a.94.94 0 0 1 .47.173c.256.194.208.24-.065.063zm-3.204-.078a.454.454 0 0 1 .294 0c.08.033.014.06-.147.06-.162 0-.228-.027-.147-.06zm.705-.118a.454.454 0 0 1 .294 0c.08.033.015.06-.147.06-.162 0-.228-.027-.147-.06zM402 291.752c.084-.034.186-.03.225.009.04.039-.03.067-.154.061-.137-.006-.165-.033-.071-.07zm.492-.122c.097-.037.335-.17.53-.295l.352-.228-.353.303c-.194.167-.432.3-.529.295-.157-.008-.157-.017 0-.075zm.94-.555c0-.108.69-.42.906-.409.141.007.111.04-.089.102-.165.05-.417.153-.559.229-.141.076-.257.11-.257.078zm1.294-.463c0-.025.093-.117.206-.206.187-.146.19-.142.044.044-.153.196-.25.258-.25.162zm15.346-.728c.323-.09.72-.162.882-.158.184.004.074.066-.294.168-.323.09-.72.161-.882.158-.184-.003-.073-.066.294-.169zm1.398-.253c.122-.03.418-.263.658-.515.24-.253.51-.459.601-.459.091 0 .004.1-.192.22-.197.12-.45.357-.562.528-.126.193-.302.305-.465.297-.222-.012-.228-.022-.04-.07zm1.632-1.055a.676.676 0 0 1 .353.004c.08.032-.014.056-.208.054-.194-.002-.26-.03-.145-.059zm.645-.114a.454.454 0 0 1 .294 0c.08.032.015.059-.147.059-.162 0-.228-.027-.147-.06zm1.235-.127c.436-.023 1.15-.023 1.587 0 .437.022.08.04-.794.04-.873 0-1.23-.018-.793-.04zm2.567-.073c.027-.023.26-.074.52-.114.32-.05.413-.036.293.04-.16.103-.927.172-.813.074zm1.315-.274a.676.676 0 0 1 .353.004c.08.032-.014.056-.208.054-.194-.002-.259-.029-.145-.059zm.652-.117c.085-.034.187-.03.226.01.039.038-.03.066-.155.061-.137-.006-.165-.034-.07-.071zm.47-.117c.086-.034.187-.03.226.009.04.039-.03.066-.154.061-.137-.006-.165-.033-.071-.07zm.552-.155c.323-.14.509-.14.294 0a.726.726 0 0 1-.353.107c-.116-.004-.096-.04.059-.107zm.866-.299c.218-.094.43-.17.47-.167.153.009-.52.34-.69.34-.096 0 .003-.078.22-.173zm.957-.333c0-.033.323-.232.718-.443.75-.4.932-.615.708-.838-.073-.073-.133-.27-.133-.437 0-.344-.361-.708-.704-.708-.127 0-.472-.117-.767-.26-.409-.199-.585-.231-.738-.136-.315.196-2.494.644-3.014.62-.135-.006.152-.085.637-.175 1.82-.34 2.243-.438 2.303-.536.099-.16.673-.11.924.08.125.094.394.172.597.172.417 0 .88.408.88.775 0 .127.084.351.187.498.102.147.161.33.13.408-.056.143-1.728 1.091-1.728.98zm-5.527-2.66c-.55-.182-.963-.336-.917-.342.125-.018 1.268.3 1.799.5.801.302.171.189-.882-.159zm-2.691-.819c-.15-.225-.287-.583-.303-.795-.021-.266-.162-.51-.453-.784-.454-.428-.904-1.494-.904-2.14 0-.203-.133-.565-.295-.804-.278-.409-.29-.485-.193-1.28.076-.625.061-.984-.056-1.375a4.261 4.261 0 0 1-.16-1.002c-.003-.796-.86-1.903-1.825-2.355-.844-.396-1.22-.753-1.29-1.232l-.061-.409.114.357c.152.475.648.92 1.296 1.163.682.256.795.35 1.34 1.116.29.41.47.808.504 1.117.028.264.132.756.23 1.094.148.503.157.763.05 1.448-.118.765-.11.863.104 1.163.129.18.294.587.367.904.245 1.054.51 1.81.635 1.81.265 0 .886.83.886 1.185 0 .523.434 1.047.875 1.057.687.016.77.172.092.172-.648 0-.695-.02-.953-.41zM418.449 271c-.12-.456-1.168-1.962-1.753-2.52-.492-.469-2.01-1.502-2.497-1.699-.183-.074-.195-.1-.049-.105.107-.004.452.164.768.374s.727.462.914.559c.886.46 2.853 2.98 2.74 3.512-.027.127-.068.087-.123-.12zm-14.135-2.063c.194-.027.511-.2.705-.383.948-.899 1.175-1.086 1.656-1.369.286-.167.52-.274.52-.237 0 .037-.162.15-.36.253-.197.102-.776.553-1.286 1.002-.714.63-1.003.813-1.257.8l-.331-.018zm-.88-.283c0-.105.095-.316.213-.47.328-.428.4-.676.478-1.628l.071-.877.564-.202c.827-.294 3.632-2.014 4.787-2.933 1.346-1.072 1.792-1.564 2.952-3.253a223.94 223.94 0 0 1 1.252-1.812c.375-.526.734-2.09.734-3.19 0-.757-.417-1.83-.775-1.993-.155-.071-.388-.309-.517-.528-.164-.277-.443-.493-.912-.705-.372-.167-.695-.32-.717-.337-.022-.018.152-.376.387-.796.352-.63.449-.953.547-1.838.163-1.454 0-2.262-.563-2.783-.545-.506-.602-.563-.915-.905-.148-.163-.5-.363-.783-.446-.556-.162-1.584-.944-1.693-1.287-.086-.274-.964-.697-1.445-.697-.43 0-.462-.116-.158-.564 1.185-1.743 1.48-2.408 1.758-3.964.312-1.752.065-3.057-.729-3.84l-.317-.314.19-.73c.271-1.049.146-1.913-.349-2.409-.205-.205-.44-.532-.52-.725-.172-.418-.782-.742-1.393-.742-.356 0-.509-.086-.886-.5-.251-.275-.525-.662-.61-.86-.164-.387-.99-1.037-1.916-1.506-.933-.472-.946-.524-.405-1.51 1.092-1.987 1.756-3.989 1.812-5.46.018-.462.078-.812.134-.778.118.071 0 1.49-.187 2.265-.204.84-1.127 3.164-1.579 3.976-.227.408-.387.811-.354.896.032.084.394.348.803.586 1.17.681 1.551.991 1.79 1.458.121.238.293.476.382.527.088.052.241.25.34.441.155.3.246.347.666.347.772 0 1.348.316 1.564.856.102.254.283.487.402.519.482.126.729 1.566.451 2.629l-.17.652.343.406c.712.844 1.02 2.287.74 3.464-.093.388-.171.846-.173 1.018-.006.416-.552 1.612-1.199 2.627-.78 1.225-.753 1.168-.527 1.081.109-.042.482.03.83.16.477.179.666.32.774.582.078.19.241.376.362.414.12.039.315.19.43.338.117.148.528.373.915.502.519.172.771.334.961.614.142.209.433.497.647.64.28.188.45.44.607.905.192.566.205.803.11 1.96-.097 1.176-.15 1.382-.483 1.92-.206.33-.374.651-.374.712 0 .062.287.239.638.394.413.182.701.4.815.616.097.183.365.48.594.66.557.435.83 1.339.737 2.428-.153 1.78-.281 2.26-.802 3.003-.273.39-.89 1.282-1.369 1.982-1.314 1.92-2.684 3.133-5.325 4.718-.855.513-1.833 1.042-2.173 1.176l-.617.242-.043.882c-.035.737-.104.989-.42 1.529-.209.356-.38.561-.382.457zm4.127-1.97c.464-.362 1.204-.698 1.697-.769.425-.062.416-.053-.108.1-.316.091-.835.329-1.155.527-.652.406-.857.473-.434.142zm5.396-.31c-.291-.156-.487-.285-.435-.288.051-.003.263.082.47.189.206.106.507.234.67.283.234.072.246.091.06.095-.13.003-.474-.123-.765-.279zm-1.294-.411c-.402-.085-.403-.087-.059-.094.194-.004.459.038.588.094.283.121.048.121-.529 0zm-1.264-.199a.965.965 0 0 1 .412 0c.113.03.02.054-.206.054-.226 0-.32-.024-.206-.054zm-6.83-48.372a2.745 2.745 0 0 0-.284-1.021l-.645-1.194c-.21-.389-.465-.754-.569-.812-.143-.08-.198-.341-.23-1.095l-.041-.989.095.896c.072.682.157.958.353 1.154.142.142.353.48.47.752.116.272.295.563.397.648.274.228.574 1.234.52 1.748-.045.436-.046.434-.066-.087zm-1.94-5.67c-.038-.274-.1-.684-.136-.91-.05-.316-.04-.355.043-.167.125.28.306 1.577.22 1.577-.03 0-.088-.225-.126-.5zm-.372-1.615c-.044-.139-.228-.42-.408-.626a4.338 4.338 0 0 1-.55-.845c-.408-.872-2.264-1.847-3.95-2.075a12.18 12.18 0 0 1-1.435-.284c-.866-.253-2.515-.22-3.329.066-.772.271-1.194.283-1.853.052-.455-.16-.457-.163-.059-.087.65.123 1.3.082 1.996-.126.795-.237 2.455-.252 3.245-.028.32.09.956.196 1.414.234.94.08 2.1.511 3.11 1.16.77.492.86.594 1.048 1.177.078.243.248.499.378.568.23.123.637.902.527 1.01-.03.03-.09-.058-.134-.196zm-15.464-3.418c.73-.587 1.64-.78 2.822-.602.573.087.511.097-.54.089-1.14-.01-1.21.005-1.8.372-.69.43-.927.498-.482.141z" style="fill:#46c5bd;stroke-width:.117593" transform="translate(-385.535 -203.99)"/><path d="M404.815 325.262c.146-.028.358-.027.47.002.113.03-.007.053-.266.051-.258 0-.35-.025-.204-.053zm2.129-.088c.411-.095.874-.255 1.029-.356.154-.1.28-.135.28-.076 0 .162-.893.486-1.511.55-.47.047-.44.03.202-.118zm-2.836-.024a.454.454 0 0 1 .294 0c.08.033.015.06-.147.06-.162 0-.228-.027-.147-.06zm-.97-.297c-.259-.136-.74-.478-1.071-.76-.33-.281-.64-.512-.689-.512-.048 0-.245.133-.437.294-.192.162-.45.294-.572.294-.123 0-.522.133-.888.294-.814.36-1.262.37-1.872.042-.258-.139-.892-.4-1.41-.579-.517-.18-.879-.33-.804-.336.075-.005.657.185 1.294.421.769.286 1.354.43 1.745.428.699-.002 2.047-.46 2.44-.83.154-.144.336-.263.405-.263.07 0 .383.24.698.531.315.292.886.69 1.268.882.382.193.62.349.529.346-.091-.003-.378-.116-.636-.252zm5.35-.625c.152-.161.303-.294.335-.294.032 0-.065.133-.217.294-.152.162-.303.294-.335.294-.032 0 .065-.132.217-.294zm.792-.544c.08-.08.175-.116.21-.08.037.036-.028.102-.144.146-.168.064-.181.05-.066-.065zm-23.374-.332c.273-.24.531-.358.784-.358.207 0 .474-.032.593-.07.179-.058.185-.049.039.057-.097.07-.369.127-.603.128-.24.001-.493.082-.579.185-.083.1-.262.235-.396.3-.135.064-.062-.045.162-.242zm9.037.15c.085-.035.186-.03.225.008.04.04-.03.067-.154.062-.137-.006-.165-.034-.07-.071zm14.817 0c.085-.035.186-.03.225.008.04.04-.03.067-.154.062-.137-.006-.165-.034-.071-.071zm-15.918-.267a9.817 9.817 0 0 1-1-.422 5.86 5.86 0 0 0-.934-.357c-.291-.08-.424-.15-.294-.152.129-.003.42.067.646.156 2.1.825 2.505.995 2.352.991-.097-.003-.443-.1-.77-.216zm16.763.07c0-.027.139-.14.308-.251.17-.112.273-.144.229-.073-.084.135-.537.41-.537.324zm-22.901-.51a.965.965 0 0 1 .411 0c.113.03.02.054-.205.054-.227 0-.32-.025-.206-.054zm1.822-.115a.454.454 0 0 1 .294 0c.081.033.015.06-.147.06-.161 0-.227-.027-.147-.06zm22.149-.122c.086-.143.181-.234.212-.203.03.03-.04.147-.156.26-.202.193-.205.19-.056-.057zm-21.5 0a.676.676 0 0 1 .353.005c.08.032-.014.056-.208.054-.194-.002-.259-.029-.145-.059zm.674-.153a.778.778 0 0 1 .353-.114c.157 0 .157.013 0 .114a.778.778 0 0 1-.353.114c-.156 0-.156-.013 0-.114zm20.52-.353-.353-.09.317-.013c.174-.008.349.039.389.103.04.065.056.112.036.104a9.969 9.969 0 0 0-.389-.104zm-1.029-.195a.454.454 0 0 1 .294 0c.081.032.015.06-.147.06-.161 0-.228-.028-.147-.06zm-.58-.12c.085-.034.186-.03.225.009.04.039-.03.067-.154.062-.137-.006-.165-.034-.071-.071zm-.588-.118c.085-.034.186-.03.225.01.04.038-.03.066-.154.061-.137-.006-.165-.033-.071-.071zm-4.63-1.631c-.22-.176-.218-.178.036-.055.146.07.265.153.265.183 0 .09-.061.064-.301-.128zm-3.08-.842c.178-.027.469-.027.647 0 .178.027.032.049-.324.049-.355 0-.5-.022-.323-.05zm-3.29-.115a.676.676 0 0 1 .352.004c.08.032-.014.057-.208.054-.194-.002-.259-.029-.144-.058zm1.35.004a.454.454 0 0 1 .294 0c.08.033.014.06-.147.06-.162 0-.228-.027-.147-.06zm.588 0a.454.454 0 0 1 .294 0c.08.033.014.06-.147.06-.162 0-.228-.027-.147-.06zm-3.05-.12c.085-.034.186-.03.225.009.04.04-.03.067-.154.062-.137-.006-.165-.034-.071-.071zm-.507-.154c-.04-.066.006-.086.111-.046.204.078.241.163.072.163-.061 0-.143-.053-.183-.117zm-.618-1.118c.001-.259.026-.35.054-.204s.027.358-.002.47c-.03.112-.052-.007-.051-.266zm.35-.827c.175-.185.34-.313.366-.284.026.029-.118.18-.32.337l-.366.283zm2.674-.26c.609-.025 1.031-.096 1.086-.182.062-.097.091-.077.092.064.002.183-.118.203-1.086.182l-1.087-.024zm-1.907-.108a.454.454 0 0 1 .294 0c.081.033.015.06-.147.06-.161 0-.228-.027-.147-.06zm3.087-.358c0-.068.093-.196.206-.285.19-.149.193-.143.033.074l-.206.284c-.018.027-.033-.006-.033-.073zm.392-.676c0-.094.045-.144.1-.11.055.034.07.111.032.172-.095.154-.132.136-.132-.062zm-.63-.515a6.289 6.289 0 0 0-.644-.467c-.13-.073-.178-.135-.107-.137.12-.003 1.224.803 1.224.894 0 .082-.065.042-.473-.29zm-1.591-1.025c-.22-.176-.218-.178.036-.055.145.07.264.153.264.183 0 .09-.06.064-.3-.128zm-3.316-.604a.965.965 0 0 1 .412 0c.113.03.02.054-.206.054-.226 0-.319-.025-.206-.054zm.941-.118a.965.965 0 0 1 .412 0c.113.03.02.054-.206.054-.226 0-.319-.024-.206-.054zm-2.408-.122c.211-.026.529-.025.705.001.177.027.004.049-.384.048-.388 0-.533-.023-.321-.049zm-.923-.355-.285-.324.324.285c.177.157.323.303.323.324 0 .092-.095.017-.362-.285zm-.346-.877c-.032-.304-.014-.51.04-.456.053.053.078.302.056.553l-.04.456zm-.587-2.528c-.032-.401-.015-.687.038-.634.052.052.078.38.057.73l-.038.633zm-.59-1.22-.408-.36.44.316c.39.28.517.406.408.406-.019 0-.217-.163-.44-.361zm-.702-1.05c-.15-.097-.147-.113.03-.115.113 0 .205.051.205.116 0 .143-.013.143-.235 0zm-.64-.223c-.036-.059.04-.08.17-.045.274.071.309.151.065.151-.093 0-.199-.048-.235-.106zm-.654-.717c-.069-.13-.099-.235-.067-.235.033 0 .116.106.185.235.07.13.1.235.067.235-.032 0-.115-.106-.185-.235zm-1.967-.317a.676.676 0 0 1 .353.004c.08.033-.014.057-.208.055-.194-.002-.26-.03-.145-.059zm-.568-.208a1.076 1.076 0 0 0-.544-.177c-.174-.002-.35-.056-.39-.121-.15-.243.6-.1.941.18.378.31.373.405-.007.118zm-.559-4.328c-.246-.255-.421-.49-.389-.522.032-.032.219.123.414.346.333.379.404.405 1.092.412.702.007.755-.013 1.15-.434 1.101-1.17 1.505-1.893 1.806-3.24.05-.22.053-.218.066.018.027.504-.483 1.864-.854 2.276a6.995 6.995 0 0 0-.625.823c-.359.58-.795.8-1.565.792-.594-.007-.682-.045-1.094-.47zm4.162-3.917c.006-.137.034-.165.071-.071.034.084.03.186-.009.225-.039.04-.067-.03-.062-.154zm.127-.637c0-.162.027-.228.06-.147a.454.454 0 0 1 0 .294c-.033.08-.06.014-.06-.147zm.122-.647c.002-.194.029-.26.058-.145a.676.676 0 0 1-.004.353c-.032.08-.056-.014-.054-.208zm36.401.216a.454.454 0 0 1 .294 0c.081.033.015.06-.147.06-.161 0-.228-.027-.147-.06zm10.944-.002c.085-.034.186-.03.225.01.04.038-.03.066-.154.06-.137-.005-.165-.033-.071-.07zm-10.356-.115a.454.454 0 0 1 .294 0c.081.033.015.06-.147.06-.161 0-.228-.027-.147-.06zm9.18-.002c.085-.034.186-.03.225.009.04.039-.03.067-.154.062-.137-.006-.165-.034-.071-.071zm1.639.002a.454.454 0 0 1 .294 0c.08.033.014.06-.147.06-.162 0-.228-.027-.147-.06zm-12.935-.118a.454.454 0 0 1 .294 0c.08.033.014.06-.147.06-.162 0-.228-.027-.147-.06zm2.94 0a.454.454 0 0 1 .293 0c.081.033.015.06-.147.06-.161 0-.227-.027-.147-.06zm4.233-.009c.34-.023.895-.023 1.234 0 .34.024.062.044-.617.044s-.957-.02-.617-.044zm2.706.001c.212-.026.53-.025.706.001.177.027.004.049-.384.048-.388 0-.533-.023-.322-.049zm6.997.001c.178-.027.443-.026.588.002.144.028-.002.05-.325.05-.324-.002-.442-.024-.263-.051zm-12.937-.119c.242-.025.64-.025.882 0 .242.026.044.046-.441.046s-.684-.02-.441-.046zm1.589.002c.146-.028.358-.027.47.002.113.03-.007.053-.266.051-.259 0-.35-.025-.204-.053zm10.59.003c.084-.034.185-.03.224.01.04.038-.03.066-.154.061-.137-.006-.165-.033-.071-.071zm-18.588-.115a.454.454 0 0 1 .294 0c.08.033.015.06-.147.06-.162 0-.228-.027-.147-.06zm.706 0a.454.454 0 0 1 .294 0c.08.033.014.06-.147.06-.162 0-.228-.027-.147-.06zm16.463 0a.454.454 0 0 1 .294 0c.08.033.014.06-.147.06-.162 0-.228-.027-.147-.06zm.705 0a.454.454 0 0 1 .294 0c.081.033.015.06-.147.06-.162 0-.228-.027-.147-.06zm-19.873-.117a.454.454 0 0 1 .294 0c.08.032.015.059-.147.059-.162 0-.228-.027-.147-.06zm.853-.04c.23-.149.386-.149.294 0-.04.065-.163.117-.272.116-.171-.002-.174-.018-.022-.116zm-31.106-.637c.037-.534.11-.753.315-.94.243-.224.25-.225.074-.01-.105.128-.247.552-.314.94l-.122.705.047-.695zm28.048.443c-.38-.153-.384-.16-.059-.095.194.039.591.113.882.164l.53.093-.47.002a2.8 2.8 0 0 1-.883-.163zm25.283.026c0-.033.105-.116.235-.185.13-.07.235-.1.235-.067 0 .032-.106.115-.235.185-.13.069-.235.1-.235.067zm-27.14-.382c-.335-.173-.587-.338-.559-.366.029-.029.236.062.462.202.226.14.638.298.918.353.43.085.453.102.149.113-.198.007-.634-.129-.97-.302zm27.992-.157c.349-.273.41-.56.177-.822-.126-.14-.117-.142.058-.01.332.252.254.639-.176.875l-.382.21.323-.253zm-50.152-.2c.147-.028.358-.027.47.003.113.029-.006.052-.265.05-.259 0-.351-.025-.205-.053zm.861.04c.027-.023.34-.072.696-.109.418-.043.543-.032.353.031-.292.097-1.143.161-1.049.079zm17.66-.04c.18-.028.444-.027.588.001.145.028-.002.05-.325.05-.323-.001-.441-.024-.263-.051zm-19.345-.112a.454.454 0 0 1 .294 0c.08.033.014.06-.147.06-.162 0-.228-.027-.147-.06zm18.346-.005c.146-.028.358-.027.47.002.112.03-.007.053-.266.051-.259 0-.35-.025-.204-.053zm3.232.002a.965.965 0 0 1 .412 0c.113.03.02.054-.206.054-.227 0-.32-.024-.206-.054zm-22.49-.348a6.08 6.08 0 0 1-.792-.548c-.255-.23-.27-.23-.5-.023-.131.118-.267.186-.302.15-.035-.035.08-.177.256-.316l.32-.252.362.348c.2.192.6.484.892.65.29.165.476.3.411.3s-.356-.139-.647-.31zm4.146.23a.965.965 0 0 1 .411 0c.113.03.02.054-.206.054-.226 0-.319-.024-.205-.053zm.793-.12c.097-.036.322-.14.5-.229.178-.09.323-.137.323-.104 0 .092-.676.418-.846.408-.103-.006-.095-.031.023-.075zm13.002-.219c-.2-.199-.46-.638-.379-.638.027 0 .19.186.363.412.328.429.336.546.016.226zm26.921-.2c-.16-.098-1.172-.164-3.175-.207l-2.94-.064 2.768-.024c2.493-.023 2.832-.002 3.41.206.354.127.537.231.407.232-.129 0-.34-.064-.47-.143zm-38.335-.33c.388-.202.884-.534 1.102-.737.313-.292.369-.315.263-.11-.139.27-1.3 1.01-1.79 1.141-.155.041.037-.09.425-.293zm39.894.162c.147-.028.358-.027.47.002.113.03-.006.053-.265.051-.259 0-.35-.025-.205-.053zm-9.32-.15c-.146-.063.009-.076.411-.035.356.036.67.085.696.108.101.088-.882.022-1.107-.074zm10.62-.082c.085-.034.186-.03.225.009.04.039-.03.067-.154.061-.137-.006-.165-.033-.071-.07zm2.962-.038c-.097-.062-.124-.114-.059-.114s.197.052.294.114c.097.063.123.114.059.114a.706.706 0 0 1-.294-.114zm-.706-.117c-.097-.063-.123-.114-.059-.114.065 0 .197.051.294.114.097.062.124.114.06.114a.706.706 0 0 1-.295-.114zm-33.24-.463c-.4-.254-.789-.584-.865-.734-.121-.24-.099-.232.181.06.176.183.578.491.894.686.487.3.675.455.545.45-.016 0-.356-.209-.755-.462zm18.953-.125-.47-.084.433-.017c.24-.01.467.036.507.1.04.065.056.11.036.102a7.783 7.783 0 0 0-.506-.101zm-27.256-.59c.208-.219.398-.374.423-.345.024.03-.146.208-.379.397l-.422.344zm24.669.129c-1.291-.367-1.23-.42.117-.103.259.06.709.153 1 .204l.529.093-.47.003c-.26.002-.788-.087-1.176-.197zm-17.756-.479c-.041-.066.006-.086.11-.046.204.078.242.163.073.163-.061 0-.143-.053-.183-.117zm16.227.033a.913.913 0 0 1-.345-.16c-.06-.058.066-.055.28.007.607.174.658.296.065.153zm-1.294-.421c-.353-.195-.747-.276-1.587-.327l-1.117-.067 1.018-.021c.912-.019 1.097.016 1.764.332.41.194.666.35.57.347-.098-.003-.389-.122-.648-.264zm-15.58.034c-.107-.068-.121-.114-.037-.116.077 0 .173.052.213.116.09.146.05.146-.176 0zm-4.587-.044c0-.025.093-.117.206-.206.187-.146.19-.142.045.044-.154.196-.25.259-.25.162zm3.678-.516c-.338-.234-.591-.449-.564-.476.052-.052 1.237.782 1.237.87 0 .072-.006.068-.673-.394zm-3.038.038c.126-.101.28-.183.343-.183.15 0 .083.054-.277.225-.277.133-.281.13-.066-.042zm16.332-.104c-.518-.191-.626-.332-.15-.195.214.061.444.165.51.231.143.144.12.141-.36-.036zm-15.208-.241c0-.025.093-.117.206-.206.187-.146.19-.142.044.044-.153.196-.25.259-.25.162zm.566-.389c.085-.034.186-.03.226.009.039.04-.03.067-.155.062-.137-.006-.165-.034-.07-.071zm14.78-.324c.259-.091.63-.163.823-.161.345.004.344.007-.059.095-.226.05-.596.123-.823.161-.407.07-.406.068.06-.095zm1.33-.264c.085-.034.187-.03.226.01.039.038-.03.066-.155.06-.137-.005-.164-.033-.07-.07zm.468-.215c.066-.13.245-.341.396-.47.266-.224.265-.22-.017.12-.468.563-.507.6-.38.35zm1.414-.843c.085-.034.186-.03.225.009.04.039-.03.067-.154.062-.137-.006-.165-.034-.071-.071zm1.702-.242c.44-.023 1.128-.023 1.53 0 .4.023.041.041-.8.041-.84 0-1.169-.019-.73-.041zm2.759-.109a.454.454 0 0 1 .294 0c.08.033.015.06-.147.06-.162 0-.228-.027-.147-.06zm1.058-.235a.454.454 0 0 1 .294 0c.081.033.015.06-.147.06-.161 0-.228-.027-.147-.06zm1.184-.237c.085-.034.186-.03.225.009.04.039-.03.066-.154.061-.137-.006-.165-.033-.071-.07zm1.55-.508a.706.706 0 0 1 .294-.114c.065 0 .039.051-.058.114a.706.706 0 0 1-.294.114c-.065 0-.039-.051.058-.114zm.824-.288c0-.032.158-.14.352-.241.194-.1.353-.156.353-.124s-.159.141-.353.241c-.194.1-.352.156-.352.124zm1.49-.992c.033-.122.001-.258-.07-.301-.07-.044-.127-.227-.127-.407 0-.38-.32-.717-.682-.717-.139 0-.49-.115-.781-.257-.427-.207-.581-.231-.797-.127-.487.236-1.062.385-1.432.37-.218-.007-.27-.032-.13-.06.96-.19 1.49-.333 1.541-.416.095-.153.558-.115.818.067.13.09.419.182.643.203.492.045.933.414.936.783 0 .148.086.397.188.553.103.157.153.34.11.408-.126.206-.278.137-.216-.1zm-5.46-1.27a.965.965 0 0 1 .412 0c.114.03.02.053-.205.053-.227 0-.32-.024-.206-.054zm-1.557-.39c-.55-.181-.95-.335-.888-.341.16-.017 2.064.573 2.064.639 0 .083-.094.06-1.176-.298zm2.33.273c.084-.034.186-.03.225.009.039.039-.03.066-.154.061-.137-.006-.165-.033-.072-.07zm-4.8-.733c0-.064-.127-.305-.283-.534-.172-.254-.258-.512-.22-.66.048-.18-.077-.38-.48-.772-.347-.336-.545-.631-.545-.809 0-.153-.053-.311-.118-.351-.065-.04-.118-.126-.118-.19 0-.263.238.053.368.488.077.256.189.466.248.466.258 0 .825.736.88 1.143.084.625.468 1.091.898 1.091.447 0 .373.065-.189.166-.269.049-.44.034-.44-.038zm1.154.027c.085-.034.186-.03.225.009.04.04-.03.067-.154.062-.137-.006-.165-.034-.071-.071zm-3.027-3.99a1.713 1.713 0 0 0-.307-.923c-.287-.423-.294-.474-.177-1.311.097-.703.087-.968-.053-1.37a3.551 3.551 0 0 1-.175-.955c-.001-.254-.11-.632-.247-.852-.288-.466-.207-.54.091-.085.113.172.241.582.286.912.045.33.137.81.205 1.07.082.312.086.726.012 1.234-.106.73-.094.798.258 1.5.305.606.347.782.242 1-.114.237-.128.214-.135-.22zm-1.603-6.293c-.19-.202-.61-.491-.934-.642-.576-.27-1.234-.774-1.234-.948 0-.048.172.08.382.284.21.204.62.454.908.556.534.188.993.539 1.194.912.161.299.075.255-.316-.162zm-2.267-1.984c0-.162.026-.228.06-.147a.454.454 0 0 1 0 .294c-.034.08-.06.015-.06-.147zm-.127-.539c.006-.137.033-.165.071-.07.034.084.03.185-.009.224-.04.04-.067-.03-.062-.154zm-.495-.96c-.364-.64-1.77-2.16-2.278-2.463-.13-.077-.177-.143-.106-.147.188-.01 1.45 1.123 1.875 1.685.424.56 1.046 1.601.956 1.601-.034 0-.235-.304-.447-.676zm-13.883-1.168c.085-.034.187-.03.226.009.039.039-.03.067-.155.062-.137-.006-.165-.034-.07-.072zm.493.043c0-.02.172-.192.382-.382l.382-.345-.345.382c-.322.356-.42.436-.42.345zm-1.174-.289c0-.082.137-.36.307-.617.185-.28.348-.74.405-1.144l.095-.676-.03.656c-.023.485-.127.82-.402 1.293-.205.35-.373.57-.375.488zm2.232-.66c0-.023.093-.116.206-.205.186-.146.19-.142.044.045-.153.195-.25.258-.25.16zm.647-.604c.13-.105.34-.243.47-.307l.235-.115-.235.192c-.13.105-.34.243-.47.306l-.235.116zm8.744-.18-.278-.243.324.197c.178.108.323.217.323.242 0 .092-.098.04-.369-.197zm-.572-.347c-.106-.068-.12-.114-.036-.115.077-.001.173.05.213.115.09.146.05.146-.177 0zm-6.761-.296c.13-.105.34-.243.47-.307l.235-.115-.235.191c-.13.106-.34.244-.47.307l-.235.116zm5.916-.02c.085-.033.187-.029.226.01.039.039-.03.067-.155.062-.137-.006-.165-.034-.07-.071zm-9.49-.665c-.007-.13.09-.243.245-.284.141-.037.55-.215.907-.395.357-.18.672-.305.7-.277.062.062-1.4.761-1.591.761-.077 0-.163.093-.193.206-.049.187-.055.186-.067-.01zm4.662.08a.454.454 0 0 1 .294 0c.08.033.014.06-.147.06-.162 0-.228-.027-.147-.06zm2.765-.12a.676.676 0 0 1 .353.003c.08.032-.014.057-.208.054-.194-.002-.26-.028-.145-.058zm-1.002-.115a.454.454 0 0 1 .294 0c.081.033.015.06-.147.06-.161 0-.227-.027-.147-.06zm-4.38-.944c.065-.063.62-.425 1.235-.804.614-.379 1.421-.92 1.793-1.202.372-.283.676-.487.676-.455 0 .11-1.35 1.084-2.41 1.738-1.224.755-1.462.889-1.294.723zm4.654-3.388a16.763 16.763 0 0 0 1.437-1.822c.365-.55.902-1.324 1.193-1.72.5-.682.68-1.153.836-2.202.037-.25.092-.43.121-.4.03.03.002.417-.061.863-.098.69-.201.93-.702 1.634-.324.454-.929 1.328-1.345 1.942-.416.615-1.093 1.435-1.504 1.823l-.748.705zm3.674-6.996c0-.42.021-.593.047-.383.027.21.027.555 0 .765-.026.21-.047.038-.047-.382zm-.146-.975c-.016-.358-.444-1.083-.733-1.243-.152-.083-.382-.316-.51-.518-.135-.21-.515-.506-.883-.69-.369-.185-.63-.39-.609-.478.021-.084.196-.4.389-.702.286-.45.371-.749.465-1.647.064-.603.083-1.309.043-1.567-.1-.654-.495-1.445-.761-1.53-.123-.039-.384-.275-.582-.524-.273-.345-.5-.49-.946-.604-.364-.093-.699-.276-.881-.48-.162-.183-.346-.331-.41-.331-.063 0-.242-.202-.398-.448-.29-.46-.852-.728-1.527-.728-.366 0-.387-.13-.093-.564 1.03-1.513 1.514-2.482 1.661-3.317.082-.464.095-.481.108-.144.018.517-.446 1.623-1.14 2.715a73.24 73.24 0 0 0-.644 1.026c-.045.078.05.128.244.13.523.004 1.192.354 1.41.737.11.197.293.388.405.424.111.036.302.19.423.345.12.153.532.388.914.52.382.134.784.362.894.508.205.272.288.357.884.895.496.45.667 1.382.527 2.871-.096 1.015-.158 1.229-.528 1.823l-.42.674.7.333c.443.21.76.45.867.656.092.179.351.465.576.637.403.307.739 1 .623 1.285-.034.085-.063.057-.068-.064zm-5.573-16.43c.038-.29.089-.55.112-.577.089-.102.021.647-.078.872-.07.157-.08.06-.034-.294zm.056-1.41c0-.162.026-.228.059-.147a.454.454 0 0 1 0 .294c-.033.08-.06.014-.06-.147zm-.118-.588c0-.162.027-.228.06-.147a.454.454 0 0 1 0 .294c-.033.08-.06.014-.06-.147zm-.247-.689c-.078-.188-.3-.505-.494-.703l-.352-.36.183-.682c.1-.375.201-.841.225-1.035.04-.323.045-.317.06.07.01.232-.058.677-.152.989-.169.56-.167.573.159.989.39.497.64.95.566 1.023-.029.029-.116-.102-.195-.29zm-.595-3.521c0-.222-.133-.459-.403-.721-.222-.216-.464-.535-.536-.71-.16-.387-.793-.71-1.392-.71-.385 0-.497-.07-.887-.558l-.445-.558.466.5c.39.417.539.5.91.5.666 0 1.309.327 1.479.754.079.2.32.528.535.731.28.264.39.472.39.735 0 .201-.026.366-.058.366s-.059-.148-.059-.33zm-3.82-3.545c-.09-.287-1.111-1.07-1.93-1.482-.893-.448-.92-.524-.464-1.313.216-.374.537-.998.714-1.386.176-.388.321-.626.323-.529.002.097-.28.734-.624 1.415l-.627 1.24.267.201c.147.11.304.201.348.201.045 0 .495.278 1.001.616.805.54 1.287 1.068 1.123 1.231-.029.029-.087-.058-.13-.194zm-1.35-5.004c0-.065.051-.197.114-.294.062-.097.114-.123.114-.059a.706.706 0 0 1-.114.294c-.063.097-.114.124-.114.059zm.245-.53c-.003-.031.096-.349.222-.705.125-.355.227-.54.228-.411 0 .201-.434 1.28-.45 1.117zm.466-1.596c.006-.137.034-.165.071-.071.034.084.03.186-.009.225-.04.039-.067-.03-.062-.154zm.138-.696c.001-.259.025-.35.053-.205.029.147.028.358-.002.47-.029.113-.052-.006-.05-.265zm.115-.882c0-.227.024-.32.054-.206.03.113.03.298 0 .412-.03.113-.054.02-.054-.206zm-.13-1.235c-.02-.454-.27-1.094-.67-1.705-.119-.181-.057-.144.16.098.397.441.658 1.22.581 1.734-.042.285-.054.263-.07-.127zm-.955-2.224c0-.112-.164-.368-.364-.568-.331-.331-.367-.442-.405-1.255l-.042-.892.1.857c.08.684.16.918.4 1.159.316.315.499.716.38.835-.038.038-.07-.023-.07-.136zm-.99-3.489c-.044-.333-.057-.63-.028-.658.029-.03.09.219.136.55.045.332.058.628.027.658-.03.03-.091-.217-.135-.55zm-.177-1c.006-.136.033-.164.071-.07.034.084.03.186-.009.225-.04.039-.067-.03-.062-.154zm-.24-.624a1.835 1.835 0 0 0-.383-.563c-.132-.117-.336-.436-.453-.708-.421-.975-2.176-1.903-4.166-2.202-.629-.094-1.177-.206-1.218-.247-.042-.042.11-.047.336-.012.226.035.729.098 1.117.14.921.1 2.005.514 2.968 1.137.645.418.82.603 1.045 1.113.149.336.373.666.498.733.125.067.285.29.357.496.168.48.089.57-.1.113zm-15.138-3.485c.181-.16.39-.29.464-.29.073 0-.046.132-.265.294-.51.375-.628.373-.199-.004zm4.55-.062c.227-.053.701-.18 1.055-.28.656-.187 2.578-.242 2.977-.084.116.046-.345.062-1.023.037-1.01-.037-1.382 0-2.051.203-.45.137-.942.242-1.094.235-.202-.01-.167-.04.136-.11zm-.727-.074c.084-.034.186-.03.225.01.039.039-.03.066-.154.061-.137-.006-.165-.033-.071-.07zm-.47-.117c.084-.034.185-.03.225.009.039.039-.03.067-.155.062-.137-.006-.165-.034-.07-.071zm-2.534-.119a.676.676 0 0 1 .353.004c.08.032-.014.057-.208.054-.194-.002-.26-.028-.145-.058zm.968-.036c-.396-.07-.415-.085-.118-.092.194-.004.591.034.882.086.475.085.487.094.118.092a6.243 6.243 0 0 1-.882-.086z" style="fill:#39c1ba;stroke-width:.117593" transform="translate(-385.535 -203.99)"/><path d="M404.872 325.264a.965.965 0 0 1 .412 0c.113.03.02.054-.206.054-.226 0-.319-.024-.206-.054zm1.529 0a.965.965 0 0 1 .412 0c.113.03.02.054-.206.054-.227 0-.32-.024-.206-.054zm-2.286-.117c.085-.034.187-.03.226.01.039.039-.03.066-.155.061-.137-.006-.165-.033-.07-.07zm3.058 0c.085-.034.186-.03.225.01.04.039-.03.066-.154.061-.137-.006-.165-.033-.071-.07zm.384-.072c.027-.02.208-.129.402-.243l.353-.206-.278.242c-.152.133-.333.242-.402.242-.068 0-.102-.016-.075-.035zm-4.596-.312a2.993 2.993 0 0 1-.705-.553l-.294-.335.294.256c.162.141.532.392.823.557.604.344.506.407-.118.075zm-5.203-.19c-.178-.097-.323-.203-.323-.235 0-.033.11 0 .247.073.515.276 2.568-.239 3.221-.808.352-.305.63-.265.87.124.159.259.157.26-.068.06-.297-.263-.423-.259-.678.023a1.223 1.223 0 0 1-.553.305c-.19.041-.66.203-1.044.359-.797.324-1.212.348-1.672.099zm10.73-.345c.152-.161.303-.294.335-.294.033 0-.065.133-.217.294-.152.162-.303.294-.335.294-.032 0 .065-.132.217-.294zm-12.016-.257c.085-.034.186-.03.225.01.04.039-.03.066-.154.061-.137-.006-.165-.033-.071-.07zm-.801-.213c-.227-.087-.333-.16-.236-.162.097-.002.336.069.53.158.454.208.243.21-.294.004zm-9.948-.277c.24-.27.305-.305.305-.163 0 .05-.119.162-.265.252-.263.162-.263.161-.04-.09zm9.22.02c.085-.034.186-.03.225.01.04.038-.03.066-.154.06-.137-.005-.165-.033-.07-.07zm14.817 0c.085-.034.186-.03.225.01.04.038-.03.066-.154.06-.137-.005-.165-.033-.071-.07zm-16.03-.315c-.73-.275-1.481-.65-1.317-.658.052-.003.262.082.467.188a11.6 11.6 0 0 0 1.141.462c.422.147.688.27.591.271-.097.001-.494-.117-.882-.263zm-7.494-.095a.3.3 0 0 1 .278-.073c.089.03.035.083-.124.125-.195.05-.241.036-.154-.052zm1.527-.293a.454.454 0 0 1 .294 0c.08.033.014.06-.147.06-.162 0-.228-.027-.147-.06zm1.763-.118a.454.454 0 0 1 .294 0c.081.033.015.06-.147.06-.161 0-.227-.027-.147-.06zm.706-.117a.454.454 0 0 1 .294 0c.08.032.015.06-.147.06-.162 0-.228-.028-.147-.06zm.617-.157a.726.726 0 0 1 .353-.108c.116.004.096.04-.059.108-.323.138-.509.138-.294 0zm.801-.08c.085-.035.187-.03.226.008.039.04-.03.067-.155.062-.137-.006-.164-.034-.07-.071zm19.638-.354c.085-.034.187-.03.226.01.039.039-.03.066-.155.061-.137-.006-.164-.033-.07-.07zm-1.528-.235c.085-.034.186-.03.225.01.04.038-.03.066-.154.061-.137-.006-.165-.033-.071-.071zm-8.24-2.59c.146-.027.385-.027.53 0 .146.029.027.052-.265.052-.29 0-.41-.023-.264-.051zm-3.167-.114c.085-.034.187-.03.226.009.039.039-.03.067-.155.061-.137-.006-.165-.033-.07-.07zm1.882 0c.085-.034.186-.03.225.009.04.039-.03.067-.154.061-.137-.006-.165-.033-.071-.07zm-4.3-1.39c.001-.259.026-.35.054-.204s.027.358-.002.47c-.03.112-.052-.007-.051-.266zm.527-1.014c.08-.08.175-.117.211-.08.036.036-.029.102-.145.146-.167.064-.18.05-.066-.066zm1.913-.058c.683-.088 1.765-.097 1.764-.016 0 .049-.463.08-1.029.07-.566-.01-.896-.034-.735-.054zm1.224-1.956-.224-.265.264.224c.249.211.319.306.224.306-.022 0-.141-.12-.264-.265zm-4.605-1.345a.965.965 0 0 1 .412 0c.113.03.02.054-.206.054-.226 0-.319-.025-.206-.054zm.941-.118a.965.965 0 0 1 .412 0c.113.03.02.054-.206.054-.226 0-.319-.024-.206-.054zm-2.408-.121c.211-.027.529-.026.705 0 .177.027.004.049-.384.048-.388 0-.533-.022-.321-.049zm-.923-.356-.285-.324.324.285c.177.157.323.303.323.324 0 .092-.095.017-.362-.285zm-.375-1.196c-.051-.196-.036-.242.051-.154a.301.301 0 0 1 .073.278c-.03.088-.083.035-.124-.124zm-.523-2.067c.001-.324.024-.442.05-.263.028.178.027.443-.001.588-.028.144-.05-.002-.05-.325zm-.872-1.559c-.146-.186-.142-.19.045-.044.196.154.258.25.161.25-.024 0-.117-.092-.206-.206zm-1.749-1.793c-.069-.13-.099-.235-.067-.235.033 0 .116.106.185.235.07.13.1.235.067.235-.032 0-.115-.105-.185-.235zm-1.91-.313a.454.454 0 0 1 .294 0c.08.033.014.06-.147.06-.162 0-.228-.027-.147-.06zm-.625-.212a1.076 1.076 0 0 0-.544-.177c-.174-.002-.35-.056-.39-.121-.129-.21.432-.124.84.127.217.135.395.267.395.294 0 .083-.063.057-.3-.123zm.218-3.912c-.421-.038-.55-.118-.864-.538l-.369-.493.408.459c.364.408.45.45.793.381.222-.044.45-.022.539.052.358.297 1.565-.836 2.31-2.17.113-.203.205-.289.205-.192 0 .201-.201.522-.904 1.443-.602.789-1.045 1.151-1.375 1.124l-.743-.066zm3.04-2.854c0-.097.045-.282.1-.411.064-.148.102-.17.102-.059 0 .097-.046.282-.101.412-.064.148-.101.17-.101.058zm.227-1.009c.006-.137.034-.165.071-.071.034.085.03.186-.009.225-.039.04-.066-.03-.061-.154zm.118-.47c.006-.137.034-.165.071-.071.034.085.03.186-.009.225-.039.04-.067-.03-.062-.154zm.127-.637c0-.162.027-.228.06-.147a.454.454 0 0 1 0 .294c-.033.08-.06.014-.06-.147zm.122-.647c.002-.194.029-.26.058-.145a.676.676 0 0 1-.004.353c-.032.08-.056-.014-.054-.208zm36.409.214c.085-.034.186-.03.225.009.04.039-.03.067-.154.061-.137-.006-.165-.033-.071-.07zm.58-.115a.454.454 0 0 1 .294 0c.081.032.015.059-.147.059-.161 0-.228-.027-.147-.06zm4.946-.12c.085-.035.187-.03.226.008.039.04-.03.067-.154.062-.137-.006-.165-.033-.071-.07zm1.287.001a.454.454 0 0 1 .294 0c.08.033.014.06-.147.06-.162 0-.228-.027-.147-.06zm8.474-.002c.085-.034.186-.03.225.01.04.039-.03.066-.154.061-.137-.006-.165-.033-.071-.07zm-12.945-.122a4.39 4.39 0 0 1 .823 0c.244.025.073.046-.38.047-.453 0-.652-.02-.443-.047zm1.65.002c.146-.028.358-.027.47.002.113.03-.007.053-.266.051-.258 0-.35-.025-.204-.053zm-7.873-.114c.085-.034.186-.03.225.009.04.039-.03.066-.154.061-.137-.006-.165-.033-.07-.07zm.706 0c.085-.034.186-.03.225.009.04.039-.03.066-.154.061-.137-.006-.165-.033-.071-.07zm-2.705-.118c.085-.034.186-.03.225.009.04.04-.03.067-.154.062-.137-.006-.165-.034-.071-.071zm-1.712-.118a.965.965 0 0 1 .411 0c.113.03.02.053-.206.053-.226 0-.319-.024-.205-.053zm-28.663-.619c.039-.468.123-.705.316-.882l.263-.241-.2.242c-.11.133-.25.53-.315.882l-.116.64zm27.928.465c-.243-.078-.253-.096-.06-.105a.83.83 0 0 1 .412.105c.206.133.063.133-.352 0zm-.91-.082a.676.676 0 0 1 .353.004c.08.032-.014.057-.208.054-.194-.002-.259-.029-.145-.058zm-1.207-.448c-.162-.092-.238-.17-.17-.172.069-.002.228.074.353.169.29.22.198.221-.183.004zm-21.725-.14a.965.965 0 0 1 .411 0c.113.03.02.054-.206.054-.226 0-.318-.024-.205-.053zm1.058 0a.965.965 0 0 1 .412 0c.113.03.02.054-.206.054-.227 0-.32-.024-.206-.053zm17.286 0a.965.965 0 0 1 .412 0c.113.03.02.054-.206.054-.226 0-.319-.024-.206-.053zm-16.514-.116c.085-.034.186-.03.225.009.04.039-.03.067-.154.061-.137-.006-.165-.033-.071-.07zm15.691-.001a.965.965 0 0 1 .412 0c.113.03.02.054-.206.054-.227 0-.32-.024-.206-.054zm3.175 0a.965.965 0 0 1 .412 0c.113.03.02.054-.206.054-.227 0-.32-.024-.206-.054zm29.73-.105c.007-.137.034-.165.072-.071.034.085.03.186-.01.225-.038.04-.066-.03-.061-.154zm-47.898-.01a.454.454 0 0 1 .294 0c.08.033.015.06-.147.06-.162 0-.228-.027-.147-.06zm-4.727-.515c-.622-.436-.697-.46-.882-.294-.292.264-.433.224-.182-.053.246-.272.593-.307.729-.073.051.09.355.327.675.53.32.201.527.366.46.366-.066 0-.426-.214-.8-.476zm5.58.312c0-.025.082-.077.182-.116.105-.04.152-.02.11.046-.068.112-.293.166-.293.07zm12.767-.138c-.27-.27-.227-.36.05-.11.13.118.235.232.235.254 0 .087-.109.032-.285-.144zm26.979-.174c-.129-.087-.081-.098.176-.04.433.097.526.164.226.162a.855.855 0 0 1-.402-.122zm-.882-.23-.47-.084.411-.015c.226-.008.491.037.588.1.192.124.165.124-.53 0zm2.44.037a.965.965 0 0 1 .411 0c.114.03.021.054-.205.054-.227 0-.32-.024-.206-.054zm-9.378-.155c-.151-.066-.026-.078.353-.034.323.037.61.087.637.11.102.088-.765.021-.99-.076zm2.503.031a14.344 14.344 0 0 1 1.411 0c.37.024.037.043-.74.043-.775 0-1.077-.02-.67-.043zm2.642.002c.242-.025.639-.025.882 0 .242.026.044.046-.441.046-.486 0-.684-.02-.441-.046zm-35.543-.082c0-.032.106-.115.235-.185.13-.069.236-.1.236-.067s-.106.116-.236.185c-.129.07-.235.1-.235.067zm41.018-.03c.085-.034.186-.03.225.01.04.038-.03.066-.154.061-.137-.006-.165-.034-.071-.071zm-40.43-.308c0-.02.166-.193.368-.383.257-.242.322-.272.217-.098-.129.213-.585.588-.585.48zm9.274-.442-.278-.242.323.197c.178.108.324.217.324.242 0 .092-.098.04-.37-.197zm19.125.007-.47-.084.433-.017c.24-.009.467.037.507.101.04.065.056.11.036.101a7.783 7.783 0 0 0-.506-.1zm-19.754-.543c-.112-.17-.144-.273-.073-.229.135.084.41.537.324.537-.027 0-.14-.139-.251-.308zm17.776.231c-.043-.042-.277-.12-.52-.17l-.442-.095.47.057c.259.031.709.101 1 .155l.529.099-.48.015c-.264.01-.515-.019-.557-.061zm-25.304-.276c.117-.129.24-.235.272-.235.032 0-.037.106-.154.235-.117.13-.24.236-.272.236-.032 0 .037-.106.154-.236zm23.872-.117c-.155-.067-.176-.103-.06-.108a.721.721 0 0 1 .354.108c.215.139.029.139-.294 0zm-.706-.202c-.36-.086-.47-.247-.125-.181.168.032.334.105.369.162.035.057.047.097.028.09a5.912 5.912 0 0 0-.272-.07zm-.786-.231c.085-.034.186-.03.225.009.04.039-.03.067-.154.062-.137-.006-.165-.034-.071-.072zm-.625-.244c-.194-.108-.644-.23-1-.272l-.646-.075.563-.017c.498-.016 1.494.327 1.494.514 0 .078-.012.073-.411-.15zm-20.05.044c0-.024.093-.117.206-.205.187-.147.19-.142.045.044-.154.196-.25.258-.25.161zm.64-.478c.126-.1.28-.183.343-.183.15 0 .083.055-.277.226-.277.132-.281.13-.066-.043zm3.108-.036c-.146-.186-.142-.19.045-.044.113.089.206.181.206.206 0 .096-.097.034-.25-.162zm13.98.123c.147-.028.359-.027.471.002.113.03-.007.052-.266.051-.258-.001-.35-.025-.204-.054zm-.56-.152c-.105-.069-.12-.115-.035-.116.077 0 .172.051.212.116.09.146.05.146-.176 0zm-13.94-.3c-.22-.176-.219-.178.036-.055.145.07.264.152.264.183 0 .09-.06.064-.3-.129zm13.3.076c-.035-.059.04-.08.17-.046.275.072.31.152.066.152-.093 0-.199-.048-.235-.106zm.406-.717c.402-.129.71-.129.411 0-.13.056-.34.1-.47.098-.19-.003-.178-.022.059-.098zm.793-.195a.454.454 0 0 1 .294 0c.081.032.015.059-.147.059-.161 0-.227-.027-.147-.06zm1.441-.687c.152-.162.303-.294.335-.294.032 0-.066.132-.217.294-.152.162-.303.294-.335.294-.033 0 .065-.132.217-.294zm2.856-.734c.44-.023 1.128-.022 1.53 0 .4.023.041.042-.8.042-.84 0-1.169-.02-.73-.042zm3.942-.346c.085-.034.187-.03.226.01.039.038-.03.066-.155.061-.137-.006-.165-.033-.07-.071zm3.754-1.228c.08-.08.175-.116.21-.08.037.036-.028.102-.144.146-.168.064-.181.05-.066-.066zm1.129-.838c-.063-.848-.37-1.381-.794-1.381-.137 0-.446-.106-.687-.235-.474-.254-.798-.297-.975-.13-.061.058-.297.135-.523.171l-.412.067.432-.142c.237-.079.47-.182.519-.231.141-.142.565-.102.82.077.13.09.44.198.69.237.489.078.89.437.89.796 0 .122.085.35.187.506.103.157.153.34.11.407-.124.202-.236.14-.257-.141zm-5.36-1.224a.454.454 0 0 1 .294 0c.08.033.014.06-.147.06-.162 0-.228-.027-.147-.06zm-.97-.22c-.295-.142-.304-.158-.06-.098.334.081.708.272.53.27-.065-.001-.277-.079-.47-.172zm1.682.1c.085-.034.187-.03.226.009.039.04-.03.067-.154.062-.137-.006-.165-.034-.072-.071zm.699-.115a.454.454 0 0 1 .294 0c.08.033.014.06-.147.06-.162 0-.228-.027-.147-.06zm-3.175-.235a.454.454 0 0 1 .294 0c.08.032.014.059-.147.059-.162 0-.228-.027-.147-.06zm-2.323-.398c0-.074-.106-.269-.235-.433a1.27 1.27 0 0 1-.235-.67c0-.285-.124-.493-.53-.89-.313-.31-.528-.627-.528-.783 0-.144-.053-.295-.118-.335-.065-.04-.118-.126-.118-.19 0-.262.238.053.368.489.077.256.179.465.226.465.246 0 .818.71.82 1.018 0 .184.146.546.323.805.273.4.375.464.674.43.482-.054.337.05-.206.148-.298.054-.44.036-.44-.054zm1.154.043c.085-.034.186-.03.225.009.04.039-.03.066-.154.061-.137-.006-.165-.033-.07-.07zm-2.957-3.997c-.043-.043-.078-.168-.078-.277 0-.11-.136-.399-.3-.642-.278-.41-.292-.49-.181-1.046l.12-.602-.055.574c-.042.442.001.665.188.966.213.345.5 1.106.416 1.106-.017 0-.067-.036-.11-.079zm-.412-2.979c0-.161.026-.228.059-.147a.454.454 0 0 1 0 .294c-.033.081-.06.015-.06-.147zm-.127-.431a1.923 1.923 0 0 0-.077-.353c-.065-.205-.061-.205.067-.005.074.116.109.275.077.353-.042.103-.06.104-.067.005zm-.225-1.084a2.233 2.233 0 0 0-.28-.94c-.173-.285-.197-.376-.07-.275.292.235.468.774.417 1.275l-.047.456zm-.748-1.644c-.085-.12-.36-.358-.611-.529-.252-.17-.389-.31-.305-.31.21 0 .908.547 1.059.828.156.293.06.3-.143.011zm-2.02-1.378c-.185-.163-.313-.32-.285-.348.028-.028.203.107.389.3.409.428.356.452-.103.048zm-.78-1.813c-.069-.13-.099-.235-.067-.235.033 0 .116.106.185.235.07.13.1.235.067.235-.032 0-.115-.105-.185-.235zm-.352-.588c-.07-.129-.1-.235-.067-.235.032 0 .115.106.184.235.07.13.1.235.067.235-.032 0-.115-.105-.184-.235zm-1.059-1.274c-.485-.497-.987-.966-1.117-1.042-.13-.077-.177-.142-.106-.146.188-.01 1.462 1.131 1.85 1.658.184.248.317.447.295.442-.022-.005-.437-.416-.922-.912zm-12.053.098c.117-.129.24-.235.272-.235.032 0-.037.106-.154.235-.117.13-.24.236-.272.236-.032 0 .037-.106.154-.236zm-1.343-.094c-.005-.084.123-.348.285-.586.161-.238.294-.389.294-.335 0 .053-.099.238-.219.41-.12.171-.248.39-.284.488-.045.12-.07.127-.076.023zm.728-1.787c0-.291.023-.41.051-.265.028.146.028.384 0 .53-.028.145-.05.026-.05-.265zm10.316 0c-.106-.069-.12-.115-.036-.116.077 0 .173.051.213.116.09.146.05.146-.177 0zm-.845-.316c.085-.034.187-.03.226.01.039.039-.03.066-.155.061-.137-.006-.165-.033-.07-.07zm-5.74-.087c0-.033.106-.116.235-.185.13-.07.236-.1.236-.067 0 .032-.106.115-.236.185-.129.069-.235.099-.235.067zm.912-.498a.454.454 0 0 1 .294 0c.08.033.014.06-.147.06-.162 0-.228-.027-.147-.06zm-4.675-.146c0-.122.224-.299.29-.229.022.023-.035.11-.125.193s-.165.1-.165.036zm7.497.028a.454.454 0 0 1 .294 0c.08.033.015.06-.147.06-.162 0-.228-.027-.147-.06zm-1.059-.117a.454.454 0 0 1 .294 0c.081.032.015.059-.147.059-.161 0-.227-.027-.147-.06zm-5.85-.242c.097-.036.322-.139.5-.229s.323-.137.323-.104c0 .092-.676.418-.846.408-.103-.006-.095-.03.023-.075zm1.47-.706c.065-.062.33-.232.588-.377.259-.145.365-.176.235-.068-.262.218-1.007.62-.823.445zm1.47-.906c0-.033.106-.116.235-.185.13-.07.235-.1.235-.067 0 .032-.105.115-.235.184-.13.07-.235.1-.235.068zm1.656-1.156c.027-.017.181-.136.343-.265l.294-.234-.224.265c-.123.145-.277.264-.343.264-.065 0-.097-.014-.07-.03zm1.636-1.44c.481-.517.897-.967.924-1 .027-.032-.007.048-.076.177-.069.13-.484.58-.924 1l-.8.764zm1.036-1.293c.074-.13.246-.368.382-.53l.249-.293-.216.39c-.119.216-.29.454-.382.53-.14.116-.145.1-.033-.097zm.846-1.28c0-.024.093-.116.206-.205.186-.146.19-.142.044.044-.153.196-.25.258-.25.162zm.57-.753c.146-.204.325-.408.4-.454.074-.046.016.083-.129.287-.145.203-.325.408-.4.454-.073.046-.016-.084.13-.287zm.674-1.025a5.9 5.9 0 0 0 .17-.705l.085-.47.01.411c.007.226-.07.544-.169.706-.117.19-.15.21-.096.058zm.294-1.538c.006-.137.034-.165.071-.071.034.085.03.186-.009.225-.039.04-.067-.03-.062-.154zm.145-1.049c0-.388.022-.532.049-.321.026.211.025.529-.001.706-.027.176-.049.004-.048-.385zm-.145-.95c.006-.137.034-.165.071-.071.034.085.03.186-.009.225-.039.04-.067-.03-.062-.154zm-.597-1.118c-.253-.207-.258-.223-.036-.114.142.069.29.178.33.243.106.171.035.14-.294-.13zm-.47-.338c0-.084-.19-.331-.42-.549-.435-.41-.418-.545.024-.188.29.235.564.72.464.821-.038.038-.068 0-.068-.084zm-1.695-1.28c-.034-.056.019-.201.117-.324.172-.214.175-.213.06.026-.067.137-.087.283-.046.323.04.041.042.075.003.075-.04 0-.1-.045-.134-.1zm.585-1.11c.044-.117.11-.182.146-.146.036.037 0 .131-.08.211-.116.115-.13.102-.066-.066zm.179-.437a.721.721 0 0 1 .107-.352c.14-.215.14-.03 0 .294-.066.155-.103.175-.107.058zm.137-1c.001-.258.025-.35.054-.204.028.147.027.358-.002.47-.03.113-.053-.006-.052-.265zm.108-.948c-.03-.7-.331-1.617-.619-1.88-.138-.126-.47-.447-.737-.714-.268-.266-.566-.513-.663-.549-.14-.05-.133-.066.03-.073.112-.005.284.083.38.196.225.267.626.665 1.024 1.018.377.335.717 1.398.65 2.036l-.045.445zm-2.693-3.308c-.144-.028-.356-.168-.47-.312a2.823 2.823 0 0 0-.5-.462c-.16-.111-.228-.202-.152-.202.076 0 .318.185.538.412.22.226.474.412.564.413.09 0 .244.053.341.116.181.117.132.122-.32.035zm-1.448-1.339c-.164-.306-.796-.578-1.343-.578-.229 0-.416-.045-.416-.1 0-.15 1.161.063 1.48.272.255.167.604.651.469.651-.032 0-.118-.11-.19-.245zm-1.463-1.21c.11-.17.224-.308.251-.308.085 0-.189.453-.324.537-.071.044-.039-.06.073-.229zm.41-.661c.07-.13.152-.235.185-.235.032 0 .002.105-.068.235-.069.13-.152.235-.184.235-.033 0-.002-.106.067-.235zm.8-1.466c.175-.418.332-.719.35-.668.036.105-.53 1.428-.612 1.428-.03 0 .089-.342.263-.76zm.399-1.18c.002-.194.029-.26.058-.145a.676.676 0 0 1-.004.353c-.032.08-.056-.014-.054-.208zm.175-1c.038-.29.089-.55.112-.578.089-.102.021.648-.078.872-.07.157-.08.06-.034-.294zm.056-1.41c0-.162.026-.229.059-.148a.454.454 0 0 1 0 .294c-.033.081-.06.015-.06-.147zm-.127-.54c.006-.137.033-.165.07-.07.035.084.03.186-.008.225-.04.039-.067-.03-.062-.155zm-.233-.717a4.678 4.678 0 0 0-.488-.75c-.333-.421-.34-.45-.178-.89.092-.25.171-.392.176-.316.005.077-.046.28-.111.452-.101.266-.069.376.218.743.39.496.647.957.576 1.028-.027.027-.114-.093-.193-.267zm-.45-2.624c0-.291.023-.41.05-.265.029.146.029.384 0 .53-.027.145-.05.026-.05-.265zm-.15-.999c0-.177-.138-.417-.35-.604-.366-.327-1.004-1.396-.664-1.114.1.083.217.265.26.405.043.14.256.42.475.623.256.237.397.478.397.676 0 .169-.027.307-.059.307s-.059-.132-.059-.293zm-1.587-1.941c-.04-.065-.268-.126-.507-.136-.433-.02-.433-.02-.053-.067.226-.028.488.028.644.137.144.1.2.184.125.184a.275.275 0 0 1-.21-.118zm-1.698-.737c-.334-.413-.348-.448-.077-.204.281.254.615.71.515.704-.019-.001-.215-.226-.438-.5zm-.783-1.174-.224-.265.265.224c.248.211.318.306.224.306-.023 0-.142-.12-.265-.265zm-.757-.567-.408-.361.441.316c.39.28.517.406.407.406-.018 0-.217-.162-.44-.361zm-.871-.524c-.126-.095-.179-.171-.118-.17.061.003.214.082.34.177.125.095.178.171.117.169-.061-.002-.214-.081-.34-.176zm-.704-.398c-.162-.18-.177-.275-.073-.47.073-.136.158-.246.19-.246.033 0 0 .11-.071.244-.108.201-.085.282.131.47.144.125.21.227.145.227s-.21-.101-.322-.225zm.285-1.069c.07-.129.153-.235.185-.235s.002.106-.067.235c-.07.13-.152.236-.185.236-.032 0-.002-.106.067-.236zm.353-.698c0-.061.053-.143.116-.183.067-.04.087.006.047.111-.079.204-.163.24-.163.072zm.24-.376c-.002-.04.073-.253.167-.47.095-.218.172-.316.172-.22 0 .17-.33.843-.34.69zm.945-2.64c.006-.137.034-.164.071-.07.034.084.03.186-.009.225-.039.039-.066-.03-.061-.155zm.118-.47c.006-.137.034-.165.071-.07.034.084.03.185-.009.224-.04.04-.067-.03-.062-.154zm.127-.637c0-.162.027-.228.06-.147a.454.454 0 0 1 0 .294c-.033.08-.06.015-.06-.147zm.117-.94c0-.162.027-.228.06-.148a.454.454 0 0 1 0 .294c-.033.081-.06.015-.06-.147zm-.117-1.412c0-.161.027-.228.06-.147a.454.454 0 0 1 0 .294c-.033.081-.06.015-.06-.147zm-.623-1.44c-.19-.271-.208-.334-.06-.216.209.169.484.598.382.598-.03 0-.175-.172-.322-.382zm-.545-1.005-.268-.436.297.33c.163.182.297.38.297.441 0 .173-.04.132-.326-.335zm-.54-.858a4.586 4.586 0 0 1-.06-.857c.012-.358.041-.27.111.336.1.867.073 1.144-.051.521zm-.246-2.288c-.045-.3-.057-.57-.028-.599.03-.029.09.192.135.492.045.3.058.57.029.6-.03.029-.09-.193-.136-.493zm-.172-.945c.006-.137.033-.165.071-.07.034.084.03.185-.009.224-.04.04-.067-.03-.062-.154zm-.19-.551c-.04-.163-.227-.442-.414-.622a2.116 2.116 0 0 1-.47-.716c-.07-.215-.35-.583-.62-.818-.27-.236-.385-.37-.256-.3.495.27.76.566.984 1.092.127.3.339.62.47.713.241.168.543.783.437.89-.031.03-.09-.077-.13-.24zm-2.877-2.937c-.42-.199-1.029-.428-1.352-.51-.415-.103-.494-.15-.268-.157.371-.011 2.067.632 2.322.88.225.22.197.212-.702-.213zm-12.288-.622c.194-.159.403-.289.464-.29.06 0-.069.132-.288.294-.511.377-.638.375-.176-.004zm4.41-.02c.161-.028.63-.153 1.04-.278.412-.125.941-.22 1.177-.213.353.012.315.032-.218.111a7.534 7.534 0 0 0-1.162.28c-.283.1-.653.176-.823.167l-.308-.016zm-.61-.115c.084-.034.186-.03.225.009.039.04-.03.067-.154.062-.137-.006-.165-.034-.071-.071zm5.754-.003c.146-.028.384-.028.53 0 .145.028.026.051-.265.051-.291 0-.41-.023-.265-.051zm-6.225-.115c.085-.034.186-.03.226.01.039.038-.03.066-.155.06-.137-.005-.165-.033-.07-.07zm5.645 0c.085-.034.186-.03.225.01.04.038-.03.066-.154.06-.137-.005-.165-.033-.071-.07zm-8.178-.119a.676.676 0 0 1 .353.004c.08.033-.014.057-.208.055-.194-.002-.26-.03-.145-.06zm1.644 0a.965.965 0 0 1 .411 0c.114.03.021.055-.205.055-.227 0-.32-.025-.206-.054zm6.063.001c.085-.034.187-.03.226.01.039.039-.03.066-.155.061-.137-.006-.165-.033-.07-.07zm-6.884-.118a.676.676 0 0 1 .353.004c.08.032-.014.056-.208.054-.194-.002-.26-.029-.145-.059zm5.879-.003c.179-.027.443-.027.588.002.145.028-.002.05-.325.049-.323-.001-.442-.024-.263-.05z" style="fill:#2bbbb6;stroke-width:.117593" transform="translate(-385.535 -203.99)"/><path d="M404.874 325.264a.676.676 0 0 1 .353.004c.08.032-.014.056-.208.054-.194-.002-.259-.029-.145-.059zm1.586.004a.454.454 0 0 1 .294 0c.08.032.014.06-.147.06-.162 0-.228-.028-.147-.06zm-3.41-.46c-.456-.247-.405-.333.058-.097.444.225.522.284.373.277-.06-.003-.254-.083-.431-.18zm-5.116-.171c-.379-.153-.33-.18.235-.135.606.048 2.211-.46 2.755-.872.415-.313.612-.29.85.101l.16.262-.28-.255-.28-.256-.33.284c-.18.157-.471.317-.646.356-.175.04-.644.2-1.043.354-.777.302-1.005.328-1.42.16zm4.424-.32c-.146-.187-.142-.19.045-.045.196.154.258.25.161.25-.024 0-.117-.092-.206-.205zm-16.8-.662c0-.024.092-.117.205-.206.187-.146.191-.142.045.045-.154.196-.25.258-.25.161zm7.468-.777c-.042-.067.006-.087.11-.047.204.079.241.163.072.163-.06 0-.143-.052-.182-.116zm-3.5-.197a.454.454 0 0 1 .294 0c.081.032.015.06-.147.06-.161 0-.227-.028-.147-.06zm2.97-.04c-.097-.063-.124-.114-.06-.114.066 0 .198.051.295.114.097.063.123.114.059.114a.706.706 0 0 1-.294-.114zm-2.257-.08c.085-.034.187-.03.226.009.039.039-.03.067-.155.062-.137-.006-.164-.034-.07-.071zm11.283-3.413c.147-.028.358-.027.47.002.113.03-.006.052-.265.05-.26 0-.351-.024-.205-.053zm-5.593-1.505c.002-.194.029-.259.058-.144a.676.676 0 0 1-.004.352c-.032.08-.056-.014-.054-.208zm2.77-1.085a6.724 6.724 0 0 1 1 0c.274.025.05.045-.5.045s-.775-.02-.5-.045zm-3.646-3.285a.454.454 0 0 1 .294 0c.081.033.015.06-.147.06-.161 0-.228-.027-.147-.06zm.83-.12c.086-.034.187-.03.226.01.04.039-.03.066-.154.061-.137-.006-.165-.033-.071-.07zm-4.183-3.682c0-.227.024-.32.054-.206.03.113.03.298 0 .412-.03.113-.054.02-.054-.206zm-5.26-3.998c-.04-.065-.189-.119-.33-.12a.957.957 0 0 1-.435-.116c-.138-.09-.11-.114.134-.115.26-.002 1.028.453.785.464-.045.002-.114-.049-.154-.113zm.718-3.848c-.046-.047-.256-.07-.465-.052-.28.024-.442-.04-.611-.239l-.23-.271.262.222c.19.16.371.203.662.156.22-.036.455-.01.521.056.181.181 1.046-.347 1.334-.813.318-.515 1.042-1.377 1.042-1.24 0 .058-.173.315-.385.569-.211.254-.531.66-.711.903-.446.602-1.166.962-1.419.709zm-1.498-.827c-.146-.186-.142-.19.045-.044.113.089.205.181.205.206 0 .097-.096.034-.25-.162zm4.738-4.733c0-.161.026-.228.059-.147a.454.454 0 0 1 0 .294c-.033.081-.06.015-.06-.147zm28.823-.552a.676.676 0 0 1 .353.004c.08.033-.014.057-.208.055-.194-.002-.26-.03-.145-.059zm-28.706-.389c0-.161.027-.227.06-.147a.454.454 0 0 1 0 .294c-.033.081-.06.015-.06-.147zm27.06.154a.676.676 0 0 1 .352.004c.08.032-.014.057-.208.054-.194-.002-.259-.028-.145-.058zm-22.992-.584a.454.454 0 0 1 .294 0c.08.032.015.06-.147.06-.162 0-.228-.028-.147-.06zm1.12-.004a.676.676 0 0 1 .352.004c.08.032-.014.056-.208.054-.194-.002-.26-.029-.145-.059zm17.224.004a.454.454 0 0 1 .294 0c.081.032.015.06-.147.06-.161 0-.228-.028-.147-.06zm-15.632-.238c.085-.034.186-.03.225.01.04.038-.03.066-.154.061-.137-.006-.165-.034-.071-.071zm13.475-.42-.224-.264.265.224c.145.123.264.242.264.265 0 .094-.094.024-.305-.224zm-19.403-.423c.124-.139.272-.252.33-.252.166 0-.01.219-.296.369-.256.134-.256.133-.034-.117zm.658-.017c-.069-.13-.1-.235-.067-.235.032 0 .116.105.185.235.069.13.1.235.067.235-.032 0-.116-.106-.185-.235zm38.367.036a.678.678 0 0 1 .353.004c.08.032-.014.056-.208.054-.194-.002-.26-.029-.145-.059zm3.055 0a.965.965 0 0 1 .412 0c.113.03.02.054-.206.054-.226 0-.319-.024-.206-.054zm.772.001c.085-.034.186-.03.225.01.04.038-.03.066-.154.06-.137-.005-.165-.033-.071-.07zm.698.002a.454.454 0 0 1 .294 0c.08.033.015.06-.147.06-.162 0-.228-.027-.147-.06zm-6.524-.944a.676.676 0 0 1 .353.004c.08.032-.014.056-.208.054-.194-.002-.26-.029-.145-.059zm-1.294-.235a.676.676 0 0 1 .353.004c.08.032-.014.056-.208.054-.194-.002-.259-.03-.145-.059zm-25.843-.272c.117-.13.24-.235.272-.235.032 0-.037.106-.154.235-.117.13-.24.235-.272.235-.032 0 .037-.105.154-.235zm7.534.035c-.064-.168-.05-.181.066-.066.08.08.116.175.08.21-.036.037-.102-.028-.146-.144zm15.573-.388c-.273-.087-.276-.095-.036-.105.142-.006.29.04.33.105.04.065.057.113.037.106l-.33-.106zm-1.586-.586c-.042-.067.006-.087.11-.046.204.078.241.162.072.162-.06 0-.143-.052-.182-.116zm-.913-.197a.454.454 0 0 1 .294 0c.081.033.015.06-.147.06-.161 0-.227-.027-.147-.06zm-1.734-.157c-.106-.069-.12-.115-.036-.116.077-.001.172.051.212.116.09.146.05.146-.176 0zm-13.942-.3c-.219-.176-.218-.179.037-.055.145.07.264.152.264.182 0 .09-.06.064-.3-.128zm18.734-2.256c.34-.024.895-.024 1.235 0 .34.023.061.043-.618.043s-.957-.02-.617-.043zm8.885-2.424c-.012-.14-.045-.412-.073-.606-.027-.194-.026-.247.003-.117.03.129.102.285.161.346.13.135.142.5.02.576-.049.03-.099-.06-.111-.199zm-.448-1.253c-.04-.064-.19-.117-.332-.117-.143 0-.457-.106-.698-.235-.478-.257-.855-.302-.969-.118-.04.065-.162.117-.272.117-.125 0-.075-.065.138-.177.419-.218.662-.221.96-.014.128.089.418.202.644.25.415.09.993.412.739.412a.275.275 0 0 1-.21-.118zm-3.498-.195a.454.454 0 0 1 .294 0c.08.032.014.06-.147.06-.162 0-.228-.028-.147-.06zm.713-.12c.084-.034.186-.03.225.009.04.039-.03.067-.154.062-.137-.006-.165-.034-.071-.071zm-6.372-.858c-.17-.257-.31-.617-.31-.8 0-.231-.14-.469-.47-.79-.647-.633-.595-.777.06-.164.422.396.528.575.528.889 0 .228.094.485.224.616.21.209.442.717.33.717-.029 0-.191-.21-.362-.468zm-2.013-4.544c-.111-.17-.144-.273-.073-.229.136.084.41.537.325.537-.028 0-.14-.139-.252-.308zm-.286-.584c.006-.137.034-.165.071-.07.034.084.03.186-.009.225-.039.039-.067-.03-.062-.155zm.127-.637c0-.161.027-.227.06-.147a.454.454 0 0 1 0 .294c-.033.081-.06.015-.06-.147zm-.01-1.254a1.923 1.923 0 0 0-.076-.353c-.064-.205-.061-.205.067-.005.074.116.109.274.077.353-.042.103-.06.104-.067.005zm-.23-1.352a2.209 2.209 0 0 0-.081-.412c-.064-.204-.06-.204.067-.006.073.115.11.3.08.412-.047.182-.054.182-.066.006zm-.97-1.715c-.146-.187-.141-.19.045-.045.196.154.258.25.162.25-.025 0-.118-.092-.206-.205zm-1.7-1-.225-.264.265.224c.249.21.318.305.224.305-.022 0-.141-.12-.265-.265zm-2.409-3.939-.285-.323.323.285c.303.266.378.361.285.361-.02 0-.166-.145-.323-.323zm-13.101-.191c.11-.17.224-.309.251-.309.085 0-.188.453-.324.537-.071.044-.038-.059.073-.228zm.555-1.367c0-.227.024-.32.054-.206.03.113.03.298 0 .412-.03.113-.054.02-.054-.206zm7.476-1.021c.085-.034.187-.03.226.009.039.039-.03.067-.155.062-.136-.006-.164-.034-.07-.071zm-7.417-.17c.08-.08.174-.116.21-.08.037.036-.028.102-.144.146-.168.064-.181.05-.066-.066zm6.616-4.277c.417-.42.784-.765.817-.765.032 0-.282.344-.7.765-.416.42-.783.764-.815.764-.033 0 .282-.344.698-.764zm2-2.69c0-.025.092-.117.205-.206.187-.146.19-.142.045.044-.154.196-.25.258-.25.162zm1.43-2.425c0-.162.026-.228.058-.147a.454.454 0 0 1 0 .294c-.032.08-.059.014-.059-.147zm.107-.892c.006-.137.034-.165.071-.071.034.085.03.186-.009.225-.039.04-.066-.03-.061-.154zm.136-.755c0-.226.024-.319.054-.206.03.114.03.299 0 .412-.03.113-.054.02-.054-.206zm-.009-.705c0-.162.027-.228.06-.147a.454.454 0 0 1 0 .294c-.033.08-.06.014-.06-.147zm-.724-1.657c-.253-.207-.258-.223-.036-.114.142.069.29.178.33.243.106.171.035.14-.294-.13zm-.64-.66c-.063-.168-.05-.182.066-.067.08.08.117.175.08.211-.035.037-.101-.029-.145-.145zm-.94-2.069c.044-.116.11-.181.146-.145.036.036 0 .131-.08.211-.116.115-.13.102-.066-.066zm.178-.504c.006-.137.034-.165.071-.071.034.085.03.186-.009.225-.039.04-.067-.03-.062-.154zm.127-.99c0-.162.027-.228.06-.147a.454.454 0 0 1 0 .294c-.033.08-.06.015-.06-.147zm.131-1.058c0-.291.023-.41.051-.265.028.146.028.384 0 .53-.028.145-.051.026-.051-.265zm-.258-1.127c.006-.137.034-.165.071-.071.034.085.03.186-.009.225-.039.04-.067-.03-.062-.154zm-.715-.872c-.106-.069-.12-.115-.036-.116.077-.001.173.05.213.116.09.146.05.146-.177 0zm-1-.941c-.191-.083-.198-.103-.036-.11.11-.004.232.045.272.11.083.135.08.135-.235 0zm-1.392-.706c-.183-.194-.252-.322-.153-.284.149.057.622.637.52.637-.019 0-.183-.159-.367-.353zm-1.002-1.062c-.152-.127-.227-.231-.165-.231s.208.106.325.235c.27.297.2.295-.16-.004zm-1.545-.443c0-.051.186-.072.412-.046.226.027.411.069.411.094 0 .026-.185.046-.411.046-.226 0-.412-.042-.412-.094zm2.14-5.021c.002-.194.029-.26.059-.145a.676.676 0 0 1-.004.353c-.033.08-.057-.014-.055-.208zm-.014-1.186c.006-.137.034-.165.071-.07.034.084.03.186-.009.225-.039.039-.067-.03-.061-.155zm-.62-1.783c-.207-.242-.362-.5-.3-.5.024 0 .161.159.304.353.284.383.281.478-.004.147zm-.182-2.205c0-.259.025-.35.053-.205.028.147.027.358-.002.47-.03.113-.052-.006-.051-.265zm-.13-.882c0-.162.028-.228.06-.147a.454.454 0 0 1 0 .294c-.032.08-.06.015-.06-.147zm-.57-.872c-.181-.156-.303-.303-.27-.326.031-.023.21.105.396.284.416.401.326.43-.126.042zm-.494-.81c-.149-.247-.146-.25.056-.055.117.111.187.228.156.259-.031.03-.127-.06-.212-.203zm-.54-.316c-.042-.066.006-.086.11-.046.204.078.241.162.072.162-.06 0-.143-.052-.182-.116zm-1.956-1.03c-.147-.187-.143-.19.044-.044.113.088.206.18.206.205 0 .097-.097.035-.25-.161zm-2.22-2.029c-.106-.068-.12-.114-.036-.115.077-.001.173.05.213.115.09.146.05.146-.177 0zm-.353-1.41c.07-.13.153-.236.185-.236s.002.106-.067.235c-.07.13-.152.236-.185.236-.032 0-.002-.106.067-.236zm1.774-7.242c.006-.137.033-.165.07-.071.035.084.03.186-.008.225-.04.04-.067-.03-.062-.154zm-.73-1.549c-.146-.186-.142-.19.044-.044.196.153.258.25.162.25-.025 0-.117-.093-.206-.206zm-.588-1.058c-.146-.187-.142-.19.044-.044.196.153.258.25.162.25-.025 0-.117-.093-.206-.206zm-.329-.45c.006-.138.034-.166.071-.072.034.085.03.186-.009.225-.039.04-.066-.03-.061-.154zm-.117-1.177c.006-.137.033-.165.07-.07.035.084.03.186-.008.225-.04.039-.067-.03-.062-.155zm-.109-.99c0-.161.027-.227.06-.146a.454.454 0 0 1 0 .294c-.033.08-.06.014-.06-.147zm-.85-2.44-.285-.323.323.285c.302.267.377.362.285.362-.02 0-.166-.146-.323-.324zm-.63-1.053c-.064-.167-.05-.18.065-.066.08.08.117.175.08.211-.036.036-.101-.029-.145-.145zm-1.308-1.04c-.22-.176-.218-.178.036-.055.145.07.264.153.264.183 0 .09-.06.064-.3-.128zm-.64-.288c-.097-.062-.124-.114-.06-.114.066 0 .198.052.295.114.097.063.123.114.059.114a.706.706 0 0 1-.294-.114zm-.588-.235c-.097-.063-.124-.114-.06-.114.066 0 .198.051.295.114.097.063.123.114.059.114a.706.706 0 0 1-.294-.114zm-.823-.235c-.237-.076-.248-.095-.06-.098.13-.002.342.042.471.098.3.129-.01.129-.411 0zm-10.557-.186c.111-.116.228-.186.26-.155.03.03-.061.126-.204.211-.248.15-.25.147-.056-.056zm4.912-.05a.706.706 0 0 1 .294-.113c.065 0 .038.051-.059.114a.706.706 0 0 1-.294.114c-.064 0-.038-.052.06-.114zm-4.38-.195a.454.454 0 0 1 .294 0c.08.033.014.06-.147.06-.162 0-.228-.027-.147-.06zm1.889-.002c.085-.034.186-.03.225.01.04.038-.03.066-.154.061-.137-.006-.165-.033-.071-.071zm3.057 0c.085-.034.186-.03.225.01.04.038-.03.066-.154.061-.137-.006-.165-.033-.07-.071zm.58-.115a.454.454 0 0 1 .295 0c.08.033.014.06-.147.06-.162 0-.228-.027-.147-.06zm1.473-.004a.676.676 0 0 1 .353.004c.08.032-.014.057-.208.054-.194-.002-.26-.029-.145-.058z" style="fill:#18b6b1;stroke-width:.117593" transform="translate(-385.535 -203.99)"/></svg>